{
.appVersion = "983";
DisplayStrings = (
"fegbpadqunvanway uzicjk"
);
date = "2017-03-14 19:25:40 +0000";
disablesNiceNames = 1;
familyName = "League Spartan TF";
featurePrefixes = (
{
automatic = 1;
code = "languagesystem DFLT dflt;\012languagesystem latn dflt;\012languagesystem latn ROM;\012languagesystem latn CRT;\012languagesystem latn MOL;\012languagesystem latn TAT;\012languagesystem latn KAZ;\012languagesystem latn AZE;\012languagesystem latn TRK;\012";
name = Languagesystems;
}
);
features = (
{
automatic = 1;
code = "feature locl;\012feature sups;\012feature frac;\012feature ordn;\012feature salt;\012feature ss01;\012feature ss02;\012";
name = aalt;
},
{
automatic = 1;
code = "script latn;\012language ROM;\012sub Scedilla by Scommaaccent;\012sub scedilla by scommaaccent;\012language CRT;\012sub i by idotaccent;\012language MOL;\012sub Scedilla by Scommaaccent;\012sub scedilla by scommaaccent;\012language TAT;\012sub i by idotaccent;\012language KAZ;\012sub i by idotaccent;\012language AZE;\012sub i by idotaccent;\012language TRK;\012sub i by idotaccent;\012";
name = locl;
},
{
automatic = 1;
code = "sub one by onesuperior;\012sub two by twosuperior;\012sub three by threesuperior;\012";
name = sups;
},
{
automatic = 1;
code = "sub one slash four by onequarter;\012sub one slash two by onehalf;\012sub three slash four by threequarters;\012";
name = frac;
},
{
automatic = 1;
code = "sub [zero one two three four five six seven eight nine] [A a]' by ordfeminine;\012sub [zero one two three four five six seven eight nine] [O o]' by ordmasculine;\012";
name = ordn;
},
{
automatic = 1;
code = "sub f f j by f_f_j;\012sub f f t by f_f_t;\012sub f j by f_j;\012sub f t by f_t;\012";
name = dlig;
},
{
automatic = 1;
code = "sub f f l by f_f_l;\012sub f f i by f_f_i;\012sub f i by fi;\012sub f f by f_f;\012sub f l by fl;\012";
name = liga;
},
{
automatic = 1;
code = "sub C by C.ss01;\012sub Q by Q.ss01;\012";
name = salt;
},
{
automatic = 1;

glyphs = (
{
glyphname = A;
lastChange = "2017-03-31 17:48:43 +0000";
layers = (
{
layerId = "A4E552E4-62BE-43BB-A58F-34F0EE3B77B8";
paths = (
{
closed = 1;
nodes = (
"-28 0 LINE",
"174 0 LINE",
"235 165 LINE",
"549 165 LINE",
"610 0 LINE",
"812 0 LINE",
"479 825 LINE",
"305 825 LINE"
);
},
{
closed = 1;
nodes = (
"391 570 LINE",
"393 570 LINE",
"485 330 LINE",
"299 330 LINE"
);
}
);
width = 784;
},
{
layerId = "7B60DD57-6012-4D0F-BD38-A72A4BAC0E9D";
paths = (
{
closed = 1;
nodes = (
"-12 0 LINE",
"64 0 LINE",
"143 214 LINE",
"501 214 LINE",
"580 0 LINE",
"656 0 LINE",
"357 825 LINE",
"287 825 LINE"
);
},
{
closed = 1;
nodes = (
"321 723 LINE",
"323 723 LINE",
"482 279 LINE",
"162 279 LINE"
);
}
);
width = 644;
},
{
layerId = "ADAA8221-C97A-4B4F-BB2A-36DAD3E45CA4";
paths = (
{
closed = 1;
nodes = (
"-56 0 LINE",
"21 0 LINE",
"123 214 LINE",
"481 214 LINE",
"537 0 LINE",
"612 0 LINE",
"400 825 LINE",
"330 825 LINE"
);
},
{
closed = 1;
nodes = (
"354 723 LINE",
"356 723 LINE",
"468 279 LINE",
"148 279 LINE"
);
}
);
width = 644;
},
{
layerId = "7B29E906-CD8A-4887-A0AD-C831DD8203F3";
paths = (
{
closed = 1;
nodes = (
"-72 0 LINE",
"132 0 LINE",
"210 165 LINE",
"524 165 LINE",
"568 0 LINE",
"768 0 LINE",
"521 825 LINE",
"347 825 LINE"
);
},
{
closed = 1;
nodes = (
"409 570 LINE",
"411 570 LINE",
"477 330 LINE",
"291 330 LINE"
);
}
);
width = 784;
}
);
leftKerningGroup = A;
rightKerningGroup = d;
unicode = 0041;
},
{
glyphname = AE;
lastChange = "2017-03-31 17:48:43 +0000";
layers = (
{
components = (
{
alignment = -1;
name = E;
transform = "{1, 0, 0, 1, 442, 0}";
}
);
layerId = "A4E552E4-62BE-43BB-A58F-34F0EE3B77B8";
paths = (
{
closed = 1;
nodes = (
"-5 0 LINE",
"207 0 LINE",
"287 165 LINE",
"599 165 LINE",
"636 825 LINE",
"442 825 LINE"
);
},
{
closed = 1;
nodes = (
"504 570 LINE",
"506 570 LINE",
"506 330 LINE",
"380 330 LINE"
);
}
);
width = 1039;
},
{
components = (
{
alignment = -1;
name = E;
transform = "{1, 0, 0, 1, 407, 0}";
}
);
layerId = "7B60DD57-6012-4D0F-BD38-A72A4BAC0E9D";
paths = (
{
closed = 1;
nodes = (
"-5 0 LINE",
"71 0 LINE",
"194 214 LINE",
"536 214 LINE",
"536 825 LINE",
"466 825 LINE"
);
},
{
closed = 1;
nodes = (
"479 723 LINE",
"481 723 LINE",
"482 279 LINE",
"227 279 LINE"
);
}
);
width = 944;
},
{
components = (
{
alignment = -1;
name = E;
transform = "{1, 0, 0, 1, 407, 0}";
}
);
layerId = "ADAA8221-C97A-4B4F-BB2A-36DAD3E45CA4";
paths = (
{
closed = 1;
nodes = (
"-49 0 LINE",
"28 0 LINE",
"174 214 LINE",
"515 214 LINE",
"579 825 LINE",
"509 825 LINE"
);
},
{
closed = 1;
nodes = (
"512 723 LINE",
"514 723 LINE",
"468 279 LINE",
"214 279 LINE"
);
}
);
width = 944;
},
{
components = (
{
alignment = -1;
name = E;
transform = "{1, 0, 0, 1, 442, 0}";
}
);
layerId = "7B29E906-CD8A-4887-A0AD-C831DD8203F3";
paths = (
{
closed = 1;
nodes = (
"-50 0 LINE",
"165 0 LINE",
"262 165 LINE",
"573 165 LINE",
"680 825 LINE",
"484 825 LINE"
);
},
{
closed = 1;
nodes = (
"522 570 LINE",
"523 570 LINE",
"497 330 LINE",
"373 330 LINE"
);
}
);
width = 1039;
}
);
rightKerningGroup = d;
unicode = 00C6;
},
{
glyphname = B;
lastChange = "2017-03-31 17:48:43 +0000";
layers = (
{
layerId = "A4E552E4-62BE-43BB-A58F-34F0EE3B77B8";
paths = (
{
closed = 1;
nodes = (
"60 0 LINE",
"377 0 LINE SMOOTH",
"548 0 OFFCURVE",
"643 94 OFFCURVE",
"643 230 CURVE SMOOTH",
"643 363 OFFCURVE",
"580 420 OFFCURVE",
"477 438 CURVE",
"548 455 OFFCURVE",
"608 518 OFFCURVE",
"608 615 CURVE SMOOTH",
"608 772 OFFCURVE",
"486 825 OFFCURVE",
"344 825 CURVE SMOOTH",
"60 825 LINE"
);
},
{
closed = 1;
nodes = (
"248 340 LINE",
"307 340 LINE SMOOTH",
"396 340 OFFCURVE",
"445 313 OFFCURVE",
"445 237 CURVE SMOOTH",
"445 172 OFFCURVE",
"396 145 OFFCURVE",
"307 145 CURVE SMOOTH",
"248 145 LINE"
);
},
{
closed = 1;
nodes = (
"248 680 LINE",
"301 680 LINE SMOOTH",
"383 680 OFFCURVE",
"422 655 OFFCURVE",
"422 596 CURVE SMOOTH",
"422 527 OFFCURVE",
"382 502 OFFCURVE",
"301 502 CURVE SMOOTH",
"248 502 LINE"
);
}
);
width = 666;
},
{
layerId = "7B60DD57-6012-4D0F-BD38-A72A4BAC0E9D";
paths = (
{
closed = 1;
nodes = (
"60 0 LINE",
"317 0 LINE SMOOTH",
"488 0 OFFCURVE",
"560 104 OFFCURVE",
"560 230 CURVE SMOOTH",
"560 357 OFFCURVE",
"451 419 OFFCURVE",
"392 424 CURVE",
"445 434 OFFCURVE",
"518 518 OFFCURVE",
"518 625 CURVE SMOOTH",
"518 782 OFFCURVE",
"396 825 OFFCURVE",
"264 825 CURVE SMOOTH",
"60 825 LINE"
);
},
{
closed = 1;
nodes = (
"128 390 LINE",
"307 390 LINE SMOOTH",
"436 390 OFFCURVE",
"492 313 OFFCURVE",
"492 227 CURVE SMOOTH",
"492 152 OFFCURVE",
"456 65 OFFCURVE",
"317 65 CURVE SMOOTH",
"128 65 LINE"
);
},
{
closed = 1;
nodes = (
"128 760 LINE",
"271 760 LINE SMOOTH",
"393 760 OFFCURVE",
"452 715 OFFCURVE",
"452 616 CURVE SMOOTH",
"452 537 OFFCURVE",
"402 452 OFFCURVE",
"291 452 CURVE SMOOTH",
"128 452 LINE"
);
}
);
width = 593;
},
{
layerId = "ADAA8221-C97A-4B4F-BB2A-36DAD3E45CA4";
paths = (
{
closed = 1;
nodes = (
"17 0 LINE",
"275 0 LINE SMOOTH",
"446 0 OFFCURVE",
"527 103 OFFCURVE",
"541 227 CURVE SMOOTH",
"554 356 OFFCURVE",
"450 419 OFFCURVE",
"393 424 CURVE",
"449 434 OFFCURVE",
"529 517 OFFCURVE",
"540 622 CURVE SMOOTH",
"557 781 OFFCURVE",
"438 825 OFFCURVE",
"306 825 CURVE SMOOTH",
"103 825 LINE"
);
},
{
closed = 1;
nodes = (
"126 390 LINE",
"306 390 LINE SMOOTH",
"435 390 OFFCURVE",
"482 314 OFFCURVE",
"473 230 CURVE SMOOTH",
"465 153 OFFCURVE",
"418 65 OFFCURVE",
"279 65 CURVE SMOOTH",
"91 65 LINE"
);
},
{
closed = 1;
nodes = (
"165 760 LINE",
"309 760 LINE SMOOTH",
"431 760 OFFCURVE",
"484 716 OFFCURVE",
"474 619 CURVE SMOOTH",
"465 538 OFFCURVE",
"405 452 OFFCURVE",
"294 452 CURVE SMOOTH",
"132 452 LINE"
);
}
);
width = 593;
},
{
layerId = "7B29E906-CD8A-4887-A0AD-C831DD8203F3";
paths = (
{
closed = 1;
nodes = (
"17 0 LINE",
"337 0 LINE SMOOTH",
"508 0 OFFCURVE",
"609 90 OFFCURVE",
"623 222 CURVE SMOOTH",
"637 359 OFFCURVE",
"577 419 OFFCURVE",
"479 436 CURVE",
"556 454 OFFCURVE",
"619 514 OFFCURVE",
"628 607 CURVE SMOOTH",
"645 768 OFFCURVE",
"526 825 OFFCURVE",
"384 825 CURVE SMOOTH",
"103 825 LINE"
);
},
{
closed = 1;
nodes = (
"240 340 LINE",
"303 340 LINE SMOOTH",
"392 340 OFFCURVE",
"435 317 OFFCURVE",
"427 245 CURVE SMOOTH",
"420 176 OFFCURVE",
"364 145 OFFCURVE",
"275 145 CURVE SMOOTH",
"220 145 LINE"
);
},
{
closed = 1;
nodes = (
"276 680 LINE",
"333 680 LINE SMOOTH",
"415 680 OFFCURVE",
"448 659 OFFCURVE",
"442 604 CURVE SMOOTH",
"434 531 OFFCURVE",
"388 502 OFFCURVE",
"307 502 CURVE SMOOTH",
"257 502 LINE"
);
}
);
width = 666;
}
);
rightKerningGroup = d;
unicode = 0042;
},
{
glyphname = C;
lastChange = "2017-03-31 17:48:43 +0000";
layers = (
{
layerId = "A4E552E4-62BE-43BB-A58F-34F0EE3B77B8";
paths = (
{
closed = 1;
nodes = (
"658 808 LINE",
"599 835 OFFCURVE",
"554 840 OFFCURVE",
"475 840 CURVE SMOOTH",
"234 840 OFFCURVE",
"23 654 OFFCURVE",
"23 413 CURVE SMOOTH",
"23 172 OFFCURVE",
"216 -15 OFFCURVE",
"475 -15 CURVE SMOOTH",
"545 -15 OFFCURVE",
"600 -11 OFFCURVE",
"658 15 CURVE",
"658 220 LINE",
"633 198 OFFCURVE",
"591 167 OFFCURVE",
"475 167 CURVE SMOOTH",
"312 167 OFFCURVE",
"234 290 OFFCURVE",
"234 413 CURVE SMOOTH",
"234 536 OFFCURVE",
"321 659 OFFCURVE",
"475 659 CURVE SMOOTH",
"590 659 OFFCURVE",
"633 626 OFFCURVE",
"658 603 CURVE"
);
}
);
width = 697;
},
{
layerId = "7B60DD57-6012-4D0F-BD38-A72A4BAC0E9D";
paths = (
{
closed = 1;
nodes = (
"588 803 LINE",
"552 825 OFFCURVE",
"502 840 OFFCURVE",
"415 840 CURVE SMOOTH",
"184 840 OFFCURVE",
"23 654 OFFCURVE",
"23 413 CURVE SMOOTH",
"23 172 OFFCURVE",
"166 -15 OFFCURVE",
"415 -15 CURVE SMOOTH",
"495 -15 OFFCURVE",
"558 5 OFFCURVE",
"588 25 CURVE",
"588 101 LINE",
"567 86 OFFCURVE",
"517 53 OFFCURVE",
"415 53 CURVE SMOOTH",
"262 53 OFFCURVE",
"98 170 OFFCURVE",
"98 413 CURVE SMOOTH",
"98 656 OFFCURVE",
"271 773 OFFCURVE",
"415 773 CURVE SMOOTH",
"520 773 OFFCURVE",
"569 740 OFFCURVE",
"588 727 CURVE"
);
}
);
width = 627;
},
{
layerId = "ADAA8221-C97A-4B4F-BB2A-36DAD3E45CA4";
paths = (
{
closed = 1;
nodes = (
"628 802 LINE",
"594 824 OFFCURVE",
"546 840 OFFCURVE",
"457 840 CURVE SMOOTH",
"228 840 OFFCURVE",
"49 655 OFFCURVE",
"23 416 CURVE SMOOTH",
"-2 173 OFFCURVE",
"122 -15 OFFCURVE",
"373 -15 CURVE SMOOTH",
"451 -15 OFFCURVE",
"516 4 OFFCURVE",
"548 24 CURVE",
"554 102 LINE",
"532 87 OFFCURVE",
"478 53 OFFCURVE",
"374 53 CURVE SMOOTH",
"223 53 OFFCURVE",
"72 169 OFFCURVE",
"98 410 CURVE SMOOTH",
"123 655 OFFCURVE",
"310 773 OFFCURVE",
"456 773 CURVE SMOOTH",
"559 773 OFFCURVE",
"605 741 OFFCURVE",
"622 728 CURVE"
);
}
);
width = 627;
},
{
layerId = "7B29E906-CD8A-4887-A0AD-C831DD8203F3";
paths = (
{
closed = 1;
nodes = (
"696 806 LINE",
"640 833 OFFCURVE",
"595 840 OFFCURVE",
"513 840 CURVE SMOOTH",
"275 840 OFFCURVE",
"49 658 OFFCURVE",
"24 421 CURVE SMOOTH",
"-2 176 OFFCURVE",
"175 -15 OFFCURVE",
"437 -15 CURVE SMOOTH",
"504 -15 OFFCURVE",
"558 -13 OFFCURVE",
"619 13 CURVE",
"635 223 LINE",
"608 201 OFFCURVE",
"562 167 OFFCURVE",
"442 167 CURVE SMOOTH",
"283 167 OFFCURVE",
"221 286 OFFCURVE",
"233 405 CURVE SMOOTH",
"247 532 OFFCURVE",
"350 659 OFFCURVE",
"508 659 CURVE SMOOTH",
"619 659 OFFCURVE",
"658 629 OFFCURVE",
"681 606 CURVE"
);
}
);
width = 697;
}
);
leftKerningGroup = C;
rightKerningGroup = C;
unicode = 0043;
},
{
glyphname = D;
lastChange = "2017-03-31 17:48:43 +0000";
layers = (
{
layerId = "A4E552E4-62BE-43BB-A58F-34F0EE3B77B8";
paths = (
{
closed = 1;
nodes = (
"60 0 LINE",
"309 0 LINE SMOOTH",
"536 0 OFFCURVE",
"700 172 OFFCURVE",
"700 413 CURVE SMOOTH",
"700 653 OFFCURVE",
"535 825 OFFCURVE",
"309 825 CURVE SMOOTH",
"60 825 LINE"
);
},
{
closed = 1;
nodes = (
"287 657 LINE SMOOTH",
"427 657 OFFCURVE",
"502 550 OFFCURVE",
"502 412 CURVE SMOOTH",
"501 274 OFFCURVE",
"426 168 OFFCURVE",
"287 168 CURVE SMOOTH",
"248 168 LINE",
"248 657 LINE"
);
}
);
width = 722;
},
{
layerId = "7B60DD57-6012-4D0F-BD38-A72A4BAC0E9D";
paths = (
{
closed = 1;
nodes = (
"60 0 LINE",
"229 0 LINE SMOOTH",
"486 0 OFFCURVE",
"610 172 OFFCURVE",
"610 413 CURVE SMOOTH",
"610 653 OFFCURVE",
"485 825 OFFCURVE",
"229 825 CURVE SMOOTH",
"60 825 LINE"
);
},
{
closed = 1;
nodes = (
"207 757 LINE SMOOTH",
"427 757 OFFCURVE",
"543 630 OFFCURVE",
"542 412 CURVE SMOOTH",
"541 194 OFFCURVE",
"426 68 OFFCURVE",
"207 68 CURVE SMOOTH",
"128 68 LINE",
"128 757 LINE"
);
}
);
width = 635;
},
{
layerId = "ADAA8221-C97A-4B4F-BB2A-36DAD3E45CA4";
paths = (
{
closed = 1;
nodes = (
"17 0 LINE",
"187 0 LINE SMOOTH",
"444 0 OFFCURVE",
"585 171 OFFCURVE",
"610 410 CURVE SMOOTH",
"635 652 OFFCURVE",
"527 825 OFFCURVE",
"271 825 CURVE SMOOTH",
"103 825 LINE"
);
},
{
closed = 1;
nodes = (
"245 757 LINE SMOOTH",
"465 757 OFFCURVE",
"566 631 OFFCURVE",
"542 415 CURVE SMOOTH",
"518 195 OFFCURVE",
"388 68 OFFCURVE",
"169 68 CURVE SMOOTH",
"92 68 LINE",
"164 757 LINE"
);
}
);
width = 635;
},
{
layerId = "7B29E906-CD8A-4887-A0AD-C831DD8203F3";
paths = (
{
closed = 1;
nodes = (
"17 0 LINE",
"269 0 LINE SMOOTH",
"496 0 OFFCURVE",
"674 168 OFFCURVE",
"699 405 CURVE SMOOTH",
"725 649 OFFCURVE",
"575 825 OFFCURVE",
"349 825 CURVE SMOOTH",
"103 825 LINE"
);
},
{
closed = 1;
nodes = (
"316 657 LINE SMOOTH",
"456 657 OFFCURVE",
"517 554 OFFCURVE",
"503 420 CURVE SMOOTH",
"487 278 OFFCURVE",
"397 168 OFFCURVE",
"258 168 CURVE SMOOTH",
"222 168 LINE",
"274 657 LINE"
);
}
);
width = 722;
}
);
rightKerningGroup = d;
unicode = 0044;
},
{
glyphname = Eth;
lastChange = "2017-03-31 17:48:43 +0000";
layers = (
{
layerId = "A4E552E4-62BE-43BB-A58F-34F0EE3B77B8";
paths = (
{
closed = 1;
nodes = (
"98 825 LINE",
"98 489 LINE",
"16 489 LINE",
"16 336 LINE",
"98 336 LINE",
"98 0 LINE",
"337 0 LINE SMOOTH",
"563 0 OFFCURVE",
"752 171 OFFCURVE",
"753 412 CURVE SMOOTH",
"753 653 OFFCURVE",
"564 825 OFFCURVE",
"337 825 CURVE SMOOTH"
);
},
{
closed = 1;
nodes = (
"286 168 LINE",
"286 336 LINE",
"395 336 LINE",
"395 489 LINE",
"286 489 LINE",
"286 657 LINE",
"315 657 LINE SMOOTH",
"454 657 OFFCURVE",
"549 550 OFFCURVE",
"550 413 CURVE SMOOTH",
"550 275 OFFCURVE",
"455 168 OFFCURVE",
"315 168 CURVE SMOOTH"
);
}
);
width = 776;
},
{
layerId = "7B60DD57-6012-4D0F-BD38-A72A4BAC0E9D";
paths = (
{
closed = 1;
nodes = (
"150 825 LINE",
"150 439 LINE",
"16 439 LINE",
"16 386 LINE",
"150 386 LINE",
"150 0 LINE",
"319 0 LINE SMOOTH",
"576 0 OFFCURVE",
"700 172 OFFCURVE",
"700 413 CURVE SMOOTH",
"700 653 OFFCURVE",
"575 825 OFFCURVE",
"319 825 CURVE SMOOTH"
);
},
{
closed = 1;
nodes = (
"218 68 LINE",
"218 386 LINE",
"365 386 LINE",
"365 439 LINE",
"218 439 LINE",
"218 757 LINE",
"297 757 LINE SMOOTH",
"517 757 OFFCURVE",
"633 630 OFFCURVE",
"632 412 CURVE SMOOTH",
"631 194 OFFCURVE",
"516 68 OFFCURVE",
"297 68 CURVE SMOOTH"
);
}
);
width = 723;
},
{
layerId = "ADAA8221-C97A-4B4F-BB2A-36DAD3E45CA4";
paths = (
{
closed = 1;
nodes = (
"193 825 LINE",
"153 439 LINE",
"19 439 LINE",
"13 386 LINE",
"147 386 LINE",
"107 0 LINE",
"277 0 LINE SMOOTH",
"534 0 OFFCURVE",
"675 171 OFFCURVE",
"700 410 CURVE SMOOTH",
"725 652 OFFCURVE",
"617 825 OFFCURVE",
"361 825 CURVE SMOOTH"
);
},
{
closed = 1;
nodes = (
"182 68 LINE",
"215 386 LINE",
"362 386 LINE",
"368 439 LINE",
"221 439 LINE",
"254 757 LINE",
"335 757 LINE SMOOTH",
"555 757 OFFCURVE",
"656 631 OFFCURVE",
"632 415 CURVE SMOOTH",
"608 195 OFFCURVE",
"478 68 OFFCURVE",
"259 68 CURVE SMOOTH"
);
}
);
width = 723;
},
{
layerId = "7B29E906-CD8A-4887-A0AD-C831DD8203F3";
paths = (
{
closed = 1;
nodes = (
"141 825 LINE",
"106 489 LINE",
"24 489 LINE",
"8 336 LINE",
"90 336 LINE",
"55 0 LINE",
"297 0 LINE SMOOTH",
"523 0 OFFCURVE",
"726 167 OFFCURVE",
"752 404 CURVE SMOOTH",
"778 649 OFFCURVE",
"604 825 OFFCURVE",
"377 825 CURVE SMOOTH"
);
},
{
closed = 1;
nodes = (
"260 168 LINE",
"278 336 LINE",
"387 336 LINE",
"403 489 LINE",
"294 489 LINE",
"312 657 LINE",
"344 657 LINE SMOOTH",
"483 657 OFFCURVE",
"564 554 OFFCURVE",
"551 421 CURVE SMOOTH",
"536 279 OFFCURVE",
"426 168 OFFCURVE",
"286 168 CURVE SMOOTH"
);
}
);
width = 776;
}
);
rightKerningGroup = d;
unicode = 00D0;
},
{
glyphname = Dcroat;
lastChange = "2017-03-31 17:48:43 +0000";
layers = (
{
layerId = "A4E552E4-62BE-43BB-A58F-34F0EE3B77B8";
paths = (
{
closed = 1;
nodes = (
"337 0 LINE SMOOTH",
"564 0 OFFCURVE",
"753 172 OFFCURVE",
"753 413 CURVE SMOOTH",
"753 653 OFFCURVE",
"563 825 OFFCURVE",
"337 825 CURVE SMOOTH",
"98 825 LINE",
"98 489 LINE",
"16 489 LINE",
"16 336 LINE",
"98 336 LINE",
"98 0 LINE"
);
},
{
closed = 1;
nodes = (
"286 336 LINE",
"395 336 LINE",
"395 489 LINE",
"286 489 LINE",
"286 657 LINE",
"315 657 LINE SMOOTH",
"455 657 OFFCURVE",
"550 550 OFFCURVE",
"550 412 CURVE SMOOTH",
"549 274 OFFCURVE",
"454 168 OFFCURVE",
"315 168 CURVE SMOOTH",
"286 168 LINE"
);
}
);
width = 776;
},
{
layerId = "7B60DD57-6012-4D0F-BD38-A72A4BAC0E9D";
paths = (
{
closed = 1;
nodes = (
"319 0 LINE SMOOTH",
"576 0 OFFCURVE",
"700 172 OFFCURVE",
"700 413 CURVE SMOOTH",
"700 653 OFFCURVE",
"575 825 OFFCURVE",
"319 825 CURVE SMOOTH",
"150 825 LINE",
"150 439 LINE",
"16 439 LINE",
"16 386 LINE",
"150 386 LINE",
"150 0 LINE"
);
},
{
closed = 1;
nodes = (
"218 386 LINE",
"365 386 LINE",
"365 439 LINE",
"218 439 LINE",
"218 757 LINE",
"297 757 LINE SMOOTH",
"517 757 OFFCURVE",
"633 630 OFFCURVE",
"632 412 CURVE SMOOTH",
"631 194 OFFCURVE",
"516 68 OFFCURVE",
"297 68 CURVE SMOOTH",
"218 68 LINE"
);
}
);
width = 723;
},
{
layerId = "ADAA8221-C97A-4B4F-BB2A-36DAD3E45CA4";
paths = (
{
closed = 1;
nodes = (
"277 0 LINE SMOOTH",
"534 0 OFFCURVE",
"675 171 OFFCURVE",
"700 410 CURVE SMOOTH",
"725 652 OFFCURVE",
"617 825 OFFCURVE",
"361 825 CURVE SMOOTH",
"193 825 LINE",
"153 439 LINE",
"19 439 LINE",
"13 386 LINE",
"147 386 LINE",
"107 0 LINE"
);
},
{
closed = 1;
nodes = (
"215 386 LINE",
"362 386 LINE",
"368 439 LINE",
"221 439 LINE",
"254 757 LINE",
"335 757 LINE SMOOTH",
"555 757 OFFCURVE",
"656 631 OFFCURVE",
"632 415 CURVE SMOOTH",
"608 195 OFFCURVE",
"478 68 OFFCURVE",
"259 68 CURVE SMOOTH",
"182 68 LINE"
);
}
);
width = 723;
},
{
layerId = "7B29E906-CD8A-4887-A0AD-C831DD8203F3";
paths = (
{
closed = 1;
nodes = (
"297 0 LINE SMOOTH",
"524 0 OFFCURVE",
"727 168 OFFCURVE",
"752 405 CURVE SMOOTH",
"778 649 OFFCURVE",
"603 825 OFFCURVE",
"377 825 CURVE SMOOTH",
"141 825 LINE",
"106 489 LINE",
"24 489 LINE",
"8 336 LINE",
"90 336 LINE",
"55 0 LINE"
);
},
{
closed = 1;
nodes = (
"278 336 LINE",
"387 336 LINE",
"403 489 LINE",
"294 489 LINE",
"312 657 LINE",
"344 657 LINE SMOOTH",
"484 657 OFFCURVE",
"565 554 OFFCURVE",
"551 420 CURVE SMOOTH",
"535 278 OFFCURVE",
"425 168 OFFCURVE",
"286 168 CURVE SMOOTH",
"260 168 LINE"
);
}
);
width = 776;
}
);
rightKerningGroup = d;
unicode = 0110;
},
{
glyphname = E;
lastChange = "2017-03-31 17:48:43 +0000";
layers = (
{
layerId = "A4E552E4-62BE-43BB-A58F-34F0EE3B77B8";
paths = (
{
closed = 1;
nodes = (
"60 0 LINE",
"552 0 LINE",
"552 165 LINE",
"248 165 LINE",
"248 331 LINE",
"540 331 LINE",
"540 496 LINE",
"248 496 LINE",
"248 660 LINE",
"552 660 LINE",
"552 825 LINE",
"60 825 LINE"
);
}
);
width = 600;
},
{
layerId = "7B60DD57-6012-4D0F-BD38-A72A4BAC0E9D";
paths = (
{
closed = 1;
nodes = (
"70 0 LINE",
"492 0 LINE",
"492 65 LINE",
"138 65 LINE",
"138 381 LINE",
"480 381 LINE",
"480 446 LINE",
"138 446 LINE",
"138 760 LINE",
"492 760 LINE",
"492 825 LINE",
"70 825 LINE"
);
}
);
width = 552;
},
{
layerId = "ADAA8221-C97A-4B4F-BB2A-36DAD3E45CA4";
paths = (
{
closed = 1;
nodes = (
"27 0 LINE",
"449 0 LINE",
"455 65 LINE",
"101 65 LINE",
"135 381 LINE",
"477 381 LINE",
"484 446 LINE",
"142 446 LINE",
"175 760 LINE",
"529 760 LINE",
"535 825 LINE",
"113 825 LINE"
);
}
);
width = 552;
},
{
layerId = "7B29E906-CD8A-4887-A0AD-C831DD8203F3";
paths = (
{
closed = 1;
nodes = (
"17 0 LINE",
"509 0 LINE",
"526 165 LINE",
"222 165 LINE",
"239 331 LINE",
"531 331 LINE",
"549 496 LINE",
"257 496 LINE",
"274 660 LINE",
"578 660 LINE",
"595 825 LINE",
"103 825 LINE"
);
}
);
width = 600;
}
);
rightKerningGroup = E;
unicode = 0045;
},
{
glyphname = F;
lastChange = "2017-03-31 17:48:43 +0000";
layers = (
{
layerId = "A4E552E4-62BE-43BB-A58F-34F0EE3B77B8";
paths = (
{
closed = 1;
nodes = (
"60 0 LINE",
"248 0 LINE",
"248 331 LINE",
"515 331 LINE",
"515 496 LINE",
"248 496 LINE",
"248 660 LINE",
"537 660 LINE",
"537 825 LINE",
"60 825 LINE"
);
}
);
width = 567;
},
{
layerId = "7B60DD57-6012-4D0F-BD38-A72A4BAC0E9D";
paths = (
{
closed = 1;
nodes = (
"60 0 LINE",
"128 0 LINE",
"128 381 LINE",
"445 381 LINE",
"445 446 LINE",
"128 446 LINE",
"128 760 LINE",
"467 760 LINE",
"467 825 LINE",
"60 825 LINE"
);
}
);
width = 497;
},
{
layerId = "ADAA8221-C97A-4B4F-BB2A-36DAD3E45CA4";
paths = (
{
closed = 1;
nodes = (
"17 0 LINE",
"85 0 LINE",
"125 381 LINE",
"442 381 LINE",
"449 446 LINE",
"132 446 LINE",
"165 760 LINE",
"504 760 LINE",
"510 825 LINE",
"103 825 LINE"
);
}
);
width = 497;
},
{
layerId = "7B29E906-CD8A-4887-A0AD-C831DD8203F3";
paths = (
{
closed = 1;
nodes = (
"17 0 LINE",
"205 0 LINE",
"239 331 LINE",
"506 331 LINE",
"524 496 LINE",
"257 496 LINE",
"274 660 LINE",
"563 660 LINE",
"580 825 LINE",
"103 825 LINE"
);
}
);
width = 567;
}
);
rightKerningGroup = d;
unicode = 0046;
},
{
glyphname = G;
lastChange = "2017-03-31 17:48:43 +0000";
layers = (
{
layerId = "A4E552E4-62BE-43BB-A58F-34F0EE3B77B8";
paths = (
{
closed = 1;
nodes = (
"425 317 LINE",
"615 317 LINE",
"615 216 OFFCURVE",
"539 161 OFFCURVE",
"436 161 CURVE SMOOTH",
"320 161 OFFCURVE",
"226 272 OFFCURVE",
"226 412 CURVE SMOOTH",
"226 555 OFFCURVE",
"320 667 OFFCURVE",
"436 667 CURVE SMOOTH",
"509 667 OFFCURVE",
"572 641 OFFCURVE",
"620 564 CURVE",
"743 699 LINE",
"671 786 OFFCURVE",
"570 840 OFFCURVE",
"425 840 CURVE SMOOTH",
"193 840 OFFCURVE",
"23 649 OFFCURVE",
"23 412 CURVE SMOOTH",
"23 176 OFFCURVE",
"203 -15 OFFCURVE",
"425 -15 CURVE SMOOTH",
"774 -15 OFFCURVE",
"802 290 OFFCURVE",
"810 324 CURVE",
"810 462 LINE",
"425 462 LINE"
);
}
);
width = 829;
},
{
layerId = "7B60DD57-6012-4D0F-BD38-A72A4BAC0E9D";
paths = (
{
closed = 1;
nodes = (
"395 377 LINE",
"675 377 LINE",
"675 174 OFFCURVE",
"568 53 OFFCURVE",
"395 53 CURVE SMOOTH",
"216 53 OFFCURVE",
"96 202 OFFCURVE",
"96 412 CURVE SMOOTH",
"96 625 OFFCURVE",
"231 774 OFFCURVE",
"397 774 CURVE SMOOTH",
"536 774 OFFCURVE",
"598 710 OFFCURVE",
"626 683 CURVE",
"679 732 LINE",
"641 768 OFFCURVE",
"562 840 OFFCURVE",
"397 840 CURVE SMOOTH",
"175 840 OFFCURVE",
"23 649 OFFCURVE",
"23 412 CURVE SMOOTH",
"23 176 OFFCURVE",
"163 -15 OFFCURVE",
"395 -15 CURVE SMOOTH",
"744 -15 OFFCURVE",
"750 350 OFFCURVE",
"750 384 CURVE",
"750 442 LINE",
"395 442 LINE"
);
}
);
width = 769;
},
{
layerId = "ADAA8221-C97A-4B4F-BB2A-36DAD3E45CA4";
paths = (
{
closed = 1;
nodes = (
"391 377 LINE",
"671 378 LINE",
"650 175 OFFCURVE",
"529 53 OFFCURVE",
"354 53 CURVE SMOOTH",
"177 53 OFFCURVE",
"74 201 OFFCURVE",
"96 409 CURVE SMOOTH",
"118 624 OFFCURVE",
"270 774 OFFCURVE",
"438 774 CURVE SMOOTH",
"575 774 OFFCURVE",
"630 711 OFFCURVE",
"656 684 CURVE",
"712 731 LINE",
"677 767 OFFCURVE",
"606 840 OFFCURVE",
"439 840 CURVE SMOOTH",
"219 840 OFFCURVE",
"48 650 OFFCURVE",
"23 415 CURVE SMOOTH",
"-2 177 OFFCURVE",
"119 -15 OFFCURVE",
"353 -15 CURVE SMOOTH",
"700 -15 OFFCURVE",
"743 349 OFFCURVE",
"747 383 CURVE",
"753 442 LINE",
"398 442 LINE"
);
}
);
width = 769;
},
{
layerId = "7B29E906-CD8A-4887-A0AD-C831DD8203F3";
paths = (
{
closed = 1;
nodes = (
"415 317 LINE",
"605 321 LINE",
"595 220 OFFCURVE",
"509 161 OFFCURVE",
"403 161 CURVE SMOOTH",
"290 161 OFFCURVE",
"211 268 OFFCURVE",
"225 404 CURVE SMOOTH",
"241 551 OFFCURVE",
"350 667 OFFCURVE",
"470 667 CURVE SMOOTH",
"539 667 OFFCURVE",
"598 644 OFFCURVE",
"638 567 CURVE",
"772 696 LINE",
"708 783 OFFCURVE",
"611 840 OFFCURVE",
"463 840 CURVE SMOOTH",
"234 840 OFFCURVE",
"48 653 OFFCURVE",
"24 420 CURVE SMOOTH",
"-1 180 OFFCURVE",
"162 -15 OFFCURVE",
"387 -15 CURVE SMOOTH",
"733 -15 OFFCURVE",
"790 286 OFFCURVE",
"801 320 CURVE",
"815 462 LINE",
"430 462 LINE"
);
}
);
width = 829;
}
);
leftKerningGroup = G;
rightKerningGroup = d;
unicode = 0047;
},
{
glyphname = H;
lastChange = "2017-03-31 17:48:43 +0000";
layers = (
{
layerId = "A4E552E4-62BE-43BB-A58F-34F0EE3B77B8";
paths = (
{
closed = 1;
nodes = (
"514 0 LINE",
"702 0 LINE",
"702 825 LINE",
"514 825 LINE",
"514 496 LINE",
"248 496 LINE",
"248 825 LINE",
"60 825 LINE",
"60 0 LINE",
"248 0 LINE",
"248 331 LINE",
"514 331 LINE"
);
}
);
width = 762;
},
{
layerId = "7B60DD57-6012-4D0F-BD38-A72A4BAC0E9D";
paths = (
{
closed = 1;
nodes = (
"524 0 LINE",
"592 0 LINE",
"592 825 LINE",
"524 825 LINE",
"524 446 LINE",
"128 446 LINE",
"128 825 LINE",
"60 825 LINE",
"60 0 LINE",
"128 0 LINE",
"128 381 LINE",
"524 381 LINE"
);
}
);
width = 652;
},
{
layerId = "ADAA8221-C97A-4B4F-BB2A-36DAD3E45CA4";
paths = (
{
closed = 1;
nodes = (
"481 0 LINE",
"549 0 LINE",
"635 825 LINE",
"567 825 LINE",
"528 446 LINE",
"132 446 LINE",
"171 825 LINE",
"103 825 LINE",
"17 0 LINE",
"85 0 LINE",
"125 381 LINE",
"521 381 LINE"
);
}
);
width = 652;
},
{
layerId = "7B29E906-CD8A-4887-A0AD-C831DD8203F3";
paths = (
{
closed = 1;
nodes = (
"471 0 LINE",
"659 0 LINE",
"745 825 LINE",
"557 825 LINE",
"523 496 LINE",
"257 496 LINE",
"291 825 LINE",
"103 825 LINE",
"17 0 LINE",
"205 0 LINE",
"239 331 LINE",
"505 331 LINE"
);
}
);
width = 762;
}
);
rightKerningGroup = d;
unicode = 0048;
},
{
glyphname = Hbar;
lastChange = "2017-03-31 17:48:43 +0000";
layers = (
{
components = (
{
name = H;
}
);
layerId = "7B60DD57-6012-4D0F-BD38-A72A4BAC0E9D";
paths = (
{
closed = 1;
nodes = (
"-1 628 LINE",
"661 628 LINE",
"661 678 LINE",
"-1 678 LINE"
);
}
);
width = 652;
},
{
components = (
{
name = H;
}
);
layerId = "A4E552E4-62BE-43BB-A58F-34F0EE3B77B8";
paths = (
{
closed = 1;
nodes = (
"-1 578 LINE",
"761 578 LINE",
"761 718 LINE",
"-1 718 LINE"
);
}
);
width = 762;
},
{
components = (
{
name = H;
}
);
layerId = "ADAA8221-C97A-4B4F-BB2A-36DAD3E45CA4";
paths = (
{
closed = 1;
nodes = (
"22 628 LINE",
"684 628 LINE",
"689 678 LINE",
"27 678 LINE"
);
}
);
width = 652;
},
{
components = (
{
name = H;
}
);
layerId = "7B29E906-CD8A-4887-A0AD-C831DD8203F3";
paths = (
{
closed = 1;
nodes = (
"16 578 LINE",
"778 578 LINE",
"793 718 LINE",
"31 718 LINE"
);
}
);
width = 762;
}
);
unicode = 0126;
},
{
glyphname = I;
lastChange = "2017-03-31 17:48:43 +0000";
layers = (
{
layerId = "A4E552E4-62BE-43BB-A58F-34F0EE3B77B8";
paths = (
{
closed = 1;
nodes = (
"60 0 LINE",
"248 0 LINE",
"248 825 LINE",
"60 825 LINE"
);
}
);
width = 308;
},
{
layerId = "7B60DD57-6012-4D0F-BD38-A72A4BAC0E9D";
paths = (
{
closed = 1;
nodes = (
"70 0 LINE",
"138 0 LINE",
"138 825 LINE",
"70 825 LINE"
);
}
);
width = 208;
},
{
layerId = "ADAA8221-C97A-4B4F-BB2A-36DAD3E45CA4";
paths = (
{
closed = 1;
nodes = (
"27 0 LINE",
"95 0 LINE",
"181 825 LINE",
"113 825 LINE"
);
}
);
width = 208;
},
{
layerId = "7B29E906-CD8A-4887-A0AD-C831DD8203F3";
paths = (
{
closed = 1;
nodes = (
"17 0 LINE",
"205 0 LINE",
"291 825 LINE",
"103 825 LINE"
);
}
);
width = 308;
}
);
leftKerningGroup = i;
rightKerningGroup = d;
unicode = 0049;
},
{
glyphname = J;
lastChange = "2017-03-31 17:48:43 +0000";
layers = (
{
layerId = "A4E552E4-62BE-43BB-A58F-34F0EE3B77B8";
paths = (
{
closed = 1;
nodes = (
"419 825 LINE",
"231 825 LINE",
"231 281 LINE SMOOTH",
"231 198 OFFCURVE",
"190 165 OFFCURVE",
"136 165 CURVE SMOOTH",
"88 165 OFFCURVE",
"29 221 OFFCURVE",
"29 221 CURVE",
"-31 64 LINE",
"-31 64 OFFCURVE",
"44 -15 OFFCURVE",
"162 -15 CURVE SMOOTH",
"327 -15 OFFCURVE",
"419 71 OFFCURVE",
"419 233 CURVE SMOOTH"
);
}
);
width = 469;
},
{
layerId = "7B60DD57-6012-4D0F-BD38-A72A4BAC0E9D";
paths = (
{
closed = 1;
nodes = (
"369 825 LINE",
"301 825 LINE",
"301 241 LINE SMOOTH",
"301 158 OFFCURVE",
"296 45 OFFCURVE",
"166 45 CURVE SMOOTH",
"54 45 OFFCURVE",
"-4 129 OFFCURVE",
"-4 129 CURVE",
"-33 61 LINE",
"-33 61 OFFCURVE",
"34 -15 OFFCURVE",
"164 -15 CURVE SMOOTH",
"329 -15 OFFCURVE",
"369 91 OFFCURVE",
"369 253 CURVE SMOOTH"
);
}
);
width = 419;
},
{
layerId = "ADAA8221-C97A-4B4F-BB2A-36DAD3E45CA4";
paths = (
{
closed = 1;
nodes = (
"412 825 LINE",
"344 825 LINE",
"283 242 LINE SMOOTH",
"274 159 OFFCURVE",
"256 45 OFFCURVE",
"125 45 CURVE SMOOTH",
"14 45 OFFCURVE",
"-33 128 OFFCURVE",
"-33 128 CURVE",
"-69 62 LINE",
"-69 62 OFFCURVE",
"-10 -15 OFFCURVE",
"122 -15 CURVE SMOOTH",
"285 -15 OFFCURVE",
"335 90 OFFCURVE",
"352 252 CURVE SMOOTH"
);
}
);
width = 419;
},
{
layerId = "7B29E906-CD8A-4887-A0AD-C831DD8203F3";
paths = (
{
closed = 1;
nodes = (
"462 825 LINE",
"274 825 LINE",
"218 285 LINE SMOOTH",
"209 202 OFFCURVE",
"161 165 OFFCURVE",
"103 165 CURVE SMOOTH",
"59 165 OFFCURVE",
"10 217 OFFCURVE",
"10 217 CURVE",
"-65 64 LINE",
"-64 64 OFFCURVE",
"3 -15 OFFCURVE",
"124 -15 CURVE SMOOTH",
"286 -15 OFFCURVE",
"383 67 OFFCURVE",
"400 229 CURVE SMOOTH"
);
}
);
width = 469;
}
);
rightKerningGroup = d;
unicode = 004A;
},
{
glyphname = K;
lastChange = "2017-03-31 17:48:43 +0000";
layers = (
{
layerId = "A4E552E4-62BE-43BB-A58F-34F0EE3B77B8";
paths = (
{
closed = 1;
nodes = (
"729 825 LINE",
"501 825 LINE",
"248 488 LINE",
"248 825 LINE",
"60 825 LINE",
"60 0 LINE",
"248 0 LINE",
"248 360 LINE",
"522 0 LINE",
"761 0 LINE",
"417 434 LINE"
);
}
);
width = 761;
},
{
layerId = "7B60DD57-6012-4D0F-BD38-A72A4BAC0E9D";
paths = (
{
closed = 1;
nodes = (
"529 825 LINE",
"441 825 LINE",
"128 428 LINE",
"128 825 LINE",
"60 825 LINE",
"60 0 LINE",
"128 0 LINE",
"128 390 LINE",
"462 0 LINE",
"551 0 LINE",
"197 414 LINE"
);
}
);
width = 551;
},
{
layerId = "ADAA8221-C97A-4B4F-BB2A-36DAD3E45CA4";
paths = (
{
closed = 1;
nodes = (
"573 825 LINE",
"484 825 LINE",
"129 428 LINE",
"171 825 LINE",
"103 825 LINE",
"17 0 LINE",
"85 0 LINE",
"126 390 LINE",
"419 0 LINE",
"507 0 LINE",
"197 414 LINE"
);
}
);
width = 551;
},
{
layerId = "7B29E906-CD8A-4887-A0AD-C831DD8203F3";
paths = (
{
closed = 1;
nodes = (
"774 825 LINE",
"543 825 LINE",
"255 488 LINE",
"291 825 LINE",
"103 825 LINE",
"17 0 LINE",
"205 0 LINE",
"244 360 LINE",
"480 0 LINE",
"716 0 LINE",
"419 434 LINE"
);
}
);
width = 761;
}
);
rightKerningGroup = d;
unicode = 004B;
},
{
glyphname = L;
lastChange = "2017-03-31 17:48:43 +0000";
layers = (
{
layerId = "A4E552E4-62BE-43BB-A58F-34F0EE3B77B8";
paths = (
{
closed = 1;
nodes = (
"60 0 LINE",
"532 0 LINE",
"532 165 LINE",
"248 165 LINE",
"248 825 LINE",
"60 825 LINE"
);
}
);
width = 565;
},
{
layerId = "7B60DD57-6012-4D0F-BD38-A72A4BAC0E9D";
paths = (
{
closed = 1;
nodes = (
"60 0 LINE",
"462 0 LINE",
"462 65 LINE",
"128 65 LINE",
"128 825 LINE",
"60 825 LINE"
);
}
);
width = 495;
},
{
layerId = "ADAA8221-C97A-4B4F-BB2A-36DAD3E45CA4";
paths = (
{
closed = 1;
nodes = (
"17 0 LINE",
"419 0 LINE",
"425 65 LINE",
"91 65 LINE",
"171 825 LINE",
"103 825 LINE"
);
}
);
width = 495;
},
{
layerId = "7B29E906-CD8A-4887-A0AD-C831DD8203F3";
paths = (
{
closed = 1;
nodes = (
"17 0 LINE",
"489 0 LINE",
"506 165 LINE",
"222 165 LINE",
"291 825 LINE",
"103 825 LINE"
);
}
);
width = 565;
}
);
rightKerningGroup = L;
unicode = 004C;
},
{
glyphname = Lslash;
lastChange = "2017-03-31 17:48:43 +0000";
layers = (
{
layerId = "A4E552E4-62BE-43BB-A58F-34F0EE3B77B8";
paths = (
{
closed = 1;
nodes = (
"568 0 LINE",
"568 165 LINE",
"284 165 LINE",
"284 457 LINE",
"389 540 LINE",
"389 693 LINE",
"284 610 LINE",
"284 825 LINE",
"96 825 LINE",
"96 462 LINE",
"20 403 LINE",
"20 250 LINE",
"96 309 LINE",
"96 0 LINE"
);
}
);
width = 601;
},
{
layerId = "7B60DD57-6012-4D0F-BD38-A72A4BAC0E9D";
paths = (
{
closed = 1;
nodes = (
"512 0 LINE",
"512 65 LINE",
"178 65 LINE",
"178 444 LINE",
"257 506 LINE",
"257 589 LINE",
"178 527 LINE",
"178 825 LINE",
"110 825 LINE",
"110 474 LINE",
"20 403 LINE",
"20 320 LINE",
"110 391 LINE",
"110 0 LINE"
);
}
);
width = 545;
},
{
layerId = "ADAA8221-C97A-4B4F-BB2A-36DAD3E45CA4";
paths = (
{
closed = 1;
nodes = (
"469 0 LINE",
"475 65 LINE",
"141 65 LINE",
"182 444 LINE",
"267 506 LINE",
"275 589 LINE",
"190 527 LINE",
"221 825 LINE",
"153 825 LINE",
"116 474 LINE",
"19 403 LINE",
"11 320 LINE",
"108 391 LINE",
"67 0 LINE"
);
}
);
width = 545;
},
{
layerId = "7B29E906-CD8A-4887-A0AD-C831DD8203F3";
paths = (
{
closed = 1;
nodes = (
"525 0 LINE",
"542 165 LINE",
"258 165 LINE",
"290 457 LINE",
"403 540 LINE",
"417 693 LINE",
"304 610 LINE",
"327 825 LINE",
"139 825 LINE",
"100 462 LINE",
"18 403 LINE",
"4 250 LINE",
"86 309 LINE",
"53 0 LINE"
);
}
);
width = 601;
}
);
rightKerningGroup = L;
unicode = 0141;
},
{
glyphname = M;
lastChange = "2017-03-31 17:48:43 +0000";
layers = (
{
layerId = "A4E552E4-62BE-43BB-A58F-34F0EE3B77B8";
paths = (
{
closed = 1;
nodes = (
"670 825 LINE",
"455 301 LINE",
"449 279 LINE",
"443 301 LINE",
"228 825 LINE",
"30 825 LINE",
"30 0 LINE",
"218 0 LINE",
"218 461 LINE",
"226 423 LINE",
"383 0 LINE",
"515 0 LINE",
"672 423 LINE",
"680 461 LINE",
"680 0 LINE",
"868 0 LINE",
"868 825 LINE"
);
}
);
width = 908;
},
{
layerId = "7B60DD57-6012-4D0F-BD38-A72A4BAC0E9D";
paths = (
{
closed = 1;
nodes = (
"660 825 LINE",
"395 121 LINE",
"389 99 LINE",
"383 121 LINE",
"118 825 LINE",
"50 825 LINE",
"50 0 LINE",
"118 0 LINE",
"118 641 LINE",
"126 603 LINE",
"363 0 LINE",
"415 0 LINE",
"652 603 LINE",
"660 641 LINE",
"660 0 LINE",
"728 0 LINE",
"728 825 LINE"
);
}
);
width = 788;
},
{
layerId = "ADAA8221-C97A-4B4F-BB2A-36DAD3E45CA4";
paths = (
{
closed = 1;
nodes = (
"703 825 LINE",
"364 121 LINE",
"355 99 LINE",
"352 121 LINE",
"161 825 LINE",
"93 825 LINE",
"7 0 LINE",
"75 0 LINE",
"142 641 LINE",
"147 603 LINE",
"320 0 LINE",
"372 0 LINE",
"673 603 LINE",
"684 641 LINE",
"617 0 LINE",
"685 0 LINE",
"771 825 LINE"
);
}
);
width = 788;
},
{
layerId = "7B29E906-CD8A-4887-A0AD-C831DD8203F3";
paths = (
{
closed = 1;
nodes = (
"712 825 LINE",
"441 301 LINE",
"434 279 LINE",
"429 301 LINE",
"270 825 LINE",
"73 825 LINE",
"-13 0 LINE",
"175 0 LINE",
"224 461 LINE",
"229 423 LINE",
"341 0 LINE",
"473 0 LINE",
"675 423 LINE",
"686 461 LINE",
"637 0 LINE",
"825 0 LINE",
"911 825 LINE"
);
}
);
width = 908;
}
);
rightKerningGroup = d;
unicode = 004D;
},
{
glyphname = N;
lastChange = "2017-03-31 17:48:43 +0000";
layers = (
{
layerId = "A4E552E4-62BE-43BB-A58F-34F0EE3B77B8";
paths = (
{
closed = 1;
nodes = (
"578 0 LINE",
"766 0 LINE",
"766 825 LINE",
"578 825 LINE",
"578 313 LINE",
"576 313 LINE",
"248 825 LINE",
"60 825 LINE",
"60 0 LINE",
"248 0 LINE",
"248 512 LINE",
"250 512 LINE"
);
}
);
width = 826;
},
{
layerId = "7B60DD57-6012-4D0F-BD38-A72A4BAC0E9D";
paths = (
{
closed = 1;
nodes = (
"578 0 LINE",
"646 0 LINE",
"646 825 LINE",
"578 825 LINE",
"578 125 LINE",
"576 125 LINE",
"128 825 LINE",
"60 825 LINE",
"60 0 LINE",
"128 0 LINE",
"128 695 LINE",
"130 695 LINE"
);
}
);
width = 706;
},
{
layerId = "ADAA8221-C97A-4B4F-BB2A-36DAD3E45CA4";
paths = (
{
closed = 1;
nodes = (
"535 0 LINE",
"603 0 LINE",
"689 825 LINE",
"621 825 LINE",
"548 125 LINE",
"545 125 LINE",
"171 825 LINE",
"103 825 LINE",
"17 0 LINE",
"85 0 LINE",
"158 695 LINE",
"160 695 LINE"
);
}
);
width = 706;
},
{
layerId = "7B29E906-CD8A-4887-A0AD-C831DD8203F3";
paths = (
{
closed = 1;
nodes = (
"536 0 LINE",
"723 0 LINE",
"809 825 LINE",
"621 825 LINE",
"568 313 LINE",
"564 313 LINE",
"290 825 LINE",
"103 825 LINE",
"17 0 LINE",
"205 0 LINE",
"258 512 LINE",
"262 512 LINE"
);
}
);
width = 826;
}
);
rightKerningGroup = d;
unicode = 004E;
},
{
glyphname = Eng;
lastChange = "2017-03-31 17:48:43 +0000";
layers = (
{
components = (
{
name = N;
}
);
layerId = "7B60DD57-6012-4D0F-BD38-A72A4BAC0E9D";
paths = (
{
closed = 1;
nodes = (
"646 -79 LINE SMOOTH",
"646 -180 OFFCURVE",
"618 -275 OFFCURVE",
"511 -275 CURVE SMOOTH",
"457 -275 OFFCURVE",
"423 -255 OFFCURVE",
"420 -253 CURVE",
"450 -190 LINE",
"450 -190 OFFCURVE",
"467 -213 OFFCURVE",
"509 -213 CURVE SMOOTH",
"569 -213 OFFCURVE",
"578 -143 OFFCURVE",
"578 -45 CURVE SMOOTH",
"578 0 LINE",
"646 0 LINE"
);
}
);
width = 706;
},
{
components = (
{
name = N;
}
);
layerId = "A4E552E4-62BE-43BB-A58F-34F0EE3B77B8";
paths = (
{
closed = 1;
nodes = (
"766 -79 LINE SMOOTH",
"766 -170 OFFCURVE",
"722 -275 OFFCURVE",
"570 -275 CURVE SMOOTH",
"486 -275 OFFCURVE",
"454 -254 OFFCURVE",
"429 -243 CURVE",
"484 -100 LINE",
"484 -100 OFFCURVE",
"507 -115 OFFCURVE",
"529 -115 CURVE SMOOTH",
"559 -115 OFFCURVE",
"578 -93 OFFCURVE",
"578 -45 CURVE SMOOTH",
"578 0 LINE",
"766 0 LINE"
);
}
);
width = 826;
},
{
components = (
{
name = N;
}
);
layerId = "ADAA8221-C97A-4B4F-BB2A-36DAD3E45CA4";
paths = (
{
closed = 1;
nodes = (
"594 -78 LINE SMOOTH",
"584 -179 OFFCURVE",
"544 -275 OFFCURVE",
"436 -275 CURVE SMOOTH",
"383 -275 OFFCURVE",
"352 -256 OFFCURVE",
"349 -254 CURVE",
"386 -190 LINE",
"385 -190 OFFCURVE",
"403 -213 OFFCURVE",
"446 -213 CURVE SMOOTH",
"505 -213 OFFCURVE",
"519 -144 OFFCURVE",
"530 -46 CURVE SMOOTH",
"535 0 LINE",
"603 0 LINE"
);
}
);
width = 706;
},
{
components = (
{
name = N;
}
);
layerId = "7B29E906-CD8A-4887-A0AD-C831DD8203F3";
paths = (
{
closed = 1;
nodes = (
"715 -75 LINE SMOOTH",
"705 -166 OFFCURVE",
"646 -275 OFFCURVE",
"491 -275 CURVE SMOOTH",
"410 -275 OFFCURVE",
"381 -256 OFFCURVE",
"357 -245 CURVE",
"428 -100 LINE",
"427 -100 OFFCURVE",
"455 -115 OFFCURVE",
"480 -115 CURVE SMOOTH",
"507 -115 OFFCURVE",
"524 -97 OFFCURVE",
"530 -49 CURVE SMOOTH",
"535 0 LINE",
"723 0 LINE"
);
}
);
width = 826;
}
);
unicode = 014A;
},
{
glyphname = O;
lastChange = "2017-03-31 17:48:43 +0000";
layers = (
{
layerId = "A4E552E4-62BE-43BB-A58F-34F0EE3B77B8";
paths = (
{
closed = 1;
nodes = (
"226 536 OFFCURVE",
"294 659 OFFCURVE",
"439 659 CURVE SMOOTH",
"585 659 OFFCURVE",
"651 536 OFFCURVE",
"651 413 CURVE SMOOTH",
"651 290 OFFCURVE",
"589 167 OFFCURVE",
"439 167 CURVE SMOOTH",
"285 167 OFFCURVE",
"226 290 OFFCURVE",
"226 413 CURVE SMOOTH"
);
},
{
closed = 1;
nodes = (
"23 172 OFFCURVE",
"195 -15 OFFCURVE",
"439 -15 CURVE SMOOTH",
"676 -15 OFFCURVE",
"854 172 OFFCURVE",
"854 413 CURVE SMOOTH",
"854 654 OFFCURVE",
"668 840 OFFCURVE",
"439 840 CURVE SMOOTH",
"212 840 OFFCURVE",
"23 654 OFFCURVE",
"23 413 CURVE SMOOTH"
);
}
);
width = 877;
},
{
layerId = "7B60DD57-6012-4D0F-BD38-A72A4BAC0E9D";
paths = (
{
closed = 1;
nodes = (
"96 606 OFFCURVE",
"214 779 OFFCURVE",
"409 779 CURVE SMOOTH",
"605 779 OFFCURVE",
"721 606 OFFCURVE",
"721 413 CURVE SMOOTH",
"721 220 OFFCURVE",
"609 47 OFFCURVE",
"409 47 CURVE SMOOTH",
"205 47 OFFCURVE",
"96 220 OFFCURVE",
"96 413 CURVE SMOOTH"
);
},
{
closed = 1;
nodes = (
"23 172 OFFCURVE",
"165 -15 OFFCURVE",
"409 -15 CURVE SMOOTH",
"646 -15 OFFCURVE",
"794 172 OFFCURVE",
"794 413 CURVE SMOOTH",
"794 654 OFFCURVE",
"638 840 OFFCURVE",
"409 840 CURVE SMOOTH",
"182 840 OFFCURVE",
"23 654 OFFCURVE",
"23 413 CURVE SMOOTH"
);
}
);
width = 817;
},
{
layerId = "ADAA8221-C97A-4B4F-BB2A-36DAD3E45CA4";
paths = (
{
closed = 1;
nodes = (
"116 605 OFFCURVE",
"254 779 OFFCURVE",
"450 779 CURVE SMOOTH",
"645 779 OFFCURVE",
"741 607 OFFCURVE",
"721 416 CURVE SMOOTH",
"701 221 OFFCURVE",
"569 47 OFFCURVE",
"368 47 CURVE SMOOTH",
"165 47 OFFCURVE",
"76 219 OFFCURVE",
"96 410 CURVE SMOOTH"
);
},
{
closed = 1;
nodes = (
"-2 173 OFFCURVE",
"121 -15 OFFCURVE",
"367 -15 CURVE SMOOTH",
"602 -15 OFFCURVE",
"769 171 OFFCURVE",
"794 410 CURVE SMOOTH",
"819 653 OFFCURVE",
"682 840 OFFCURVE",
"451 840 CURVE SMOOTH",
"226 840 OFFCURVE",
"49 655 OFFCURVE",
"23 416 CURVE SMOOTH"
);
}
);
width = 817;
},
{
layerId = "7B29E906-CD8A-4887-A0AD-C831DD8203F3";
paths = (
{
closed = 1;
nodes = (
"239 532 OFFCURVE",
"323 659 OFFCURVE",
"472 659 CURVE SMOOTH",
"614 659 OFFCURVE",
"664 540 OFFCURVE",
"652 421 CURVE SMOOTH",
"639 294 OFFCURVE",
"560 167 OFFCURVE",
"406 167 CURVE SMOOTH",
"256 167 OFFCURVE",
"213 286 OFFCURVE",
"225 405 CURVE SMOOTH"
);
},
{
closed = 1;
nodes = (
"-2 176 OFFCURVE",
"154 -15 OFFCURVE",
"401 -15 CURVE SMOOTH",
"635 -15 OFFCURVE",
"828 168 OFFCURVE",
"853 405 CURVE SMOOTH",
"879 650 OFFCURVE",
"709 840 OFFCURVE",
"477 840 CURVE SMOOTH",
"253 840 OFFCURVE",
"49 658 OFFCURVE",
"24 421 CURVE SMOOTH"
);
}
);
width = 877;
}
);
leftKerningGroup = O;
rightKerningGroup = O;
unicode = 004F;
},
{
glyphname = Oslash;
lastChange = "2017-03-31 17:48:43 +0000";
layers = (
{
layerId = "A4E552E4-62BE-43BB-A58F-34F0EE3B77B8";
paths = (
{
closed = 1;
nodes = (
"230 38 LINE",
"290 4 OFFCURVE",
"361 -15 OFFCURVE",
"439 -15 CURVE SMOOTH",
"676 -15 OFFCURVE",
"854 172 OFFCURVE",
"854 413 CURVE SMOOTH",
"854 522 OFFCURVE",
"815 620 OFFCURVE",
"752 694 CURVE",
"810 767 LINE",
"698 853 LINE",
"644 785 LINE",
"583 820 OFFCURVE",
"513 840 OFFCURVE",
"439 840 CURVE SMOOTH",
"212 840 OFFCURVE",
"23 654 OFFCURVE",
"23 413 CURVE SMOOTH",
"23 302 OFFCURVE",
"59 203 OFFCURVE",
"122 128 CURVE",
"67 59 LINE",
"179 -27 LINE"
);
},
{
closed = 1;
nodes = (
"403 167 OFFCURVE",
"373 173 OFFCURVE",
"347 185 CURVE",
"626 536 LINE",
"643 498 OFFCURVE",
"651 455 OFFCURVE",
"651 413 CURVE SMOOTH",
"651 290 OFFCURVE",
"589 167 OFFCURVE",
"439 167 CURVE SMOOTH"
);
},
{
closed = 1;
nodes = (
"233 326 OFFCURVE",
"226 370 OFFCURVE",
"226 413 CURVE SMOOTH",
"226 536 OFFCURVE",
"294 659 OFFCURVE",
"439 659 CURVE SMOOTH",
"473 659 OFFCURVE",
"503 652 OFFCURVE",
"528 640 CURVE",
"249 288 LINE"
);
}
);
width = 877;
},
{
layerId = "7B60DD57-6012-4D0F-BD38-A72A4BAC0E9D";
paths = (
{
closed = 1;
nodes = (
"172 63 LINE",
"233 14 OFFCURVE",
"313 -15 OFFCURVE",
"409 -15 CURVE SMOOTH",
"646 -15 OFFCURVE",
"794 172 OFFCURVE",
"794 413 CURVE SMOOTH",
"794 532 OFFCURVE",
"756 637 OFFCURVE",
"690 714 CURVE",
"755 795 LINE",
"711 829 LINE",
"651 753 LINE",
"587 808 OFFCURVE",
"504 840 OFFCURVE",
"409 840 CURVE SMOOTH",
"182 840 OFFCURVE",
"23 654 OFFCURVE",
"23 413 CURVE SMOOTH",
"23 289 OFFCURVE",
"61 179 OFFCURVE",
"131 101 CURVE",
"70 25 LINE",
"114 -9 LINE"
);
},
{
closed = 1;
nodes = (
"329 47 OFFCURVE",
"264 73 OFFCURVE",
"214 117 CURVE",
"646 658 LINE",
"695 592 OFFCURVE",
"721 505 OFFCURVE",
"721 413 CURVE SMOOTH",
"721 220 OFFCURVE",
"609 47 OFFCURVE",
"409 47 CURVE SMOOTH"
);
},
{
closed = 1;
nodes = (
"123 225 OFFCURVE",
"96 317 OFFCURVE",
"96 413 CURVE SMOOTH",
"96 606 OFFCURVE",
"214 779 OFFCURVE",
"409 779 CURVE SMOOTH",
"490 779 OFFCURVE",
"558 749 OFFCURVE",
"609 701 CURVE",
"176 158 LINE"
);
}
);
width = 817;
},
{
layerId = "ADAA8221-C97A-4B4F-BB2A-36DAD3E45CA4";
paths = (
{
closed = 1;
nodes = (
"137 64 LINE",
"192 15 OFFCURVE",
"269 -15 OFFCURVE",
"367 -15 CURVE SMOOTH",
"602 -15 OFFCURVE",
"769 171 OFFCURVE",
"794 410 CURVE SMOOTH",
"806 531 OFFCURVE",
"779 636 OFFCURVE",
"721 713 CURVE",
"795 795 LINE",
"754 829 LINE",
"685 752 LINE",
"627 807 OFFCURVE",
"548 840 OFFCURVE",
"451 840 CURVE SMOOTH",
"226 840 OFFCURVE",
"49 655 OFFCURVE",
"23 416 CURVE SMOOTH",
"10 290 OFFCURVE",
"38 180 OFFCURVE",
"99 102 CURVE",
"29 25 LINE",
"71 -9 LINE"
);
},
{
closed = 1;
nodes = (
"289 47 OFFCURVE",
"227 72 OFFCURVE",
"182 116 CURVE",
"673 659 LINE",
"715 593 OFFCURVE",
"731 506 OFFCURVE",
"721 416 CURVE SMOOTH",
"701 221 OFFCURVE",
"569 47 OFFCURVE",
"368 47 CURVE SMOOTH"
);
},
{
closed = 1;
nodes = (
"102 224 OFFCURVE",
"86 316 OFFCURVE",
"96 410 CURVE SMOOTH",
"116 605 OFFCURVE",
"254 779 OFFCURVE",
"450 779 CURVE SMOOTH",
"530 779 OFFCURVE",
"595 750 OFFCURVE",
"640 702 CURVE",
"148 157 LINE"
);
}
);
width = 817;
},
{
layerId = "7B29E906-CD8A-4887-A0AD-C831DD8203F3";
paths = (
{
closed = 1;
nodes = (
"195 40 LINE",
"250 6 OFFCURVE",
"320 -15 OFFCURVE",
"401 -15 CURVE SMOOTH",
"635 -15 OFFCURVE",
"828 168 OFFCURVE",
"853 405 CURVE SMOOTH",
"865 518 OFFCURVE",
"834 617 OFFCURVE",
"779 691 CURVE",
"848 767 LINE",
"742 853 LINE",
"679 783 LINE",
"623 818 OFFCURVE",
"554 840 OFFCURVE",
"477 840 CURVE SMOOTH",
"253 840 OFFCURVE",
"49 658 OFFCURVE",
"24 421 CURVE SMOOTH",
"12 306 OFFCURVE",
"40 206 OFFCURVE",
"95 131 CURVE",
"30 59 LINE",
"135 -27 LINE"
);
},
{
closed = 1;
nodes = (
"374 167 OFFCURVE",
"345 171 OFFCURVE",
"320 183 CURVE",
"642 540 LINE",
"654 502 OFFCURVE",
"656 459 OFFCURVE",
"652 421 CURVE SMOOTH",
"639 294 OFFCURVE",
"560 167 OFFCURVE",
"406 167 CURVE SMOOTH"
);
},
{
closed = 1;
nodes = (
"222 322 OFFCURVE",
"221 366 OFFCURVE",
"225 405 CURVE SMOOTH",
"239 532 OFFCURVE",
"323 659 OFFCURVE",
"472 659 CURVE SMOOTH",
"502 659 OFFCURVE",
"531 654 OFFCURVE",
"555 642 CURVE",
"233 284 LINE"
);
}
);
width = 877;
}
);
leftKerningGroup = O;
rightKerningGroup = O;
unicode = 00D8;
},
{
glyphname = OE;
lastChange = "2017-03-31 17:48:43 +0000";
layers = (
{
layerId = "A4E552E4-62BE-43BB-A58F-34F0EE3B77B8";
paths = (
{
closed = 1;
nodes = (
"962 0 LINE",
"962 165 LINE",
"678 165 LINE",
"678 331 LINE",
"950 331 LINE",
"950 496 LINE",
"678 496 LINE",
"678 660 LINE",
"962 660 LINE",
"962 825 LINE",
"439 825 LINE SMOOTH",
"212 825 OFFCURVE",
"23 653 OFFCURVE",
"23 412 CURVE SMOOTH",
"23 171 OFFCURVE",
"212 0 OFFCURVE",
"439 0 CURVE SMOOTH"
);
},
{
closed = 1;
nodes = (
"321 168 OFFCURVE",
"226 275 OFFCURVE",
"226 413 CURVE SMOOTH",
"226 550 OFFCURVE",
"321 657 OFFCURVE",
"461 657 CURVE SMOOTH",
"490 657 LINE",
"490 168 LINE",
"461 168 LINE SMOOTH"
);
}
);
width = 1010;
},
{
layerId = "7B60DD57-6012-4D0F-BD38-A72A4BAC0E9D";
paths = (
{
closed = 1;
nodes = (
"871 0 LINE",
"871 65 LINE",
"517 65 LINE",
"517 381 LINE",
"859 381 LINE",
"859 446 LINE",
"517 446 LINE",
"517 760 LINE",
"871 760 LINE",
"871 825 LINE",
"409 825 LINE SMOOTH",
"182 825 OFFCURVE",
"23 654 OFFCURVE",
"23 413 CURVE SMOOTH",
"23 172 OFFCURVE",
"165 0 OFFCURVE",
"409 0 CURVE SMOOTH"
);
},
{
closed = 1;
nodes = (
"205 62 OFFCURVE",
"96 220 OFFCURVE",
"96 413 CURVE SMOOTH",
"96 606 OFFCURVE",
"214 764 OFFCURVE",
"409 764 CURVE SMOOTH",
"449 764 LINE",
"449 62 LINE",
"409 62 LINE SMOOTH"
);
}
);
width = 919;
},
{
layerId = "ADAA8221-C97A-4B4F-BB2A-36DAD3E45CA4";
paths = (
{
closed = 1;
nodes = (
"828 0 LINE",
"834 65 LINE",
"480 65 LINE",
"514 381 LINE",
"856 381 LINE",
"863 446 LINE",
"521 446 LINE",
"554 760 LINE",
"908 760 LINE",
"914 825 LINE",
"451 825 LINE SMOOTH",
"224 825 OFFCURVE",
"49 655 OFFCURVE",
"23 416 CURVE SMOOTH",
"-2 173 OFFCURVE",
"123 0 OFFCURVE",
"367 0 CURVE SMOOTH"
);
},
{
closed = 1;
nodes = (
"167 62 OFFCURVE",
"76 219 OFFCURVE",
"96 410 CURVE SMOOTH",
"116 605 OFFCURVE",
"252 764 OFFCURVE",
"447 764 CURVE SMOOTH",
"486 764 LINE",
"412 62 LINE",
"371 62 LINE SMOOTH"
);
}
);
width = 919;
},
{
layerId = "7B29E906-CD8A-4887-A0AD-C831DD8203F3";
paths = (
{
closed = 1;
nodes = (
"919 0 LINE",
"936 165 LINE",
"652 165 LINE",
"669 331 LINE",
"941 331 LINE",
"959 496 LINE",
"687 496 LINE",
"704 660 LINE",
"988 660 LINE",
"1005 825 LINE",
"479 825 LINE SMOOTH",
"252 825 OFFCURVE",
"49 657 OFFCURVE",
"24 420 CURVE SMOOTH",
"-2 175 OFFCURVE",
"172 0 OFFCURVE",
"399 0 CURVE SMOOTH"
);
},
{
closed = 1;
nodes = (
"292 168 OFFCURVE",
"211 271 OFFCURVE",
"225 405 CURVE SMOOTH",
"240 546 OFFCURVE",
"350 657 OFFCURVE",
"490 657 CURVE SMOOTH",
"516 657 LINE",
"464 168 LINE",
"432 168 LINE SMOOTH"
);
}
);
width = 1010;
}
);
rightKerningGroup = d;
unicode = 0152;
},
{
glyphname = P;
lastChange = "2017-03-31 17:48:43 +0000";
layers = (
{
layerId = "A4E552E4-62BE-43BB-A58F-34F0EE3B77B8";
paths = (
{
closed = 1;
nodes = (
"60 0 LINE",
"248 0 LINE",
"248 306 LINE",
"361 306 LINE SMOOTH",
"522 306 OFFCURVE",
"643 401 OFFCURVE",
"643 571 CURVE SMOOTH",
"643 742 OFFCURVE",
"522 825 OFFCURVE",
"361 825 CURVE SMOOTH",
"60 825 LINE"
);
},
{
closed = 1;
nodes = (
"248 675 LINE",
"301 675 LINE SMOOTH",
"375 675 OFFCURVE",
"445 650 OFFCURVE",
"445 565 CURVE SMOOTH",
"445 481 OFFCURVE",
"375 456 OFFCURVE",
"301 456 CURVE SMOOTH",
"248 456 LINE"
);
}
);
width = 666;
},
{
layerId = "7B60DD57-6012-4D0F-BD38-A72A4BAC0E9D";
paths = (
{
closed = 1;
nodes = (
"70 0 LINE",
"138 0 LINE",
"138 336 LINE",
"271 336 LINE SMOOTH",
"432 336 OFFCURVE",
"543 414 OFFCURVE",
"543 584 CURVE SMOOTH",
"543 755 OFFCURVE",
"432 825 OFFCURVE",
"271 825 CURVE SMOOTH",
"70 825 LINE"
);
},
{
closed = 1;
nodes = (
"138 760 LINE",
"251 760 LINE SMOOTH",
"355 760 OFFCURVE",
"479 734 OFFCURVE",
"479 584 CURVE SMOOTH",
"479 432 OFFCURVE",
"355 401 OFFCURVE",
"251 401 CURVE SMOOTH",
"138 401 LINE"
);
}
);
width = 566;
},
{
layerId = "ADAA8221-C97A-4B4F-BB2A-36DAD3E45CA4";
paths = (
{
closed = 1;
nodes = (
"27 0 LINE",
"95 0 LINE",
"130 336 LINE",
"264 336 LINE SMOOTH",
"425 336 OFFCURVE",
"543 413 OFFCURVE",
"561 581 CURVE SMOOTH",
"579 754 OFFCURVE",
"474 825 OFFCURVE",
"313 825 CURVE SMOOTH",
"113 825 LINE"
);
},
{
closed = 1;
nodes = (
"175 760 LINE",
"289 760 LINE SMOOTH",
"393 760 OFFCURVE",
"513 735 OFFCURVE",
"497 587 CURVE SMOOTH",
"481 433 OFFCURVE",
"352 401 OFFCURVE",
"248 401 CURVE SMOOTH",
"137 401 LINE"
);
}
);
width = 566;
},
{
layerId = "7B29E906-CD8A-4887-A0AD-C831DD8203F3";
paths = (
{
closed = 1;
nodes = (
"17 0 LINE",
"205 0 LINE",
"237 306 LINE",
"353 306 LINE SMOOTH",
"514 306 OFFCURVE",
"641 397 OFFCURVE",
"659 563 CURVE SMOOTH",
"677 738 OFFCURVE",
"562 825 OFFCURVE",
"401 825 CURVE SMOOTH",
"103 825 LINE"
);
},
{
closed = 1;
nodes = (
"276 675 LINE",
"332 675 LINE SMOOTH",
"406 675 OFFCURVE",
"470 654 OFFCURVE",
"462 573 CURVE SMOOTH",
"453 485 OFFCURVE",
"376 456 OFFCURVE",
"302 456 CURVE SMOOTH",
"253 456 LINE"
);
}
);
width = 666;
}
);
rightKerningGroup = d;
unicode = 0050;
},
{
glyphname = Thorn;
lastChange = "2017-03-31 17:48:43 +0000";
layers = (
{
layerId = "A4E552E4-62BE-43BB-A58F-34F0EE3B77B8";
paths = (
{
closed = 1;
nodes = (
"60 0 LINE",
"248 0 LINE",
"248 153 LINE",
"361 153 LINE SMOOTH",
"522 153 OFFCURVE",
"643 248 OFFCURVE",
"643 418 CURVE SMOOTH",
"643 589 OFFCURVE",
"522 672 OFFCURVE",
"361 672 CURVE SMOOTH",
"248 672 LINE",
"248 825 LINE",
"60 825 LINE"
);
},
{
closed = 1;
nodes = (
"248 522 LINE",
"301 522 LINE SMOOTH",
"375 522 OFFCURVE",
"440 496 OFFCURVE",
"440 412 CURVE SMOOTH",
"440 329 OFFCURVE",
"375 303 OFFCURVE",
"301 303 CURVE SMOOTH",
"248 303 LINE"
);
}
);
width = 666;
},
{
layerId = "7B60DD57-6012-4D0F-BD38-A72A4BAC0E9D";
paths = (
{
closed = 1;
nodes = (
"60 0 LINE",
"128 0 LINE",
"128 153 LINE",
"271 153 LINE SMOOTH",
"432 153 OFFCURVE",
"533 248 OFFCURVE",
"533 418 CURVE SMOOTH",
"533 589 OFFCURVE",
"432 672 OFFCURVE",
"271 672 CURVE SMOOTH",
"128 672 LINE",
"128 825 LINE",
"60 825 LINE"
);
},
{
closed = 1;
nodes = (
"128 607 LINE",
"281 607 LINE SMOOTH",
"395 607 OFFCURVE",
"470 552 OFFCURVE",
"470 418 CURVE SMOOTH",
"470 285 OFFCURVE",
"395 218 OFFCURVE",
"281 218 CURVE SMOOTH",
"128 218 LINE"
);
}
);
width = 556;
},
{
layerId = "ADAA8221-C97A-4B4F-BB2A-36DAD3E45CA4";
paths = (
{
closed = 1;
nodes = (
"17 0 LINE",
"85 0 LINE",
"101 153 LINE",
"245 153 LINE SMOOTH",
"406 153 OFFCURVE",
"516 247 OFFCURVE",
"533 415 CURVE SMOOTH",
"551 588 OFFCURVE",
"458 672 OFFCURVE",
"297 672 CURVE SMOOTH",
"155 672 LINE",
"171 825 LINE",
"103 825 LINE"
);
},
{
closed = 1;
nodes = (
"148 607 LINE",
"303 607 LINE SMOOTH",
"417 607 OFFCURVE",
"485 553 OFFCURVE",
"471 421 CURVE SMOOTH",
"457 286 OFFCURVE",
"373 218 OFFCURVE",
"259 218 CURVE SMOOTH",
"108 218 LINE"
);
}
);
width = 556;
},
{
layerId = "7B29E906-CD8A-4887-A0AD-C831DD8203F3";
paths = (
{
closed = 1;
nodes = (
"17 0 LINE",
"205 0 LINE",
"221 153 LINE",
"337 153 LINE SMOOTH",
"498 153 OFFCURVE",
"625 244 OFFCURVE",
"643 410 CURVE SMOOTH",
"661 585 OFFCURVE",
"546 672 OFFCURVE",
"385 672 CURVE SMOOTH",
"275 672 LINE",
"291 825 LINE",
"103 825 LINE"
);
},
{
closed = 1;
nodes = (
"260 522 LINE",
"316 522 LINE SMOOTH",
"390 522 OFFCURVE",
"449 500 OFFCURVE",
"441 420 CURVE SMOOTH",
"432 333 OFFCURVE",
"360 303 OFFCURVE",
"286 303 CURVE SMOOTH",
"236 303 LINE"
);
}
);
width = 666;
}
);
rightKerningGroup = d;
unicode = 00DE;
},
{
glyphname = Q;
lastChange = "2017-03-31 17:48:43 +0000";
layers = (
{
layerId = "A4E552E4-62BE-43BB-A58F-34F0EE3B77B8";
paths = (
{
closed = 1;
nodes = (
"815 -205 OFFCURVE",
"868 -93 OFFCURVE",
"868 -93 CURVE",
"809 34 LINE",
"809 34 OFFCURVE",
"770 -20 OFFCURVE",
"685 -20 CURVE SMOOTH",
"636 -20 OFFCURVE",
"576 -1 OFFCURVE",
"557 -1 CURVE",
"728 51 OFFCURVE",
"844 216 OFFCURVE",
"844 413 CURVE SMOOTH",
"844 654 OFFCURVE",
"663 840 OFFCURVE",
"434 840 CURVE SMOOTH",
"207 840 OFFCURVE",
"23 654 OFFCURVE",
"23 413 CURVE SMOOTH",
"23 201 OFFCURVE",
"152 31 OFFCURVE",
"348 -7 CURVE",
"288 -7 OFFCURVE",
"216 -105 OFFCURVE",
"216 -105 CURVE",
"261 -173 LINE",
"261 -173 OFFCURVE",
"305 -127 OFFCURVE",
"383 -127 CURVE SMOOTH",
"510 -127 OFFCURVE",
"561 -205 OFFCURVE",
"684 -205 CURVE SMOOTH"
);
},
{
closed = 1;
nodes = (
"280 175 OFFCURVE",
"226 290 OFFCURVE",
"226 413 CURVE SMOOTH",
"226 536 OFFCURVE",
"289 651 OFFCURVE",
"434 651 CURVE SMOOTH",
"580 651 OFFCURVE",
"641 536 OFFCURVE",
"641 413 CURVE SMOOTH",
"641 290 OFFCURVE",
"584 175 OFFCURVE",
"434 175 CURVE SMOOTH"
);
}
);
width = 867;
},
{
layerId = "7B60DD57-6012-4D0F-BD38-A72A4BAC0E9D";
paths = (
{
closed = 1;
nodes = (
"767 -119 OFFCURVE",
"808 -79 OFFCURVE",
"808 -79 CURVE",
"771 -14 LINE",
"771 -14 OFFCURVE",
"729 -49 OFFCURVE",
"654 -49 CURVE SMOOTH",
"592 -49 OFFCURVE",
"561 -19 OFFCURVE",
"493 -7 CURVE",
"680 32 OFFCURVE",
"794 202 OFFCURVE",
"794 413 CURVE SMOOTH",
"794 654 OFFCURVE",
"638 840 OFFCURVE",
"409 840 CURVE SMOOTH",
"182 840 OFFCURVE",
"23 654 OFFCURVE",
"23 413 CURVE SMOOTH",
"23 197 OFFCURVE",
"137 25 OFFCURVE",
"336 -9 CURVE",
"272 -28 OFFCURVE",
"226 -75 OFFCURVE",
"226 -75 CURVE",
"260 -116 LINE",
"260 -116 OFFCURVE",
"319 -57 OFFCURVE",
"397 -57 CURVE SMOOTH",
"504 -57 OFFCURVE",
"543 -119 OFFCURVE",
"656 -119 CURVE SMOOTH"
);
},
{
closed = 1;
nodes = (
"205 47 OFFCURVE",
"96 220 OFFCURVE",
"96 413 CURVE SMOOTH",
"96 606 OFFCURVE",
"214 779 OFFCURVE",
"409 779 CURVE SMOOTH",
"605 779 OFFCURVE",
"721 606 OFFCURVE",
"721 413 CURVE SMOOTH",
"721 220 OFFCURVE",
"609 47 OFFCURVE",
"409 47 CURVE SMOOTH"
);
}
);
width = 791;
},
{
layerId = "ADAA8221-C97A-4B4F-BB2A-36DAD3E45CA4";
paths = (
{
closed = 1;
nodes = (
"713 -119 OFFCURVE",
"757 -78 OFFCURVE",
"757 -78 CURVE",
"727 -14 LINE",
"728 -14 OFFCURVE",
"679 -49 OFFCURVE",
"603 -49 CURVE SMOOTH",
"542 -49 OFFCURVE",
"514 -19 OFFCURVE",
"449 -8 CURVE",
"641 32 OFFCURVE",
"772 201 OFFCURVE",
"794 410 CURVE SMOOTH",
"819 653 OFFCURVE",
"682 840 OFFCURVE",
"451 840 CURVE SMOOTH",
"226 840 OFFCURVE",
"49 655 OFFCURVE",
"23 416 CURVE SMOOTH",
"0 198 OFFCURVE",
"98 25 OFFCURVE",
"292 -8 CURVE",
"224 -28 OFFCURVE",
"174 -76 OFFCURVE",
"174 -76 CURVE",
"204 -116 LINE",
"203 -116 OFFCURVE",
"271 -57 OFFCURVE",
"351 -57 CURVE SMOOTH",
"456 -57 OFFCURVE",
"489 -119 OFFCURVE",
"603 -119 CURVE SMOOTH"
);
},
{
closed = 1;
nodes = (
"165 47 OFFCURVE",
"76 219 OFFCURVE",
"96 410 CURVE SMOOTH",
"116 605 OFFCURVE",
"254 779 OFFCURVE",
"450 779 CURVE SMOOTH",
"645 779 OFFCURVE",
"741 607 OFFCURVE",
"721 416 CURVE SMOOTH",
"701 221 OFFCURVE",
"569 47 OFFCURVE",
"368 47 CURVE SMOOTH"
);
}
);
width = 791;
},
{
layerId = "7B29E906-CD8A-4887-A0AD-C831DD8203F3";
paths = (
{
closed = 1;
nodes = (
"754 -205 OFFCURVE",
"817 -89 OFFCURVE",
"817 -89 CURVE",
"771 34 LINE",
"773 34 OFFCURVE",
"721 -20 OFFCURVE",
"633 -20 CURVE SMOOTH",
"587 -20 OFFCURVE",
"529 -1 OFFCURVE",
"513 -2 CURVE",
"693 50 OFFCURVE",
"823 212 OFFCURVE",
"843 405 CURVE SMOOTH",
"869 650 OFFCURVE",
"704 840 OFFCURVE",
"472 840 CURVE SMOOTH",
"248 840 OFFCURVE",
"49 658 OFFCURVE",
"24 421 CURVE SMOOTH",
"1 205 OFFCURVE",
"115 32 OFFCURVE",
"304 -6 CURVE",
"240 -7 OFFCURVE",
"159 -108 OFFCURVE",
"159 -108 CURVE",
"197 -173 LINE",
"196 -173 OFFCURVE",
"252 -127 OFFCURVE",
"333 -127 CURVE SMOOTH",
"457 -127 OFFCURVE",
"500 -205 OFFCURVE",
"626 -205 CURVE SMOOTH"
);
},
{
closed = 1;
nodes = (
"252 175 OFFCURVE",
"213 286 OFFCURVE",
"225 405 CURVE SMOOTH",
"239 532 OFFCURVE",
"318 651 OFFCURVE",
"466 651 CURVE SMOOTH",
"609 651 OFFCURVE",
"654 540 OFFCURVE",
"642 421 CURVE SMOOTH",
"629 294 OFFCURVE",
"556 175 OFFCURVE",
"402 175 CURVE SMOOTH"
);
}
);
width = 867;
}
);
rightKerningGroup = d;
unicode = 0051;
},
{
glyphname = R;
lastChange = "2017-03-31 17:48:43 +0000";
layers = (
{
layerId = "A4E552E4-62BE-43BB-A58F-34F0EE3B77B8";
paths = (
{
closed = 1;
nodes = (
"60 0 LINE",
"248 0 LINE",
"248 326 LINE",
"249 326 LINE",
"470 0 LINE",
"709 0 LINE",
"455 341 LINE",
"556 373 OFFCURVE",
"624 456 OFFCURVE",
"624 580 CURVE SMOOTH",
"624 742 OFFCURVE",
"518 825 OFFCURVE",
"365 825 CURVE SMOOTH",
"60 825 LINE"
);
},
{
closed = 1;
nodes = (
"248 675 LINE",
"270 675 LINE SMOOTH",
"341 675 OFFCURVE",
"426 670 OFFCURVE",
"426 567 CURVE SMOOTH",
"426 464 OFFCURVE",
"341 459 OFFCURVE",
"270 459 CURVE SMOOTH",
"248 459 LINE"
);
}
);
width = 716;
},
{
layerId = "7B60DD57-6012-4D0F-BD38-A72A4BAC0E9D";
paths = (
{
closed = 1;
nodes = (
"60 0 LINE",
"128 0 LINE",
"128 356 LINE",
"255 356 LINE",
"479 0 LINE",
"559 0 LINE",
"332 362 LINE",
"390 369 OFFCURVE",
"534 418 OFFCURVE",
"534 595 CURVE SMOOTH",
"534 762 OFFCURVE",
"424 825 OFFCURVE",
"265 825 CURVE SMOOTH",
"60 825 LINE"
);
},
{
closed = 1;
nodes = (
"128 760 LINE",
"262 760 LINE SMOOTH",
"394 760 OFFCURVE",
"471 707 OFFCURVE",
"471 594 CURVE SMOOTH",
"471 481 OFFCURVE",
"394 419 OFFCURVE",
"265 419 CURVE SMOOTH",
"128 419 LINE"
);
}
);
width = 579;
},
{
layerId = "ADAA8221-C97A-4B4F-BB2A-36DAD3E45CA4";
paths = (
{
closed = 1;
nodes = (
"17 0 LINE",
"85 0 LINE",
"122 356 LINE",
"250 356 LINE",
"436 0 LINE",
"515 0 LINE",
"328 362 LINE",
"387 369 OFFCURVE",
"534 417 OFFCURVE",
"553 592 CURVE SMOOTH",
"571 761 OFFCURVE",
"466 825 OFFCURVE",
"307 825 CURVE SMOOTH",
"103 825 LINE"
);
},
{
closed = 1;
nodes = (
"165 760 LINE",
"300 760 LINE SMOOTH",
"432 760 OFFCURVE",
"502 708 OFFCURVE",
"490 597 CURVE SMOOTH",
"478 482 OFFCURVE",
"393 419 OFFCURVE",
"264 419 CURVE SMOOTH",
"129 419 LINE"
);
}
);
width = 579;
},
{
layerId = "7B29E906-CD8A-4887-A0AD-C831DD8203F3";
paths = (
{
closed = 1;
nodes = (
"17 0 LINE",
"205 0 LINE",
"239 326 LINE",
"241 326 LINE",
"428 0 LINE",
"664 0 LINE",
"449 340 LINE",
"555 372 OFFCURVE",
"628 452 OFFCURVE",
"641 572 CURVE SMOOTH",
"658 738 OFFCURVE",
"558 825 OFFCURVE",
"405 825 CURVE SMOOTH",
"103 825 LINE"
);
},
{
closed = 1;
nodes = (
"276 675 LINE",
"301 675 LINE SMOOTH",
"372 675 OFFCURVE",
"453 674 OFFCURVE",
"443 575 CURVE SMOOTH",
"432 468 OFFCURVE",
"342 459 OFFCURVE",
"271 459 CURVE SMOOTH",
"253 459 LINE"
);
}
);
width = 716;
}
);
rightKerningGroup = R;
unicode = 0052;
},
{
glyphname = S;
lastChange = "2017-03-31 17:48:43 +0000";
layers = (
{
layerId = "A4E552E4-62BE-43BB-A58F-34F0EE3B77B8";
paths = (
{
closed = 1;
nodes = (
"231 840 OFFCURVE",
"90 752 OFFCURVE",
"90 598 CURVE SMOOTH",
"90 512 OFFCURVE",
"153 425 OFFCURVE",
"252 376 CURVE SMOOTH",
"350 327 OFFCURVE",
"438 300 OFFCURVE",
"438 240 CURVE SMOOTH",
"438 163 OFFCURVE",
"360 159 OFFCURVE",
"319 159 CURVE SMOOTH",
"227 159 OFFCURVE",
"117 252 OFFCURVE",
"117 252 CURVE",
"23 94 LINE",
"23 94 OFFCURVE",
"140 -15 OFFCURVE",
"333 -15 CURVE SMOOTH",
"494 -15 OFFCURVE",
"644 54 OFFCURVE",
"644 251 CURVE SMOOTH",
"644 359 OFFCURVE",
"543 437 OFFCURVE",
"451 476 CURVE SMOOTH",
"357 516 OFFCURVE",
"273 550 OFFCURVE",
"273 602 CURVE SMOOTH",
"273 647 OFFCURVE",
"313 669 OFFCURVE",
"377 669 CURVE SMOOTH",
"462 669 OFFCURVE",
"544 612 OFFCURVE",
"544 612 CURVE",
"620 762 LINE",
"620 762 OFFCURVE",
"514 840 OFFCURVE",
"364 840 CURVE SMOOTH"
);
}
);
width = 672;
},
{
layerId = "7B60DD57-6012-4D0F-BD38-A72A4BAC0E9D";
paths = (
{
closed = 1;
nodes = (
"181 840 OFFCURVE",
"75 752 OFFCURVE",
"75 638 CURVE SMOOTH",
"75 542 OFFCURVE",
"142 485 OFFCURVE",
"255 426 CURVE SMOOTH",
"353 375 OFFCURVE",
"483 337 OFFCURVE",
"483 211 CURVE SMOOTH",
"483 113 OFFCURVE",
"406 54 OFFCURVE",
"283 54 CURVE SMOOTH",
"162 54 OFFCURVE",
"64 136 OFFCURVE",
"64 136 CURVE",
"23 68 LINE",
"23 68 OFFCURVE",
"136 -15 OFFCURVE",
"283 -15 CURVE SMOOTH",
"444 -15 OFFCURVE",
"554 74 OFFCURVE",
"554 211 CURVE SMOOTH",
"554 363 OFFCURVE",
"434 419 OFFCURVE",
"330 468 CURVE SMOOTH",
"234 513 OFFCURVE",
"149 558 OFFCURVE",
"149 638 CURVE SMOOTH",
"149 720 OFFCURVE",
"210 774 OFFCURVE",
"321 774 CURVE SMOOTH",
"426 774 OFFCURVE",
"504 715 OFFCURVE",
"504 715 CURVE",
"536 775 LINE",
"536 775 OFFCURVE",
"451 840 OFFCURVE",
"314 840 CURVE SMOOTH"
);
}
);
width = 582;
},
{
layerId = "ADAA8221-C97A-4B4F-BB2A-36DAD3E45CA4";
paths = (
{
closed = 1;
nodes = (
"225 840 OFFCURVE",
"111 753 OFFCURVE",
"99 641 CURVE SMOOTH",
"89 543 OFFCURVE",
"151 486 OFFCURVE",
"259 427 CURVE SMOOTH",
"350 376 OFFCURVE",
"475 338 OFFCURVE",
"462 214 CURVE SMOOTH",
"452 114 OFFCURVE",
"367 54 OFFCURVE",
"242 54 CURVE SMOOTH",
"123 54 OFFCURVE",
"36 135 OFFCURVE",
"36 135 CURVE",
"-12 68 LINE",
"-12 68 OFFCURVE",
"92 -15 OFFCURVE",
"241 -15 CURVE SMOOTH",
"400 -15 OFFCURVE",
"518 73 OFFCURVE",
"533 208 CURVE SMOOTH",
"549 362 OFFCURVE",
"433 418 OFFCURVE",
"333 467 CURVE SMOOTH",
"243 512 OFFCURVE",
"164 557 OFFCURVE",
"172 635 CURVE SMOOTH",
"181 719 OFFCURVE",
"249 774 OFFCURVE",
"362 774 CURVE SMOOTH",
"465 774 OFFCURVE",
"535 716 OFFCURVE",
"535 716 CURVE",
"573 775 LINE",
"573 775 OFFCURVE",
"495 840 OFFCURVE",
"356 840 CURVE SMOOTH"
);
}
);
width = 582;
},
{
layerId = "7B29E906-CD8A-4887-A0AD-C831DD8203F3";
paths = (
{
closed = 1;
nodes = (
"272 840 OFFCURVE",
"126 756 OFFCURVE",
"110 606 CURVE SMOOTH",
"101 516 OFFCURVE",
"158 427 OFFCURVE",
"255 380 CURVE SMOOTH",
"344 329 OFFCURVE",
"427 304 OFFCURVE",
"421 248 CURVE SMOOTH",
"412 167 OFFCURVE",
"330 159 OFFCURVE",
"285 159 CURVE SMOOTH",
"197 159 OFFCURVE",
"102 249 OFFCURVE",
"102 249 CURVE",
"-8 94 LINE",
"-7 94 OFFCURVE",
"99 -15 OFFCURVE",
"295 -15 CURVE SMOOTH",
"453 -15 OFFCURVE",
"606 50 OFFCURVE",
"626 243 CURVE SMOOTH",
"638 355 OFFCURVE",
"542 435 OFFCURVE",
"451 473 CURVE SMOOTH",
"365 514 OFFCURVE",
"287 546 OFFCURVE",
"292 594 CURVE SMOOTH",
"297 643 OFFCURVE",
"343 669 OFFCURVE",
"411 669 CURVE SMOOTH",
"492 669 OFFCURVE",
"564 616 OFFCURVE",
"564 616 CURVE",
"655 762 LINE",
"653 762 OFFCURVE",
"555 840 OFFCURVE",
"402 840 CURVE SMOOTH"
);
}
);
width = 672;
}
);
leftKerningGroup = S;
rightKerningGroup = d;
unicode = 0053;
},
{
glyphname = T;
lastChange = "2017-03-31 17:48:43 +0000";
layers = (
{
layerId = "A4E552E4-62BE-43BB-A58F-34F0EE3B77B8";
paths = (
{
closed = 1;
nodes = (
"204 0 LINE",
"392 0 LINE",
"392 660 LINE",
"588 660 LINE",
"588 825 LINE",
"8 825 LINE",
"8 660 LINE",
"204 660 LINE"
);
}
);
width = 596;
},
{
layerId = "7B60DD57-6012-4D0F-BD38-A72A4BAC0E9D";
paths = (
{
closed = 1;
nodes = (
"244 0 LINE",
"312 0 LINE",
"312 760 LINE",
"548 760 LINE",
"548 825 LINE",
"8 825 LINE",
"8 760 LINE",
"244 760 LINE"
);
}
);
width = 556;
},
{
layerId = "ADAA8221-C97A-4B4F-BB2A-36DAD3E45CA4";
paths = (
{
closed = 1;
nodes = (
"201 0 LINE",
"269 0 LINE",
"349 760 LINE",
"585 760 LINE",
"591 825 LINE",
"51 825 LINE",
"45 760 LINE",
"281 760 LINE"
);
}
);
width = 556;
},
{
layerId = "7B29E906-CD8A-4887-A0AD-C831DD8203F3";
paths = (
{
closed = 1;
nodes = (
"161 0 LINE",
"349 0 LINE",
"418 660 LINE",
"614 660 LINE",
"631 825 LINE",
"51 825 LINE",
"34 660 LINE",
"230 660 LINE"
);
}
);
width = 596;
}
);
leftKerningGroup = T;
rightKerningGroup = T;
unicode = 0054;
},
{
glyphname = Tbar;
lastChange = "2017-03-31 17:48:43 +0000";
layers = (
{
components = (
{
name = T;
transform = "{1, 0, 0, 1, 1, 0}";
}
);
layerId = "7B60DD57-6012-4D0F-BD38-A72A4BAC0E9D";
paths = (
{
closed = 1;
nodes = (
"8 415 LINE",
"529 415 LINE",
"529 485 LINE",
"8 485 LINE"
);
}
);
width = 557;
},
{
components = (
{
name = T;
}
);
layerId = "A4E552E4-62BE-43BB-A58F-34F0EE3B77B8";
paths = (
{
closed = 1;
nodes = (
"7 375 LINE",
"588 375 LINE",
"588 515 LINE",
"7 515 LINE"
);
}
);
width = 596;
},
{
components = (
{
name = T;
transform = "{1, 0, 0, 1, 1, 0}";
}
);
layerId = "ADAA8221-C97A-4B4F-BB2A-36DAD3E45CA4";
paths = (
{
closed = 1;
nodes = (
"8 415 LINE",
"529 415 LINE",
"537 485 LINE",
"16 485 LINE"
);
}
);
width = 557;
},
{
components = (
{
name = T;
}
);
layerId = "7B29E906-CD8A-4887-A0AD-C831DD8203F3";
paths = (
{
closed = 1;
nodes = (
"3 375 LINE",
"584 375 LINE",
"599 515 LINE",
"18 515 LINE"
);
}
);
width = 596;
}
);
unicode = 0166;
},
{
glyphname = U;
lastChange = "2017-03-31 17:48:43 +0000";
layers = (
{
layerId = "A4E552E4-62BE-43BB-A58F-34F0EE3B77B8";
paths = (
{
closed = 1;
nodes = (
"506 388 LINE SMOOTH",
"506 230 OFFCURVE",
"464 170 OFFCURVE",
"372 170 CURVE SMOOTH",
"280 170 OFFCURVE",
"238 230 OFFCURVE",
"238 388 CURVE SMOOTH",
"238 825 LINE",
"50 825 LINE",
"50 333 LINE SMOOTH",
"50 129 OFFCURVE",
"162 -15 OFFCURVE",
"372 -15 CURVE SMOOTH",
"582 -15 OFFCURVE",
"694 129 OFFCURVE",
"694 333 CURVE SMOOTH",
"694 825 LINE",
"506 825 LINE"
);
}
);
width = 744;
},
{
layerId = "7B60DD57-6012-4D0F-BD38-A72A4BAC0E9D";
paths = (
{
closed = 1;
nodes = (
"536 298 LINE SMOOTH",
"536 170 OFFCURVE",
"474 50 OFFCURVE",
"332 50 CURVE SMOOTH",
"190 50 OFFCURVE",
"128 170 OFFCURVE",
"128 298 CURVE SMOOTH",
"128 825 LINE",
"60 825 LINE",
"60 313 LINE SMOOTH",
"60 109 OFFCURVE",
"152 -15 OFFCURVE",
"332 -15 CURVE SMOOTH",
"512 -15 OFFCURVE",
"604 109 OFFCURVE",
"604 313 CURVE SMOOTH",
"604 825 LINE",
"536 825 LINE"
);
}
);
width = 664;
},
{
layerId = "ADAA8221-C97A-4B4F-BB2A-36DAD3E45CA4";
paths = (
{
closed = 1;
nodes = (
"524 299 LINE SMOOTH",
"511 171 OFFCURVE",
"434 50 OFFCURVE",
"291 50 CURVE SMOOTH",
"150 50 OFFCURVE",
"102 169 OFFCURVE",
"116 297 CURVE SMOOTH",
"171 825 LINE",
"103 825 LINE",
"50 314 LINE SMOOTH",
"28 110 OFFCURVE",
"108 -15 OFFCURVE",
"290 -15 CURVE SMOOTH",
"468 -15 OFFCURVE",
"572 108 OFFCURVE",
"593 312 CURVE SMOOTH",
"647 825 LINE",
"579 825 LINE"
);
}
);
width = 664;
},
{
layerId = "7B29E906-CD8A-4887-A0AD-C831DD8203F3";
paths = (
{
closed = 1;
nodes = (
"504 392 LINE SMOOTH",
"487 234 OFFCURVE",
"435 170 OFFCURVE",
"340 170 CURVE SMOOTH",
"251 170 OFFCURVE",
"218 226 OFFCURVE",
"235 384 CURVE SMOOTH",
"281 825 LINE",
"93 825 LINE",
"42 337 LINE SMOOTH",
"21 133 OFFCURVE",
"121 -15 OFFCURVE",
"334 -15 CURVE SMOOTH",
"541 -15 OFFCURVE",
"664 125 OFFCURVE",
"685 329 CURVE SMOOTH",
"737 825 LINE",
"549 825 LINE"
);
}
);
width = 744;
}
);
rightKerningGroup = d;
unicode = 0055;
},
{
glyphname = V;
lastChange = "2017-03-31 17:48:43 +0000";
layers = (
{
layerId = "A4E552E4-62BE-43BB-A58F-34F0EE3B77B8";
paths = (
{
closed = 1;
nodes = (
"792 825 LINE",
"580 825 LINE",
"392 303 LINE",
"204 825 LINE",
"-8 825 LINE",
"315 0 LINE",
"469 0 LINE"
);
}
);
width = 784;
},
{
layerId = "7B60DD57-6012-4D0F-BD38-A72A4BAC0E9D";
paths = (
{
closed = 1;
nodes = (
"691 825 LINE",
"615 825 LINE",
"342 93 LINE",
"69 825 LINE",
"-7 825 LINE",
"305 0 LINE",
"379 0 LINE"
);
}
);
width = 684;
},
{
layerId = "ADAA8221-C97A-4B4F-BB2A-36DAD3E45CA4";
paths = (
{
closed = 1;
nodes = (
"735 825 LINE",
"658 825 LINE",
"308 93 LINE",
"112 825 LINE",
"37 825 LINE",
"262 0 LINE",
"336 0 LINE"
);
}
);
width = 684;
},
{
layerId = "7B29E906-CD8A-4887-A0AD-C831DD8203F3";
paths = (
{
closed = 1;
nodes = (
"836 825 LINE",
"622 825 LINE",
"378 303 LINE",
"246 825 LINE",
"36 825 LINE",
"273 0 LINE",
"427 0 LINE"
);
}
);
width = 784;
}
);
leftKerningGroup = V;
rightKerningGroup = V;
unicode = 0056;
},
{
glyphname = W;
lastChange = "2017-03-31 17:48:43 +0000";
layers = (
{
layerId = "A4E552E4-62BE-43BB-A58F-34F0EE3B77B8";
paths = (
{
closed = 1;
nodes = (
"1136 825 LINE",
"928 825 LINE",
"787 259 LINE",
"782 259 LINE",
"632 825 LINE",
"490 825 LINE",
"340 259 LINE",
"335 259 LINE",
"194 825 LINE",
"-15 825 LINE",
"220 0 LINE",
"429 0 LINE",
"561 463 LINE",
"693 0 LINE",
"901 0 LINE"
);
}
);
width = 1136;
},
{
layerId = "7B60DD57-6012-4D0F-BD38-A72A4BAC0E9D";
paths = (
{
closed = 1;
nodes = (
"888 825 LINE",
"814 825 LINE",
"673 123 LINE",
"668 123 LINE",
"476 825 LINE",
"398 825 LINE",
"206 123 LINE",
"206 123 LINE",
"60 825 LINE",
"-15 825 LINE",
"166 0 LINE",
"245 0 LINE",
"437 703 LINE",
"629 0 LINE",
"707 0 LINE"
);
}
);
width = 888;
},
{
layerId = "ADAA8221-C97A-4B4F-BB2A-36DAD3E45CA4";
paths = (
{
closed = 1;
nodes = (
"932 825 LINE",
"857 825 LINE",
"642 123 LINE",
"637 123 LINE",
"519 825 LINE",
"441 825 LINE",
"175 123 LINE",
"175 123 LINE",
"103 825 LINE",
"29 825 LINE",
"123 0 LINE",
"202 0 LINE",
"468 703 LINE",
"586 0 LINE",
"664 0 LINE"
);
}
);
width = 888;
},
{
layerId = "7B29E906-CD8A-4887-A0AD-C831DD8203F3";
paths = (
{
closed = 1;
nodes = (
"1180 825 LINE",
"971 825 LINE",
"770 259 LINE",
"765 259 LINE",
"675 825 LINE",
"533 825 LINE",
"323 259 LINE",
"318 259 LINE",
"237 825 LINE",
"29 825 LINE",
"178 0 LINE",
"387 0 LINE",
"568 463 LINE",
"651 0 LINE",
"859 0 LINE"
);
}
);
width = 1136;
}
);
leftKerningGroup = V;
rightKerningGroup = V;
unicode = 0057;
},
{
glyphname = X;
lastChange = "2017-03-31 17:48:43 +0000";
layers = (
{
layerId = "A4E552E4-62BE-43BB-A58F-34F0EE3B77B8";
paths = (
{
closed = 1;
nodes = (
"780 825 LINE",
"546 825 LINE",
"394 600 LINE",
"242 825 LINE",
"18 825 LINE",
"278 444 LINE",
"-24 0 LINE",
"209 0 LINE",
"394 281 LINE",
"579 0 LINE",
"822 0 LINE",
"510 444 LINE"
);
}
);
width = 798;
},
{
layerId = "7B60DD57-6012-4D0F-BD38-A72A4BAC0E9D";
paths = (
{
closed = 1;
nodes = (
"632 825 LINE",
"552 825 LINE",
"320 490 LINE",
"88 825 LINE",
"8 825 LINE",
"278 444 LINE",
"-24 0 LINE",
"55 0 LINE",
"320 391 LINE",
"585 0 LINE",
"664 0 LINE",
"362 444 LINE"
);
}
);
width = 640;
},
{
layerId = "ADAA8221-C97A-4B4F-BB2A-36DAD3E45CA4";
paths = (
{
closed = 1;
nodes = (
"676 825 LINE",
"595 825 LINE",
"327 490 LINE",
"131 825 LINE",
"52 825 LINE",
"281 444 LINE",
"-68 0 LINE",
"12 0 LINE",
"319 391 LINE",
"542 0 LINE",
"620 0 LINE",
"365 444 LINE"
);
}
);
width = 640;
},
{
layerId = "7B29E906-CD8A-4887-A0AD-C831DD8203F3";
paths = (
{
closed = 1;
nodes = (
"825 825 LINE",
"588 825 LINE",
"411 600 LINE",
"284 825 LINE",
"63 825 LINE",
"281 444 LINE",
"-69 0 LINE",
"167 0 LINE",
"383 281 LINE",
"537 0 LINE",
"777 0 LINE",
"513 444 LINE"
);
}
);
width = 798;
}
);
rightKerningGroup = d;
unicode = 0058;
},
{
glyphname = Y;
lastChange = "2017-03-31 17:48:43 +0000";
layers = (
{
layerId = "A4E552E4-62BE-43BB-A58F-34F0EE3B77B8";
paths = (
{
closed = 1;
nodes = (
"274 0 LINE",
"462 0 LINE",
"462 370 LINE",
"746 825 LINE",
"520 825 LINE",
"368 561 LINE",
"216 825 LINE",
"-10 825 LINE",
"274 370 LINE"
);
}
);
width = 736;
},
{
layerId = "7B60DD57-6012-4D0F-BD38-A72A4BAC0E9D";
paths = (
{
closed = 1;
nodes = (
"264 0 LINE",
"332 0 LINE",
"332 320 LINE",
"606 825 LINE",
"530 825 LINE",
"298 384 LINE",
"66 825 LINE",
"-10 825 LINE",
"264 320 LINE"
);
}
);
width = 596;
},
{
layerId = "ADAA8221-C97A-4B4F-BB2A-36DAD3E45CA4";
paths = (
{
closed = 1;
nodes = (
"221 0 LINE",
"289 0 LINE",
"323 320 LINE",
"650 825 LINE",
"573 825 LINE",
"294 384 LINE",
"109 825 LINE",
"34 825 LINE",
"255 320 LINE"
);
}
);
width = 596;
},
{
layerId = "7B29E906-CD8A-4887-A0AD-C831DD8203F3";
paths = (
{
closed = 1;
nodes = (
"231 0 LINE",
"419 0 LINE",
"459 370 LINE",
"791 825 LINE",
"562 825 LINE",
"381 561 LINE",
"258 825 LINE",
"35 825 LINE",
"271 370 LINE"
);
}
);
width = 736;
}
);
leftKerningGroup = Y;
rightKerningGroup = Y;
unicode = 0059;
},
{
glyphname = Z;
lastChange = "2017-03-31 17:48:43 +0000";
layers = (
{
layerId = "A4E552E4-62BE-43BB-A58F-34F0EE3B77B8";
paths = (
{
closed = 1;
nodes = (
"74 660 LINE",
"424 660 LINE",
"16 0 LINE",
"726 0 LINE",
"726 165 LINE",
"344 165 LINE",
"753 825 LINE",
"74 825 LINE"
);
}
);
width = 769;
},
{
layerId = "7B60DD57-6012-4D0F-BD38-A72A4BAC0E9D";
paths = (
{
closed = 1;
nodes = (
"73 760 LINE",
"510 760 LINE",
"15 0 LINE",
"605 0 LINE",
"605 65 LINE",
"140 65 LINE",
"632 825 LINE",
"73 825 LINE"
);
}
);
width = 647;
},
{
layerId = "ADAA8221-C97A-4B4F-BB2A-36DAD3E45CA4";
paths = (
{
closed = 1;
nodes = (
"110 760 LINE",
"546 760 LINE",
"-29 0 LINE",
"562 0 LINE",
"568 65 LINE",
"104 65 LINE",
"676 825 LINE",
"116 825 LINE"
);
}
);
width = 647;
},
{
layerId = "7B29E906-CD8A-4887-A0AD-C831DD8203F3";
paths = (
{
closed = 1;
nodes = (
"100 660 LINE",
"449 660 LINE",
"-29 0 LINE",
"683 0 LINE",
"700 165 LINE",
"319 165 LINE",
"798 825 LINE",
"117 825 LINE"
);
}
);
width = 769;
}
);
unicode = 005A;
},
{
glyphname = C.ss01;
lastChange = "2017-03-31 17:48:43 +0000";
layers = (
{
layerId = "7B60DD57-6012-4D0F-BD38-A72A4BAC0E9D";
paths = (
{
closed = 1;
nodes = (
"254 48 OFFCURVE",
"97 202 OFFCURVE",
"97 413 CURVE SMOOTH",
"97 623 OFFCURVE",
"254 777 OFFCURVE",
"443 777 CURVE SMOOTH",
"599 777 OFFCURVE",
"681 704 OFFCURVE",
"681 704 CURVE",
"711 764 LINE",
"711 764 OFFCURVE",
"619 840 OFFCURVE",
"440 840 CURVE SMOOTH",
"206 840 OFFCURVE",
"23 648 OFFCURVE",
"23 411 CURVE SMOOTH",
"23 175 OFFCURVE",
"207 -15 OFFCURVE",
"440 -15 CURVE SMOOTH",
"619 -15 OFFCURVE",
"711 61 OFFCURVE",
"711 61 CURVE",
"681 121 LINE",
"681 121 OFFCURVE",
"599 48 OFFCURVE",
"443 48 CURVE SMOOTH"
);
}
);
width = 731;
},
{
layerId = "A4E552E4-62BE-43BB-A58F-34F0EE3B77B8";
paths = (
{
closed = 1;
nodes = (
"310 170 OFFCURVE",
"227 302 OFFCURVE",
"227 413 CURVE SMOOTH",
"227 523 OFFCURVE",
"310 655 OFFCURVE",
"499 655 CURVE SMOOTH",
"595 655 OFFCURVE",
"661 604 OFFCURVE",
"661 604 CURVE",
"741 764 LINE",
"741 764 OFFCURVE",
"649 840 OFFCURVE",
"470 840 CURVE SMOOTH",
"236 840 OFFCURVE",
"23 648 OFFCURVE",
"23 411 CURVE SMOOTH",
"23 175 OFFCURVE",
"237 -15 OFFCURVE",
"470 -15 CURVE SMOOTH",
"649 -15 OFFCURVE",
"741 61 OFFCURVE",
"741 61 CURVE",
"661 221 LINE",
"661 221 OFFCURVE",
"595 170 OFFCURVE",
"499 170 CURVE SMOOTH"
);
}
);
width = 761;
},
{
layerId = "ADAA8221-C97A-4B4F-BB2A-36DAD3E45CA4";
paths = (
{
closed = 1;
nodes = (
"214 48 OFFCURVE",
"75 201 OFFCURVE",
"97 410 CURVE SMOOTH",
"119 622 OFFCURVE",
"294 777 OFFCURVE",
"484 777 CURVE SMOOTH",
"639 777 OFFCURVE",
"711 705 OFFCURVE",
"711 705 CURVE",
"747 764 LINE",
"747 764 OFFCURVE",
"663 840 OFFCURVE",
"482 840 CURVE SMOOTH",
"250 840 OFFCURVE",
"48 649 OFFCURVE",
"23 414 CURVE SMOOTH",
"-2 176 OFFCURVE",
"163 -15 OFFCURVE",
"398 -15 CURVE SMOOTH",
"575 -15 OFFCURVE",
"675 62 OFFCURVE",
"675 62 CURVE",
"651 121 LINE",
"652 121 OFFCURVE",
"559 48 OFFCURVE",
"402 48 CURVE SMOOTH"
);
}
);
width = 731;
},
{
layerId = "7B29E906-CD8A-4887-A0AD-C831DD8203F3";
paths = (
{
closed = 1;
nodes = (
"281 170 OFFCURVE",
"215 298 OFFCURVE",
"226 405 CURVE SMOOTH",
"238 519 OFFCURVE",
"339 655 OFFCURVE",
"531 655 CURVE SMOOTH",
"624 655 OFFCURVE",
"680 608 OFFCURVE",
"680 608 CURVE",
"776 764 LINE",
"774 764 OFFCURVE",
"690 840 OFFCURVE",
"508 840 CURVE SMOOTH",
"277 840 OFFCURVE",
"48 652 OFFCURVE",
"24 419 CURVE SMOOTH",
"-2 179 OFFCURVE",
"196 -15 OFFCURVE",
"432 -15 CURVE SMOOTH",
"608 -15 OFFCURVE",
"706 65 OFFCURVE",
"706 65 CURVE",
"643 221 LINE",
"644 221 OFFCURVE",
"566 170 OFFCURVE",
"467 170 CURVE SMOOTH"
);
}
);
width = 761;
}
);
},
{
glyphname = Q.ss01;
lastChange = "2017-03-31 17:48:43 +0000";
layers = (
{
layerId = "A4E552E4-62BE-43BB-A58F-34F0EE3B77B8";
paths = (
{
closed = 1;
nodes = (
"226 536 OFFCURVE",
"294 659 OFFCURVE",
"439 659 CURVE SMOOTH",
"585 659 OFFCURVE",
"651 536 OFFCURVE",
"651 413 CURVE SMOOTH",
"651 290 OFFCURVE",
"589 167 OFFCURVE",
"439 167 CURVE SMOOTH",
"285 167 OFFCURVE",
"226 290 OFFCURVE",
"226 413 CURVE SMOOTH"
);
},
{
closed = 1;
nodes = (
"23 172 OFFCURVE",
"195 -15 OFFCURVE",
"439 -15 CURVE SMOOTH",
"676 -15 OFFCURVE",
"854 172 OFFCURVE",
"854 413 CURVE SMOOTH",
"854 654 OFFCURVE",
"668 840 OFFCURVE",
"439 840 CURVE SMOOTH",
"212 840 OFFCURVE",
"23 654 OFFCURVE",
"23 413 CURVE SMOOTH"
);
},
{
closed = 1;
nodes = (
"655 -104 LINE",
"860 -104 LINE",
"631 288 LINE",
"426 288 LINE"
);
}
);
width = 875;
},
{
layerId = "7B60DD57-6012-4D0F-BD38-A72A4BAC0E9D";
paths = (
{
closed = 1;
nodes = (
"97 649 OFFCURVE",
"244 775 OFFCURVE",
"399 775 CURVE SMOOTH",
"555 775 OFFCURVE",
"700 649 OFFCURVE",
"700 413 CURVE SMOOTH",
"700 177 OFFCURVE",
"559 51 OFFCURVE",
"399 51 CURVE SMOOTH",
"235 51 OFFCURVE",
"97 177 OFFCURVE",
"97 413 CURVE SMOOTH"
);
},
{
closed = 1;
nodes = (
"23 112 OFFCURVE",
"205 -15 OFFCURVE",
"399 -15 CURVE SMOOTH",
"586 -15 OFFCURVE",
"774 112 OFFCURVE",
"774 413 CURVE SMOOTH",
"774 714 OFFCURVE",
"578 840 OFFCURVE",
"399 840 CURVE SMOOTH",
"222 840 OFFCURVE",
"23 714 OFFCURVE",
"23 413 CURVE SMOOTH"
);
},
{
closed = 1;
nodes = (
"670 -104 LINE",
"755 -104 LINE",
"526 288 LINE",
"441 288 LINE"
);
}
);
width = 815;
},
{
layerId = "ADAA8221-C97A-4B4F-BB2A-36DAD3E45CA4";
paths = (
{
closed = 1;
nodes = (
"122 648 OFFCURVE",
"284 775 OFFCURVE",
"440 775 CURVE SMOOTH",
"595 775 OFFCURVE",
"725 650 OFFCURVE",
"700 416 CURVE SMOOTH",
"675 178 OFFCURVE",
"520 51 OFFCURVE",
"358 51 CURVE SMOOTH",
"196 51 OFFCURVE",
"72 176 OFFCURVE",
"97 410 CURVE SMOOTH"
);
},
{
closed = 1;
nodes = (
"-8 113 OFFCURVE",
"161 -15 OFFCURVE",
"357 -15 CURVE SMOOTH",
"542 -15 OFFCURVE",
"742 111 OFFCURVE",
"774 410 CURVE SMOOTH",
"806 713 OFFCURVE",
"622 840 OFFCURVE",
"441 840 CURVE SMOOTH",
"266 840 OFFCURVE",
"55 715 OFFCURVE",
"23 416 CURVE SMOOTH"
);
},
{
closed = 1;
nodes = (
"616 -104 LINE",
"700 -104 LINE",
"512 288 LINE",
"428 288 LINE"
);
}
);
width = 815;
},
{
layerId = "7B29E906-CD8A-4887-A0AD-C831DD8203F3";
paths = (
{
closed = 1;
nodes = (
"239 532 OFFCURVE",
"323 659 OFFCURVE",
"472 659 CURVE SMOOTH",
"614 659 OFFCURVE",
"664 540 OFFCURVE",
"652 421 CURVE SMOOTH",
"639 294 OFFCURVE",
"560 167 OFFCURVE",
"406 167 CURVE SMOOTH",
"256 167 OFFCURVE",
"213 286 OFFCURVE",
"225 405 CURVE SMOOTH"
);
},
{
closed = 1;
nodes = (
"-2 176 OFFCURVE",
"154 -15 OFFCURVE",
"401 -15 CURVE SMOOTH",
"635 -15 OFFCURVE",
"828 168 OFFCURVE",
"853 405 CURVE SMOOTH",
"879 650 OFFCURVE",
"709 840 OFFCURVE",
"477 840 CURVE SMOOTH",
"253 840 OFFCURVE",
"49 658 OFFCURVE",
"24 421 CURVE SMOOTH"
);
},
{
closed = 1;
nodes = (
"602 -104 LINE",
"804 -104 LINE",
"617 288 LINE",
"414 288 LINE"
);
}
);
width = 875;
}
);
},
{
glyphname = Q.ss02;
lastChange = "2017-03-31 17:48:43 +0000";
layers = (
{
layerId = "A4E552E4-62BE-43BB-A58F-34F0EE3B77B8";
paths = (
{
closed = 1;
nodes = (
"520 -15 OFFCURVE",
"598 9 OFFCURVE",
"662 53 CURVE",
"699 27 OFFCURVE",
"752 -3 OFFCURVE",
"813 -26 CURVE",
"896 142 LINE",
"847 155 OFFCURVE",
"810 169 OFFCURVE",
"783 182 CURVE",
"822 248 OFFCURVE",
"844 327 OFFCURVE",
"844 413 CURVE SMOOTH",
"844 654 OFFCURVE",
"663 840 OFFCURVE",
"434 840 CURVE SMOOTH",
"207 840 OFFCURVE",
"23 654 OFFCURVE",
"23 413 CURVE SMOOTH",
"23 172 OFFCURVE",
"190 -15 OFFCURVE",
"434 -15 CURVE SMOOTH"
);
},
{
closed = 1;
nodes = (
"280 175 OFFCURVE",
"226 290 OFFCURVE",
"226 413 CURVE SMOOTH",
"226 536 OFFCURVE",
"289 651 OFFCURVE",
"434 651 CURVE SMOOTH",
"580 651 OFFCURVE",
"641 536 OFFCURVE",
"641 413 CURVE SMOOTH",
"641 363 OFFCURVE",
"632 315 OFFCURVE",
"611 275 CURVE",
"527 332 OFFCURVE",
"471 394 OFFCURVE",
"471 394 CURVE",
"391 294 LINE",
"409 271 OFFCURVE",
"446 226 OFFCURVE",
"493 182 CURVE",
"475 177 OFFCURVE",
"455 175 OFFCURVE",
"434 175 CURVE SMOOTH"
);
}
);
width = 876;
},
{
layerId = "7B60DD57-6012-4D0F-BD38-A72A4BAC0E9D";
paths = (
{
closed = 1;
nodes = (
"520 -15 OFFCURVE",
"611 26 OFFCURVE",
"677 94 CURVE",
"731 63 OFFCURVE",
"783 41 OFFCURVE",
"824 30 CURVE",
"856 90 LINE",
"827 96 OFFCURVE",
"776 116 OFFCURVE",
"719 146 CURVE",
"767 218 OFFCURVE",
"794 311 OFFCURVE",
"794 413 CURVE SMOOTH",
"794 654 OFFCURVE",
"638 840 OFFCURVE",
"409 840 CURVE SMOOTH",
"182 840 OFFCURVE",
"23 654 OFFCURVE",
"23 413 CURVE SMOOTH",
"23 172 OFFCURVE",
"165 -15 OFFCURVE",
"409 -15 CURVE SMOOTH"
);
},
{
closed = 1;
nodes = (
"205 47 OFFCURVE",
"96 220 OFFCURVE",
"96 413 CURVE SMOOTH",
"96 606 OFFCURVE",
"214 779 OFFCURVE",
"409 779 CURVE SMOOTH",
"605 779 OFFCURVE",
"721 606 OFFCURVE",
"721 413 CURVE SMOOTH",
"721 327 OFFCURVE",
"699 245 OFFCURVE",
"656 181 CURVE",
"598 216 OFFCURVE",
"539 259 OFFCURVE",
"494 306 CURVE",
"458 261 LINE",
"502 214 OFFCURVE",
"558 169 OFFCURVE",
"616 131 CURVE",
"565 79 OFFCURVE",
"495 47 OFFCURVE",
"409 47 CURVE SMOOTH"
);
}
);
width = 833;
},
{
layerId = "ADAA8221-C97A-4B4F-BB2A-36DAD3E45CA4";
paths = (
{
closed = 1;
nodes = (
"476 -15 OFFCURVE",
"571 25 OFFCURVE",
"646 94 CURVE",
"696 64 OFFCURVE",
"745 41 OFFCURVE",
"785 30 CURVE",
"821 90 LINE",
"792 96 OFFCURVE",
"744 115 OFFCURVE",
"690 144 CURVE",
"747 217 OFFCURVE",
"783 310 OFFCURVE",
"794 410 CURVE SMOOTH",
"819 653 OFFCURVE",
"682 840 OFFCURVE",
"451 840 CURVE SMOOTH",
"226 840 OFFCURVE",
"49 655 OFFCURVE",
"23 416 CURVE SMOOTH",
"-2 173 OFFCURVE",
"121 -15 OFFCURVE",
"367 -15 CURVE SMOOTH"
);
},
{
closed = 1;
nodes = (
"165 47 OFFCURVE",
"76 219 OFFCURVE",
"96 410 CURVE SMOOTH",
"116 605 OFFCURVE",
"254 779 OFFCURVE",
"450 779 CURVE SMOOTH",
"645 779 OFFCURVE",
"741 607 OFFCURVE",
"721 416 CURVE SMOOTH",
"712 328 OFFCURVE",
"681 246 OFFCURVE",
"630 181 CURVE",
"576 215 OFFCURVE",
"522 258 OFFCURVE",
"482 305 CURVE",
"443 262 LINE",
"482 215 OFFCURVE",
"534 170 OFFCURVE",
"587 133 CURVE",
"529 80 OFFCURVE",
"455 47 OFFCURVE",
"368 47 CURVE SMOOTH"
);
}
);
width = 833;
},
{
layerId = "7B29E906-CD8A-4887-A0AD-C831DD8203F3";
paths = (
{
closed = 1;
nodes = (
"479 -15 OFFCURVE",
"558 7 OFFCURVE",
"630 53 CURVE",
"662 29 OFFCURVE",
"712 -2 OFFCURVE",
"770 -25 CURVE",
"865 141 LINE",
"816 154 OFFCURVE",
"781 167 OFFCURVE",
"757 177 CURVE",
"806 245 OFFCURVE",
"835 323 OFFCURVE",
"843 405 CURVE SMOOTH",
"869 650 OFFCURVE",
"704 840 OFFCURVE",
"472 840 CURVE SMOOTH",
"248 840 OFFCURVE",
"49 658 OFFCURVE",
"24 421 CURVE SMOOTH",
"-2 176 OFFCURVE",
"149 -15 OFFCURVE",
"396 -15 CURVE SMOOTH"
);
},
{
closed = 1;
nodes = (
"252 175 OFFCURVE",
"213 286 OFFCURVE",
"225 405 CURVE SMOOTH",
"239 532 OFFCURVE",
"318 651 OFFCURVE",
"466 651 CURVE SMOOTH",
"609 651 OFFCURVE",
"654 540 OFFCURVE",
"642 421 CURVE SMOOTH",
"636 367 OFFCURVE",
"621 318 OFFCURVE",
"592 276 CURVE",
"515 330 OFFCURVE",
"471 391 OFFCURVE",
"471 391 CURVE",
"380 297 LINE",
"397 274 OFFCURVE",
"429 229 OFFCURVE",
"468 186 CURVE",
"447 178 OFFCURVE",
"427 175 OFFCURVE",
"402 175 CURVE SMOOTH"
);
}
);
width = 876;
}
);
leftKerningGroup = G;
rightKerningGroup = d;
},
{
glyphname = a;
lastChange = "2017-04-05 18:23:25 +0000";
layers = (
{
layerId = "A4E552E4-62BE-43BB-A58F-34F0EE3B77B8";
paths = (
{
closed = 1;
nodes = (
"23 106 OFFCURVE",
"128 -15 OFFCURVE",
"278 -15 CURVE SMOOTH",
"378 -15 OFFCURVE",
"435 52 OFFCURVE",
"446 78 CURVE",
"448 78 LINE",
"448 0 LINE",
"623 0 LINE",
"623 513 LINE",
"446 513 LINE",
"446 444 LINE",
"430 475 OFFCURVE",
"377 528 OFFCURVE",
"278 528 CURVE SMOOTH",
"128 528 OFFCURVE",
"23 406 OFFCURVE",
"23 256 CURVE SMOOTH"
);
},
{
closed = 1;
nodes = (
"211 327 OFFCURVE",
"264 377 OFFCURVE",
"331 377 CURVE SMOOTH",
"397 377 OFFCURVE",
"446 327 OFFCURVE",
"446 256 CURVE SMOOTH",
"446 186 OFFCURVE",
"400 136 OFFCURVE",
"331 136 CURVE SMOOTH",
"259 136 OFFCURVE",
"211 186 OFFCURVE",
"211 256 CURVE SMOOTH"
);
}
);
width = 683;
},
{
layerId = "7B60DD57-6012-4D0F-BD38-A72A4BAC0E9D";
paths = (
{
closed = 1;
nodes = (
"23 86 OFFCURVE",
"141 -15 OFFCURVE",
"281 -15 CURVE SMOOTH",
"401 -15 OFFCURVE",
"472 62 OFFCURVE",
"478 91 CURVE",
"480 91 LINE",
"480 0 LINE",
"548 0 LINE",
"548 513 LINE",
"478 513 LINE",
"478 424 LINE",
"471 457 OFFCURVE",
"400 528 OFFCURVE",
"281 528 CURVE SMOOTH",
"141 528 OFFCURVE",
"23 426 OFFCURVE",
"23 256 CURVE SMOOTH"
);
},
{
closed = 1;
nodes = (
"93 387 OFFCURVE",
"182 464 OFFCURVE",
"281 464 CURVE SMOOTH",
"390 464 OFFCURVE",
"478 377 OFFCURVE",
"478 256 CURVE SMOOTH",
"478 136 OFFCURVE",
"393 49 OFFCURVE",
"281 49 CURVE SMOOTH",
"182 49 OFFCURVE",
"93 126 OFFCURVE",
"93 256 CURVE SMOOTH"
);
}
);
width = 608;
},
{
background = {
paths = (
{
closed = 1;
nodes = (
"-3 86 OFFCURVE",
"105 -15 OFFCURVE",
"245 -15 CURVE SMOOTH",
"365 -15 OFFCURVE",
"444 62 OFFCURVE",
"453 91 CURVE",
"455 91 LINE",
"445 0 LINE",
"513 0 LINE",
"567 513 LINE",
"497 513 LINE",
"488 424 LINE",
"484 457 OFFCURVE",
"420 528 OFFCURVE",
"301 528 CURVE SMOOTH",
"161 528 OFFCURVE",
"33 426 OFFCURVE",
"15 256 CURVE SMOOTH"
);
},
{
closed = 1;
nodes = (
"99 387 OFFCURVE",
"196 464 OFFCURVE",
"295 464 CURVE SMOOTH",
"404 464 OFFCURVE",
"483 377 OFFCURVE",
"470 256 CURVE SMOOTH",
"457 136 OFFCURVE",
"363 49 OFFCURVE",
"251 49 CURVE SMOOTH",
"152 49 OFFCURVE",
"71 126 OFFCURVE",
"85 256 CURVE SMOOTH"
);
}
);
};
layerId = "ADAA8221-C97A-4B4F-BB2A-36DAD3E45CA4";
paths = (
{
closed = 1;
nodes = (
"113 449 OFFCURVE",
"301 496 OFFCURVE",
"489 457 CURVE",
"474 305 LINE",
"461 183 OFFCURVE",
"360 49 OFFCURVE",
"247 49 CURVE SMOOTH",
"149 49 OFFCURVE",
"80 125 OFFCURVE",
"93 253 CURVE SMOOTH"
);
},
{
closed = 1;
nodes = (
"511 0 LINE",
"566 513 LINE",
"479 530 OFFCURVE",
"369 538 OFFCURVE",
"272 520 CURVE SMOOTH",
"126 493 OFFCURVE",
"40 402 OFFCURVE",
"24 259 CURVE SMOOTH",
"13 156 OFFCURVE",
"44 79 OFFCURVE",
"100 33 CURVE SMOOTH",
"222 -67 OFFCURVE",
"415 6 OFFCURVE",
"460 151 CURVE",
"453 91 OFFCURVE",
"449 66 OFFCURVE",
"442 0 CURVE"
);
}
);
width = 598;
},
{
layerId = "7B29E906-CD8A-4887-A0AD-C831DD8203F3";
paths = (
{
closed = 1;
nodes = (
"-9 106 OFFCURVE",
"86 -23 OFFCURVE",
"236 -11 CURVE SMOOTH",
"364 -1 OFFCURVE",
"410 124 OFFCURVE",
"420 153 CURVE",
"415 104 LINE",
"404 0 LINE",
"581 0 LINE",
"634 512 LINE",
"571 519 OFFCURVE",
"494 524 OFFCURVE",
"397 525 CURVE SMOOTH",
"118 528 OFFCURVE",
"23 406 OFFCURVE",
"7 256 CURVE SMOOTH"
);
},
{
closed = 1;
nodes = (
"199 346 OFFCURVE",
"261 381 OFFCURVE",
"328 380 CURVE SMOOTH",
"440 379 LINE",
"436 332 LINE SMOOTH",
"427 222 OFFCURVE",
"366 155 OFFCURVE",
"298 155 CURVE SMOOTH",
"226 155 OFFCURVE",
"185 205 OFFCURVE",
"192 275 CURVE SMOOTH"
);
}
);
width = 683;
}
);
leftKerningGroup = aacute;
rightKerningGroup = aacute;
unicode = 0061;
},
{
glyphname = ae;
lastChange = "2017-03-31 17:48:43 +0000";
layers = (
{
layerId = "A4E552E4-62BE-43BB-A58F-34F0EE3B77B8";
paths = (
{
closed = 1;
nodes = (
"112 357 LINE",
"112 357 OFFCURVE",
"159 387 OFFCURVE",
"251 387 CURVE SMOOTH",
"302 387 OFFCURVE",
"363 355 OFFCURVE",
"363 299 CURVE SMOOTH",
"363 282 LINE",
"340 298 OFFCURVE",
"281 331 OFFCURVE",
"196 321 CURVE SMOOTH",
"81 307 OFFCURVE",
"23 248 OFFCURVE",
"23 136 CURVE SMOOTH",
"23 43 OFFCURVE",
"106 -15 OFFCURVE",
"213 -15 CURVE SMOOTH",
"370 -15 OFFCURVE",
"432 79 OFFCURVE",
"432 79 CURVE",
"484 21 OFFCURVE",
"560 -15 OFFCURVE",
"645 -15 CURVE SMOOTH",
"759 -15 OFFCURVE",
"853 22 OFFCURVE",
"911 119 CURVE",
"783 183 LINE",
"740 137 OFFCURVE",
"715 126 OFFCURVE",
"658 126 CURVE SMOOTH",
"613 126 OFFCURVE",
"547 153 OFFCURVE",
"547 232 CURVE",
"919 232 LINE",
"920 238 OFFCURVE",
"920 249 OFFCURVE",
"920 256 CURVE SMOOTH",
"920 436 OFFCURVE",
"801 528 OFFCURVE",
"645 528 CURVE SMOOTH",
"576 528 OFFCURVE",
"512 504 OFFCURVE",
"463 464 CURVE",
"401 513 OFFCURVE",
"313 528 OFFCURVE",
"251 528 CURVE SMOOTH",
"120 528 OFFCURVE",
"56 478 OFFCURVE",
"56 478 CURVE"
);
},
{
closed = 1;
nodes = (
"196 206 OFFCURVE",
"238 221 OFFCURVE",
"275 218 CURVE SMOOTH",
"322 214 OFFCURVE",
"340 192 OFFCURVE",
"340 162 CURVE SMOOTH",
"340 132 OFFCURVE",
"312 107 OFFCURVE",
"275 102 CURVE SMOOTH",
"238 97 OFFCURVE",
"196 113 OFFCURVE",
"196 159 CURVE SMOOTH"
);
},
{
closed = 1;
nodes = (
"552 330 LINE",
"555 377 OFFCURVE",
"589 413 OFFCURVE",
"650 413 CURVE SMOOTH",
"702 413 OFFCURVE",
"739 384 OFFCURVE",
"747 330 CURVE"
);
}
);
width = 943;
},
{
layerId = "7B60DD57-6012-4D0F-BD38-A72A4BAC0E9D";
paths = (
{
closed = 1;
nodes = (
"88 410 LINE",
"88 410 OFFCURVE",
"139 464 OFFCURVE",
"231 464 CURVE SMOOTH",
"282 464 OFFCURVE",
"383 435 OFFCURVE",
"383 299 CURVE SMOOTH",
"383 262 LINE",
"368 294 OFFCURVE",
"289 333 OFFCURVE",
"196 321 CURVE SMOOTH",
"111 310 OFFCURVE",
"23 269 OFFCURVE",
"23 157 CURVE SMOOTH",
"23 27 OFFCURVE",
"136 -15 OFFCURVE",
"223 -15 CURVE SMOOTH",
"334 -15 OFFCURVE",
"402 79 OFFCURVE",
"402 79 CURVE",
"454 21 OFFCURVE",
"520 -15 OFFCURVE",
"605 -15 CURVE SMOOTH",
"719 -15 OFFCURVE",
"779 39 OFFCURVE",
"821 109 CURVE",
"755 140 LINE",
"745 110 OFFCURVE",
"705 50 OFFCURVE",
"618 50 CURVE SMOOTH",
"500 50 OFFCURVE",
"447 113 OFFCURVE",
"447 242 CURVE",
"829 242 LINE",
"830 248 OFFCURVE",
"830 249 OFFCURVE",
"830 256 CURVE SMOOTH",
"830 436 OFFCURVE",
"741 528 OFFCURVE",
"605 528 CURVE SMOOTH",
"516 528 OFFCURVE",
"440 469 OFFCURVE",
"419 421 CURVE",
"391 479 OFFCURVE",
"333 528 OFFCURVE",
"231 528 CURVE SMOOTH",
"110 528 OFFCURVE",
"52 465 OFFCURVE",
"52 465 CURVE"
);
},
{
closed = 1;
nodes = (
"92 236 OFFCURVE",
"168 264 OFFCURVE",
"235 262 CURVE SMOOTH",
"312 260 OFFCURVE",
"378 228 OFFCURVE",
"378 170 CURVE SMOOTH",
"378 103 OFFCURVE",
"292 50 OFFCURVE",
"215 50 CURVE SMOOTH",
"157 50 OFFCURVE",
"92 73 OFFCURVE",
"92 159 CURVE SMOOTH"
);
},
{
closed = 1;
nodes = (
"452 300 LINE",
"452 410 OFFCURVE",
"505 464 OFFCURVE",
"610 464 CURVE SMOOTH",
"743 464 OFFCURVE",
"759 354 OFFCURVE",
"767 300 CURVE"
);
}
);
width = 853;
},
{
layerId = "ADAA8221-C97A-4B4F-BB2A-36DAD3E45CA4";
paths = (
{
closed = 1;
nodes = (
"87 410 LINE",
"86 410 OFFCURVE",
"146 464 OFFCURVE",
"239 464 CURVE SMOOTH",
"289 464 OFFCURVE",
"386 436 OFFCURVE",
"371 300 CURVE SMOOTH",
"366 261 LINE",
"355 293 OFFCURVE",
"279 333 OFFCURVE",
"184 321 CURVE SMOOTH",
"99 310 OFFCURVE",
"8 270 OFFCURVE",
"-4 160 CURVE SMOOTH",
"-17 28 OFFCURVE",
"92 -15 OFFCURVE",
"181 -15 CURVE SMOOTH",
"290 -15 OFFCURVE",
"366 78 OFFCURVE",
"367 79 CURVE",
"414 22 OFFCURVE",
"476 -15 OFFCURVE",
"563 -15 CURVE SMOOTH",
"675 -15 OFFCURVE",
"740 38 OFFCURVE",
"790 108 CURVE",
"726 141 LINE",
"713 111 OFFCURVE",
"665 50 OFFCURVE",
"577 50 CURVE SMOOTH",
"460 50 OFFCURVE",
"415 112 OFFCURVE",
"429 241 CURVE",
"811 241 LINE",
"813 247 OFFCURVE",
"813 248 OFFCURVE",
"813 253 CURVE SMOOTH",
"832 435 OFFCURVE",
"752 528 OFFCURVE",
"614 528 CURVE SMOOTH",
"527 528 OFFCURVE",
"445 470 OFFCURVE",
"419 421 CURVE",
"397 478 OFFCURVE",
"344 528 OFFCURVE",
"240 528 CURVE SMOOTH",
"121 528 OFFCURVE",
"57 464 OFFCURVE",
"57 464 CURVE"
);
},
{
closed = 1;
nodes = (
"73 235 OFFCURVE",
"154 264 OFFCURVE",
"222 262 CURVE SMOOTH",
"297 260 OFFCURVE",
"359 229 OFFCURVE",
"353 173 CURVE SMOOTH",
"346 104 OFFCURVE",
"252 50 OFFCURVE",
"174 50 CURVE SMOOTH",
"117 50 OFFCURVE",
"56 72 OFFCURVE",
"65 156 CURVE SMOOTH"
);
},
{
closed = 1;
nodes = (
"440 299 LINE",
"452 409 OFFCURVE",
"512 464 OFFCURVE",
"618 464 CURVE SMOOTH",
"750 464 OFFCURVE",
"753 355 OFFCURVE",
"756 301 CURVE"
);
}
);
width = 853;
},
{
layerId = "7B29E906-CD8A-4887-A0AD-C831DD8203F3";
paths = (
{
closed = 1;
nodes = (
"104 357 LINE",
"103 357 OFFCURVE",
"160 387 OFFCURVE",
"255 387 CURVE SMOOTH",
"303 387 OFFCURVE",
"357 359 OFFCURVE",
"351 303 CURVE SMOOTH",
"346 280 LINE",
"325 296 OFFCURVE",
"269 331 OFFCURVE",
"180 322 CURVE SMOOTH",
"67 307 OFFCURVE",
"6 252 OFFCURVE",
"-5 144 CURVE SMOOTH",
"-15 47 OFFCURVE",
"65 -15 OFFCURVE",
"175 -15 CURVE SMOOTH",
"329 -15 OFFCURVE",
"394 76 OFFCURVE",
"397 79 CURVE",
"446 24 OFFCURVE",
"519 -15 OFFCURVE",
"607 -15 CURVE SMOOTH",
"718 -15 OFFCURVE",
"813 19 OFFCURVE",
"882 116 CURVE",
"756 186 LINE",
"709 140 OFFCURVE",
"681 126 OFFCURVE",
"621 126 CURVE SMOOTH",
"579 126 OFFCURVE",
"519 149 OFFCURVE",
"528 228 CURVE",
"900 228 LINE",
"902 234 OFFCURVE",
"902 245 OFFCURVE",
"903 248 CURVE SMOOTH",
"922 432 OFFCURVE",
"810 528 OFFCURVE",
"650 528 CURVE SMOOTH",
"585 528 OFFCURVE",
"519 506 OFFCURVE",
"463 464 CURVE",
"409 511 OFFCURVE",
"322 528 OFFCURVE",
"256 528 CURVE SMOOTH",
"129 528 OFFCURVE",
"61 474 OFFCURVE",
"61 474 CURVE"
);
},
{
closed = 1;
nodes = (
"174 202 OFFCURVE",
"221 221 OFFCURVE",
"262 219 CURVE SMOOTH",
"305 214 OFFCURVE",
"317 196 OFFCURVE",
"314 170 CURVE SMOOTH",
"311 136 OFFCURVE",
"277 108 OFFCURVE",
"236 103 CURVE SMOOTH",
"202 98 OFFCURVE",
"164 109 OFFCURVE",
"169 151 CURVE SMOOTH"
);
},
{
closed = 1;
nodes = (
"543 326 LINE",
"551 373 OFFCURVE",
"593 413 OFFCURVE",
"657 413 CURVE SMOOTH",
"706 413 OFFCURVE",
"737 388 OFFCURVE",
"739 334 CURVE"
);
}
);
width = 943;
}
);
rightKerningGroup = d;
unicode = 00E6;
},
{
glyphname = b;
lastChange = "2017-03-31 18:26:06 +0000";
layers = (
{
layerId = "A4E552E4-62BE-43BB-A58F-34F0EE3B77B8";
paths = (
{
closed = 1;
nodes = (
"305 528 OFFCURVE",
"252 475 OFFCURVE",
"236 444 CURVE",
"237 860 LINE",
"60 860 LINE",
"60 0 LINE",
"61 0 LINE",
"235 0 LINE",
"235 78 LINE",
"236 78 LINE",
"247 52 OFFCURVE",
"304 -15 OFFCURVE",
"404 -15 CURVE SMOOTH",
"554 -15 OFFCURVE",
"659 106 OFFCURVE",
"659 256 CURVE SMOOTH",
"659 406 OFFCURVE",
"554 528 OFFCURVE",
"404 528 CURVE SMOOTH"
);
},
{
closed = 1;
nodes = (
"285 136 OFFCURVE",
"239 186 OFFCURVE",
"239 256 CURVE SMOOTH",
"239 327 OFFCURVE",
"288 377 OFFCURVE",
"354 377 CURVE SMOOTH",
"421 377 OFFCURVE",
"474 327 OFFCURVE",
"474 256 CURVE SMOOTH",
"474 186 OFFCURVE",
"426 136 OFFCURVE",
"354 136 CURVE SMOOTH"
);
}
);
width = 683;
},
{
layerId = "7B60DD57-6012-4D0F-BD38-A72A4BAC0E9D";
paths = (
{
closed = 1;
nodes = (
"187 528 OFFCURVE",
"137 429 OFFCURVE",
"130 414 CURVE",
"131 860 LINE",
"60 860 LINE",
"60 0 LINE",
"61 0 LINE",
"129 0 LINE",
"129 108 LINE",
"130 108 LINE",
"135 95 OFFCURVE",
"186 -15 OFFCURVE",
"319 -15 CURVE SMOOTH",
"469 -15 OFFCURVE",
"549 106 OFFCURVE",
"549 256 CURVE SMOOTH",
"549 406 OFFCURVE",
"469 528 OFFCURVE",
"319 528 CURVE SMOOTH"
);
},
{
closed = 1;
nodes = (
"225 48 OFFCURVE",
"133 126 OFFCURVE",
"133 256 CURVE SMOOTH",
"133 387 OFFCURVE",
"228 465 OFFCURVE",
"314 465 CURVE SMOOTH",
"421 465 OFFCURVE",
"479 387 OFFCURVE",
"479 256 CURVE SMOOTH",
"479 126 OFFCURVE",
"426 48 OFFCURVE",
"314 48 CURVE SMOOTH"
);
}
);
width = 573;
},
{
components = (
{
name = a;
transform = "{-1, 0, 0, -1, 630, 513}";
}
);
layerId = "ADAA8221-C97A-4B4F-BB2A-36DAD3E45CA4";
paths = (
{
closed = 1;
nodes = (
"119 513 LINE",
"188 513 LINE",
"224 860 LINE",
"155 860 LINE"
);
}
);
width = 598;
},
{
layerId = "7B29E906-CD8A-4887-A0AD-C831DD8203F3";
paths = (
{
closed = 1;
nodes = (
"344 527 OFFCURVE",
"278 461 OFFCURVE",
"249 375 CURVE",
"301 861 LINE",
"124 861 LINE",
"34 0 LINE",
"35 0 LINE",
"142 -15 OFFCURVE",
"244 -26 OFFCURVE",
"376 -15 CURVE SMOOTH",
"526 -2 OFFCURVE",
"644 106 OFFCURVE",
"660 256 CURVE SMOOTH",
"675 406 OFFCURVE",
"593 527 OFFCURVE",
"443 527 CURVE SMOOTH"
);
},
{
closed = 1;
nodes = (
"228 137 LINE",
"234 194 LINE",
"241 265 OFFCURVE",
"288 358 OFFCURVE",
"366 358 CURVE SMOOTH",
"433 358 OFFCURVE",
"481 314 OFFCURVE",
"474 243 CURVE SMOOTH",
"467 173 OFFCURVE",
"416 136 OFFCURVE",
"341 136 CURVE"
);
}
);
width = 683;
},
{
associatedMasterId = "7B29E906-CD8A-4887-A0AD-C831DD8203F3";
layerId = "97DDCA77-DF3A-4CD5-8800-279A81F5EA4E";
name = "Mar 31 17, 18:51";
paths = (
{
closed = 1;
nodes = (
"314 528 OFFCURVE",
"257 478 OFFCURVE",
"238 447 CURVE",
"284 860 LINE",
"107 860 LINE",
"17 0 LINE",
"18 0 LINE",
"192 0 LINE",
"200 78 LINE",
"203 82 LINE",
"211 56 OFFCURVE",
"263 -15 OFFCURVE",
"366 -15 CURVE SMOOTH",
"513 -15 OFFCURVE",
"626 102 OFFCURVE",
"642 248 CURVE SMOOTH",
"658 402 OFFCURVE",
"563 528 OFFCURVE",
"409 528 CURVE SMOOTH"
);
},
{
closed = 1;
nodes = (
"252 136 OFFCURVE",
"215 182 OFFCURVE",
"222 248 CURVE SMOOTH",
"230 323 OFFCURVE",
"288 377 OFFCURVE",
"357 377 CURVE SMOOTH",
"421 377 OFFCURVE",
"465 331 OFFCURVE",
"458 264 CURVE SMOOTH",
"451 190 OFFCURVE",
"393 136 OFFCURVE",
"318 136 CURVE SMOOTH"
);
}
);
width = 683;
},
{
associatedMasterId = "ADAA8221-C97A-4B4F-BB2A-36DAD3E45CA4";
layerId = "52410504-F914-4449-8AA1-3C0AEA62F7A1";
name = "Mar 31 17, 19:23";
paths = (
{
closed = 1;
nodes = (
"198 528 OFFCURVE",
"138 430 OFFCURVE",
"130 415 CURVE",
"178 860 LINE",
"107 860 LINE",
"17 0 LINE",
"18 0 LINE",
"86 0 LINE",
"97 108 LINE",
"99 109 LINE",
"102 96 OFFCURVE",
"142 -15 OFFCURVE",
"277 -15 CURVE SMOOTH",
"425 -15 OFFCURVE",
"517 105 OFFCURVE",
"532 253 CURVE SMOOTH",
"548 405 OFFCURVE",
"480 528 OFFCURVE",
"328 528 CURVE SMOOTH"
);
},
{
closed = 1;
nodes = (
"185 48 OFFCURVE",
"103 125 OFFCURVE",
"116 253 CURVE SMOOTH",
"130 386 OFFCURVE",
"235 465 OFFCURVE",
"322 465 CURVE SMOOTH",
"428 465 OFFCURVE",
"476 388 OFFCURVE",
"463 259 CURVE SMOOTH",
"449 127 OFFCURVE",
"386 48 OFFCURVE",
"273 48 CURVE SMOOTH"
);
}
);
width = 573;
}
);
rightKerningGroup = b;
unicode = 0062;
},
{
glyphname = c;
lastChange = "2017-04-05 19:05:14 +0000";
layers = (
{
layerId = "A4E552E4-62BE-43BB-A58F-34F0EE3B77B8";
paths = (
{
closed = 1;
nodes = (
"253 136 OFFCURVE",
"200 186 OFFCURVE",
"200 257 CURVE SMOOTH",
"200 327 OFFCURVE",
"253 377 OFFCURVE",
"320 377 CURVE SMOOTH",
"346 377 OFFCURVE",
"369 370 OFFCURVE",
"388 356 CURVE",
"469 490 LINE",
"426 514 OFFCURVE",
"374 528 OFFCURVE",
"319 528 CURVE SMOOTH",
"146 528 OFFCURVE",
"30 415 OFFCURVE",
"30 258 CURVE SMOOTH",
"30 255 LINE SMOOTH",
"30 98 OFFCURVE",
"146 -15 OFFCURVE",
"319 -15 CURVE SMOOTH",
"374 -15 OFFCURVE",
"426 -1 OFFCURVE",
"469 23 CURVE",
"388 157 LINE",
"369 143 OFFCURVE",
"346 136 OFFCURVE",
"320 136 CURVE SMOOTH"
);
}
);
width = 487;
},
{
layerId = "7B60DD57-6012-4D0F-BD38-A72A4BAC0E9D";
paths = (
{
closed = 1;
nodes = (
"198 49 OFFCURVE",
"100 121 OFFCURVE",
"100 257 CURVE SMOOTH",
"100 392 OFFCURVE",
"198 464 OFFCURVE",
"281 464 CURVE SMOOTH",
"350 464 OFFCURVE",
"395 431 OFFCURVE",
"408 421 CURVE",
"441 475 LINE",
"424 490 OFFCURVE",
"381 528 OFFCURVE",
"280 528 CURVE SMOOTH",
"171 528 OFFCURVE",
"30 435 OFFCURVE",
"30 258 CURVE SMOOTH",
"30 255 LINE SMOOTH",
"30 78 OFFCURVE",
"171 -15 OFFCURVE",
"280 -15 CURVE SMOOTH",
"378 -15 OFFCURVE",
"430 23 OFFCURVE",
"444 31 CURVE",
"409 88 LINE",
"397 80 OFFCURVE",
"361 49 OFFCURVE",
"281 49 CURVE SMOOTH"
);
}
);
width = 462;
},
{
guideLines = (
{
angle = 84;
position = "{430, 253}";
}
);
layerId = "ADAA8221-C97A-4B4F-BB2A-36DAD3E45CA4";
paths = (
{
closed = 1;
nodes = (
"317 47 OFFCURVE",
"265 47 CURVE SMOOTH",
"140 47 OFFCURVE",
"70 133 OFFCURVE",
"83 254 CURVE SMOOTH",
"98 391 OFFCURVE",
"205 464 OFFCURVE",
"289 464 CURVE SMOOTH",
"365 464 OFFCURVE",
"427 436 OFFCURVE",
"439 426 CURVE",
"447 492 LINE",
"428 505 OFFCURVE",
"386 528 OFFCURVE",
"289 528 CURVE SMOOTH",
"182 528 OFFCURVE",
"33 436 OFFCURVE",
"14 259 CURVE SMOOTH",
"14 256 LINE SMOOTH",
"-2 101 OFFCURVE",
"97 -15 OFFCURVE",
"260 -15 CURVE SMOOTH",
"313 -15 OFFCURVE",
"365 -2 OFFCURVE",
"405 22 CURVE",
"410 87 LINE",
"370 63 OFFCURVE"
);
}
);
width = 462;
},
{
layerId = "7B29E906-CD8A-4887-A0AD-C831DD8203F3";
paths = (
{
closed = 1;
nodes = (
"195 142 OFFCURVE",
"205 257 CURVE SMOOTH",
"215 372 OFFCURVE",
"318 411 OFFCURVE",
"451 346 CURVE",
"470 506 LINE",
"436 521 OFFCURVE",
"397 528 OFFCURVE",
"342 528 CURVE SMOOTH",
"166 528 OFFCURVE",
"52 415 OFFCURVE",
"35 258 CURVE SMOOTH",
"35 255 LINE SMOOTH",
"18 98 OFFCURVE",
"123 -12 OFFCURVE",
"296 -15 CURVE SMOOTH",
"359 -16 OFFCURVE",
"395 -5 OFFCURVE",
"430 10 CURVE",
"445 158 LINE",
"316 106 OFFCURVE"
);
}
);
width = 487;
},
{
associatedMasterId = "7B29E906-CD8A-4887-A0AD-C831DD8203F3";
layerId = "0B8BE0AF-5912-4666-BE82-5F2680D09DDF";
name = "Mar 31 17, 18:51";
paths = (
{
closed = 1;
nodes = (
"220 136 OFFCURVE",
"176 182 OFFCURVE",
"183 249 CURVE SMOOTH",
"191 323 OFFCURVE",
"253 377 OFFCURVE",
"323 377 CURVE SMOOTH",
"346 377 OFFCURVE",
"368 372 OFFCURVE",
"385 358 CURVE",
"475 488 LINE",
"433 512 OFFCURVE",
"383 528 OFFCURVE",
"324 528 CURVE SMOOTH",
"155 528 OFFCURVE",
"31 419 OFFCURVE",
"14 262 CURVE SMOOTH",
"14 259 LINE SMOOTH",
"-3 102 OFFCURVE",
"105 -15 OFFCURVE",
"281 -15 CURVE SMOOTH",
"333 -15 OFFCURVE",
"385 -3 OFFCURVE",
"431 21 CURVE",
"357 159 LINE",
"338 145 OFFCURVE",
"313 136 OFFCURVE",
"284 136 CURVE SMOOTH"
);
}
);
width = 487;
}
);
leftKerningGroup = c;
rightKerningGroup = c;
unicode = 0063;
},
{
glyphname = d;
lastChange = "2017-04-05 18:24:30 +0000";
layers = (
{
components = (
{
alignment = -1;
name = b;
transform = "{-1, 0, 0, 1, 683, 0}";
}
);
layerId = "A4E552E4-62BE-43BB-A58F-34F0EE3B77B8";
width = 683;
},
{
components = (
{
alignment = -1;
name = b;
transform = "{-1, 0, 0, 1, 573, 0}";
}
);
layerId = "7B60DD57-6012-4D0F-BD38-A72A4BAC0E9D";
width = 573;
},
{
components = (
{
name = a;
transform = "{1, 0, 0, 1, -17, 0}";
}
);
layerId = "ADAA8221-C97A-4B4F-BB2A-36DAD3E45CA4";
paths = (
{
closed = 1;
nodes = (
"585 860 LINE",
"517 860 LINE",
"479 494 LINE",
"547 494 LINE"
);
}
);
width = 593;
},
{
background = {
paths = (
{
closed = 1;
nodes = (
"648 470 LINE",
"690 861 LINE",
"513 861 LINE",
"476 501 LINE"
);
},
{
closed = 1;
nodes = (
"247 155 OFFCURVE",
"204 201 OFFCURVE",
"211 271 CURVE SMOOTH",
"217 334 OFFCURVE",
"262 381 OFFCURVE",
"357 380 CURVE SMOOTH",
"459 379 LINE",
"452 317 LINE SMOOTH",
"444 246 OFFCURVE",
"396 155 OFFCURVE",
"323 155 CURVE SMOOTH"
);
},
{
closed = 1;
nodes = (
"501 514 LINE",
"207 554 OFFCURVE",
"49 459 OFFCURVE",
"24 251 CURVE SMOOTH",
"8 118 OFFCURVE",
"92 -12 OFFCURVE",
"242 -12 CURVE SMOOTH",
"332 -12 OFFCURVE",
"408 59 OFFCURVE",
"439 151 CURVE",
"423 -1 LINE",
"597 -1 LINE",
"598 -1 LINE",
"652 502 LINE"
);
}
);
};
components = (
{
name = a;
transform = "{1, 0, 0, 1, 19, 0}";
}
);
layerId = "7B29E906-CD8A-4887-A0AD-C831DD8203F3";
paths = (
{
closed = 1;
nodes = (
"652 503 LINE",
"690 861 LINE",
"513 861 LINE",
"476 501 LINE"
);
}
);
width = 683;
}
);
leftKerningGroup = d;
rightKerningGroup = d;
unicode = 0064;
},
{
glyphname = eth;
lastChange = "2017-03-31 17:48:43 +0000";
layers = (
{
layerId = "A4E552E4-62BE-43BB-A58F-34F0EE3B77B8";
paths = (
{
closed = 1;
nodes = (
"41 98 OFFCURVE",
"165 -15 OFFCURVE",
"350 -15 CURVE SMOOTH",
"527 -15 OFFCURVE",
"656 98 OFFCURVE",
"656 256 CURVE SMOOTH",
"656 498 OFFCURVE",
"564 651 OFFCURVE",
"430 745 CURVE",
"482 797 LINE",
"406 875 LINE",
"333 803 LINE",
"230 856 OFFCURVE",
"145 875 OFFCURVE",
"145 875 CURVE",
"103 725 LINE",
"103 725 OFFCURVE",
"151 714 OFFCURVE",
"214 684 CURVE",
"152 622 LINE",
"229 545 LINE",
"323 638 LINE",
"375 608 OFFCURVE",
"425 538 OFFCURVE",
"440 491 CURVE",
"425 507 OFFCURVE",
"398 528 OFFCURVE",
"299 528 CURVE SMOOTH",
"189 528 OFFCURVE",
"41 424 OFFCURVE",
"41 256 CURVE SMOOTH"
);
},
{
closed = 1;
nodes = (
"229 327 OFFCURVE",
"282 377 OFFCURVE",
"349 377 CURVE SMOOTH",
"413 377 OFFCURVE",
"465 329 OFFCURVE",
"468 261 CURVE",
"468 256 LINE SMOOTH",
"468 186 OFFCURVE",
"418 136 OFFCURVE",
"349 136 CURVE SMOOTH",
"277 136 OFFCURVE",
"229 186 OFFCURVE",
"229 256 CURVE SMOOTH"
);
}
);
width = 684;
},
{
layerId = "7B60DD57-6012-4D0F-BD38-A72A4BAC0E9D";
paths = (
{
closed = 1;
nodes = (
"41 98 OFFCURVE",
"145 -15 OFFCURVE",
"320 -15 CURVE SMOOTH",
"497 -15 OFFCURVE",
"596 98 OFFCURVE",
"596 256 CURVE SMOOTH",
"596 498 OFFCURVE",
"501 645 OFFCURVE",
"338 730 CURVE",
"418 803 LINE",
"367 847 LINE",
"280 755 LINE",
"241 784 OFFCURVE",
"133 816 OFFCURVE",
"133 816 CURVE",
"111 753 LINE",
"111 753 OFFCURVE",
"174 740 OFFCURVE",
"234 706 CURVE",
"153 624 LINE",
"198 581 LINE",
"295 684 LINE",
"390 638 OFFCURVE",
"461 551 OFFCURVE",
"487 468 CURVE",
"472 484 OFFCURVE",
"415 530 OFFCURVE",
"292 528 CURVE SMOOTH",
"178 526 OFFCURVE",
"41 424 OFFCURVE",
"41 256 CURVE SMOOTH"
);
},
{
closed = 1;
nodes = (
"109 387 OFFCURVE",
"192 466 OFFCURVE",
"319 466 CURVE SMOOTH",
"453 466 OFFCURVE",
"525 394 OFFCURVE",
"528 261 CURVE",
"528 256 LINE SMOOTH",
"528 129 OFFCURVE",
"458 46 OFFCURVE",
"319 46 CURVE SMOOTH",
"187 46 OFFCURVE",
"109 126 OFFCURVE",
"109 256 CURVE SMOOTH"
);
}
);
width = 624;
},
{
layerId = "ADAA8221-C97A-4B4F-BB2A-36DAD3E45CA4";
paths = (
{
closed = 1;
nodes = (
"8 99 OFFCURVE",
"101 -15 OFFCURVE",
"278 -15 CURVE SMOOTH",
"453 -15 OFFCURVE",
"563 97 OFFCURVE",
"579 253 CURVE SMOOTH",
"605 497 OFFCURVE",
"524 644 OFFCURVE",
"370 729 CURVE",
"459 803 LINE",
"412 847 LINE",
"314 754 LINE",
"279 783 OFFCURVE",
"176 815 OFFCURVE",
"176 815 CURVE",
"148 753 LINE",
"148 753 OFFCURVE",
"210 741 OFFCURVE",
"266 707 CURVE",
"175 624 LINE",
"217 581 LINE",
"325 685 LINE",
"415 639 OFFCURVE",
"476 552 OFFCURVE",
"492 468 CURVE",
"478 483 OFFCURVE",
"426 530 OFFCURVE",
"301 528 CURVE SMOOTH",
"189 526 OFFCURVE",
"42 425 OFFCURVE",
"25 259 CURVE SMOOTH"
);
},
{
closed = 1;
nodes = (
"106 386 OFFCURVE",
"199 466 OFFCURVE",
"327 466 CURVE SMOOTH",
"460 466 OFFCURVE",
"523 395 OFFCURVE",
"512 262 CURVE",
"512 257 LINE SMOOTH",
"498 130 OFFCURVE",
"418 46 OFFCURVE",
"278 46 CURVE SMOOTH",
"147 46 OFFCURVE",
"79 125 OFFCURVE",
"92 253 CURVE SMOOTH"
);
}
);
width = 624;
},
{
layerId = "7B29E906-CD8A-4887-A0AD-C831DD8203F3";
paths = (
{
closed = 1;
nodes = (
"8 102 OFFCURVE",
"124 -15 OFFCURVE",
"312 -15 CURVE SMOOTH",
"486 -15 OFFCURVE",
"623 94 OFFCURVE",
"639 248 CURVE SMOOTH",
"665 494 OFFCURVE",
"586 649 OFFCURVE",
"462 743 CURVE",
"522 797 LINE",
"452 875 LINE",
"370 801 LINE",
"273 854 OFFCURVE",
"194 871 OFFCURVE",
"194 871 CURVE",
"138 725 LINE",
"139 725 OFFCURVE",
"186 716 OFFCURVE",
"246 686 CURVE",
"174 622 LINE",
"245 545 LINE",
"351 640 LINE",
"399 610 OFFCURVE",
"440 542 OFFCURVE",
"447 492 CURVE",
"432 505 OFFCURVE",
"407 528 OFFCURVE",
"304 528 CURVE SMOOTH",
"198 528 OFFCURVE",
"43 428 OFFCURVE",
"25 264 CURVE SMOOTH"
);
},
{
closed = 1;
nodes = (
"220 323 OFFCURVE",
"282 377 OFFCURVE",
"352 377 CURVE SMOOTH",
"413 377 OFFCURVE",
"457 333 OFFCURVE",
"453 265 CURVE",
"452 260 LINE SMOOTH",
"445 190 OFFCURVE",
"385 136 OFFCURVE",
"313 136 CURVE SMOOTH",
"244 136 OFFCURVE",
"205 182 OFFCURVE",
"212 248 CURVE SMOOTH"
);
}
);
width = 684;
}
);
rightKerningGroup = d;
unicode = 00F0;
},
{
glyphname = dcroat;
lastChange = "2017-03-31 17:48:43 +0000";
layers = (
{
components = (
{
name = d;
}
);
layerId = "A4E552E4-62BE-43BB-A58F-34F0EE3B77B8";
paths = (
{
closed = 1;
nodes = (
"683 628 LINE",
"683 742 LINE",
"321 742 LINE",
"321 628 LINE"
);
}
);
width = 683;
},
{
components = (
{
name = d;
}
);
layerId = "7B60DD57-6012-4D0F-BD38-A72A4BAC0E9D";
paths = (
{
closed = 1;
nodes = (
"583 648 LINE",
"583 702 LINE",
"301 702 LINE",
"301 648 LINE"
);
}
);
width = 583;
},
{
components = (
{
name = d;
}
);
layerId = "ADAA8221-C97A-4B4F-BB2A-36DAD3E45CA4";
paths = (
{
closed = 1;
nodes = (
"608 648 LINE",
"613 702 LINE",
"331 702 LINE",
"326 648 LINE"
);
}
);
width = 583;
},
{
components = (
{
name = d;
}
);
layerId = "7B29E906-CD8A-4887-A0AD-C831DD8203F3";
paths = (
{
closed = 1;
nodes = (
"706 628 LINE",
"718 742 LINE",
"356 742 LINE",
"344 628 LINE"
);
}
);
width = 683;
}
);
rightKerningGroup = d;
unicode = 0111;
},
{
glyphname = e;
lastChange = "2017-03-31 18:01:39 +0000";
layers = (
{
layerId = "A4E552E4-62BE-43BB-A58F-34F0EE3B77B8";
paths = (
{
closed = 1;
nodes = (
"561 222 LINE",
"562 228 OFFCURVE",
"562 249 OFFCURVE",
"562 256 CURVE SMOOTH",
"562 436 OFFCURVE",
"451 528 OFFCURVE",
"295 528 CURVE SMOOTH",
"130 528 OFFCURVE",
"23 412 OFFCURVE",
"23 262 CURVE SMOOTH",
"23 113 OFFCURVE",
"136 -15 OFFCURVE",
"291 -15 CURVE SMOOTH",
"435 -15 OFFCURVE",
"495 31 OFFCURVE",
"553 109 CURVE",
"419 186 LINE",
"381 139 OFFCURVE",
"357 126 OFFCURVE",
"300 126 CURVE SMOOTH",
"255 126 OFFCURVE",
"198 160 OFFCURVE",
"198 222 CURVE"
);
},
{
closed = 1;
nodes = (
"203 330 LINE",
"204 375 OFFCURVE",
"248 413 OFFCURVE",
"299 413 CURVE SMOOTH",
"350 413 OFFCURVE",
"384 371 OFFCURVE",
"386 330 CURVE"
);
}
);
width = 593;
},
{
layerId = "7B60DD57-6012-4D0F-BD38-A72A4BAC0E9D";
paths = (
{
closed = 1;
nodes = (
"511 252 LINE",
"512 258 OFFCURVE",
"512 269 OFFCURVE",
"512 276 CURVE SMOOTH",
"512 426 OFFCURVE",
"401 528 OFFCURVE",
"275 528 CURVE SMOOTH",
"133 528 OFFCURVE",
"23 413 OFFCURVE",
"23 263 CURVE SMOOTH",
"23 103 OFFCURVE",
"123 -15 OFFCURVE",
"276 -15 CURVE SMOOTH",
"390 -15 OFFCURVE",
"451 28 OFFCURVE",
"503 109 CURVE",
"442 144 LINE",
"421 112 OFFCURVE",
"383 49 OFFCURVE",
"280 49 CURVE SMOOTH",
"165 49 OFFCURVE",
"92 143 OFFCURVE",
"92 252 CURVE"
);
},
{
closed = 1;
nodes = (
"96 310 LINE",
"97 355 OFFCURVE",
"158 464 OFFCURVE",
"279 464 CURVE SMOOTH",
"394 464 OFFCURVE",
"435 351 OFFCURVE",
"437 310 CURVE"
);
}
);
width = 543;
},
{
layerId = "ADAA8221-C97A-4B4F-BB2A-36DAD3E45CA4";
paths = (
{
closed = 1;
nodes = (
"494 251 LINE",
"496 257 OFFCURVE",
"497 268 OFFCURVE",
"497 273 CURVE SMOOTH",
"513 425 OFFCURVE",
"412 528 OFFCURVE",
"284 528 CURVE SMOOTH",
"144 528 OFFCURVE",
"23 414 OFFCURVE",
"8 266 CURVE SMOOTH",
"-3 164 OFFCURVE",
"28 80 OFFCURVE",
"91 31 CURVE SMOOTH",
"179 -38 OFFCURVE",
"351 -26 OFFCURVE",
"456 26 CURVE",
"460 87 LINE",
"402 59 OFFCURVE",
"338 44 OFFCURVE",
"278 44 CURVE SMOOTH",
"154 44 OFFCURVE",
"57 116 OFFCURVE",
"75 251 CURVE"
);
},
{
closed = 1;
nodes = (
"85 309 LINE",
"91 354 OFFCURVE",
"165 464 OFFCURVE",
"287 464 CURVE SMOOTH",
"401 464 OFFCURVE",
"429 352 OFFCURVE",
"426 311 CURVE"
);
}
);
width = 543;
},
{
layerId = "7B29E906-CD8A-4887-A0AD-C831DD8203F3";
paths = (
{
closed = 1;
nodes = (
"540 222 LINE",
"541 228 OFFCURVE",
"543 249 OFFCURVE",
"544 256 CURVE SMOOTH",
"570 435 OFFCURVE",
"462 528 OFFCURVE",
"306 528 CURVE SMOOTH",
"141 528 OFFCURVE",
"28 418 OFFCURVE",
"12 268 CURVE SMOOTH",
"-15 18 OFFCURVE",
"226 -74 OFFCURVE",
"492 13 CURVE",
"506 162 LINE",
"394 113 OFFCURVE",
"185 112 OFFCURVE",
"185 222 CURVE"
);
},
{
closed = 1;
nodes = (
"193 332 LINE",
"199 377 OFFCURVE",
"247 415 OFFCURVE",
"298 415 CURVE SMOOTH",
"349 415 OFFCURVE",
"378 373 OFFCURVE",
"376 332 CURVE"
);
}
);
width = 593;
},
{
associatedMasterId = "7B29E906-CD8A-4887-A0AD-C831DD8203F3";
layerId = "A19E5554-B48D-410F-A776-9E3917616812";
name = "Mar 31 17, 18:51";
paths = (
{
closed = 1;
nodes = (
"541 218 LINE",
"543 224 OFFCURVE",
"544 245 OFFCURVE",
"545 248 CURVE SMOOTH",
"564 432 OFFCURVE",
"460 528 OFFCURVE",
"300 528 CURVE SMOOTH",
"139 528 OFFCURVE",
"23 416 OFFCURVE",
"8 270 CURVE SMOOTH",
"-8 117 OFFCURVE",
"95 -15 OFFCURVE",
"253 -15 CURVE SMOOTH",
"394 -15 OFFCURVE",
"457 28 OFFCURVE",
"523 106 CURVE",
"393 189 LINE",
"350 142 OFFCURVE",
"323 126 OFFCURVE",
"263 126 CURVE SMOOTH",
"221 126 OFFCURVE",
"171 156 OFFCURVE",
"178 218 CURVE"
);
},
{
closed = 1;
nodes = (
"194 326 LINE",
"200 371 OFFCURVE",
"252 413 OFFCURVE",
"306 413 CURVE SMOOTH",
"354 413 OFFCURVE",
"380 375 OFFCURVE",
"378 334 CURVE"
);
}
);
width = 593;
}
);
leftKerningGroup = c;
note = " ";
rightKerningGroup = c;
unicode = 0065;
},
{
glyphname = f;
lastChange = "2017-03-31 18:47:18 +0000";
layers = (
{
layerId = "A4E552E4-62BE-43BB-A58F-34F0EE3B77B8";
paths = (
{
closed = 1;
nodes = (
"6 378 LINE",
"90 378 LINE",
"90 0 LINE",
"267 0 LINE",
"267 378 LINE",
"375 378 LINE",
"375 513 LINE",
"267 513 LINE",
"267 627 LINE SMOOTH",
"267 698 OFFCURVE",
"300 718 OFFCURVE",
"327 718 CURVE SMOOTH",
"356 718 OFFCURVE",
"369 704 OFFCURVE",
"369 704 CURVE",
"422 843 LINE",
"422 843 OFFCURVE",
"394 875 OFFCURVE",
"311 875 CURVE SMOOTH",
"193 875 OFFCURVE",
"90 792 OFFCURVE",
"90 642 CURVE SMOOTH",
"90 513 LINE",
"6 513 LINE"
);
}
);
width = 375;
},
{
layerId = "7B60DD57-6012-4D0F-BD38-A72A4BAC0E9D";
paths = (
{
closed = 1;
nodes = (
"6 448 LINE",
"120 448 LINE",
"120 0 LINE",
"187 0 LINE",
"187 448 LINE",
"338 448 LINE",
"338 513 LINE",
"187 513 LINE",
"187 617 LINE SMOOTH",
"187 768 OFFCURVE",
"238 813 OFFCURVE",
"285 813 CURVE SMOOTH",
"334 813 OFFCURVE",
"357 783 OFFCURVE",
"357 783 CURVE",
"383 847 LINE",
"383 847 OFFCURVE",
"349 875 OFFCURVE",
"286 875 CURVE SMOOTH",
"205 875 OFFCURVE",
"120 802 OFFCURVE",
"120 642 CURVE SMOOTH",
"120 513 LINE",
"6 513 LINE"
);
}
);
width = 336;
},
{
layerId = "ADAA8221-C97A-4B4F-BB2A-36DAD3E45CA4";
paths = (
{
closed = 1;
nodes = (
"10 448 LINE",
"124 448 LINE",
"50 -260 LINE",
"117 -260 LINE",
"191 448 LINE",
"342 448 LINE",
"349 513 LINE",
"198 513 LINE",
"208 616 LINE SMOOTH",
"219 722 OFFCURVE",
"254 813 OFFCURVE",
"340 813 CURVE SMOOTH",
"356 813 OFFCURVE",
"373 811 OFFCURVE",
"393 808 CURVE",
"400 871 LINE",
"386 874 OFFCURVE",
"368 877 OFFCURVE",
"348 877 CURVE SMOOTH",
"229 877 OFFCURVE",
"158 775 OFFCURVE",
"144 643 CURVE SMOOTH",
"131 513 LINE",
"17 513 LINE"
);
}
);
width = 336;
},
{
layerId = "7B29E906-CD8A-4887-A0AD-C831DD8203F3";
paths = (
{
closed = 1;
nodes = (
"13 378 LINE",
"97 378 LINE",
"29 -264 LINE",
"206 -264 LINE",
"274 378 LINE",
"382 378 LINE",
"396 513 LINE",
"288 513 LINE",
"300 627 LINE SMOOTH",
"308 698 OFFCURVE",
"343 718 OFFCURVE",
"370 718 CURVE SMOOTH",
"391 718 OFFCURVE",
"415 718 OFFCURVE",
"424 717 CURVE",
"441 871 LINE",
"441 871 OFFCURVE",
"453 875 OFFCURVE",
"370 875 CURVE SMOOTH",
"252 875 OFFCURVE",
"141 792 OFFCURVE",
"125 642 CURVE SMOOTH",
"111 513 LINE",
"27 513 LINE"
);
}
);
width = 375;
},
{
associatedMasterId = "7B29E906-CD8A-4887-A0AD-C831DD8203F3";
layerId = "B9335259-DE72-48FA-BAB4-C1EE1F869B1E";
name = "Mar 31 17, 18:52";
paths = (
{
closed = 1;
nodes = (
"2 378 LINE",
"86 378 LINE",
"47 0 LINE",
"224 0 LINE",
"263 378 LINE",
"371 378 LINE",
"386 513 LINE",
"278 513 LINE",
"289 623 LINE SMOOTH",
"297 694 OFFCURVE",
"336 718 OFFCURVE",
"366 718 CURVE SMOOTH",
"392 718 OFFCURVE",
"399 708 OFFCURVE",
"399 708 CURVE",
"465 843 LINE",
"464 843 OFFCURVE",
"439 875 OFFCURVE",
"353 875 CURVE SMOOTH",
"238 875 OFFCURVE",
"130 796 OFFCURVE",
"115 646 CURVE SMOOTH",
"101 513 LINE",
"17 513 LINE"
);
}
);
width = 375;
}
);
note = " ";
rightKerningGroup = d;
unicode = 0066;
},
{
glyphname = g;
lastChange = "2017-03-31 18:37:56 +0000";
layers = (
{
layerId = "A4E552E4-62BE-43BB-A58F-34F0EE3B77B8";
paths = (
{
closed = 1;
nodes = (
"448 0 LINE",
"448 0 LINE SMOOTH",
"448 -91 OFFCURVE",
"392 -125 OFFCURVE",
"321 -125 CURVE SMOOTH",
"244 -125 OFFCURVE",
"201 -86 OFFCURVE",
"182 -55 CURVE",
"38 -142 LINE",
"111 -247 OFFCURVE",
"214 -275 OFFCURVE",
"321 -275 CURVE SMOOTH",
"496 -275 OFFCURVE",
"623 -186 OFFCURVE",
"623 -14 CURVE SMOOTH",
"623 0 LINE"
);
},
{
closed = 1;
nodes = (
"23 106 OFFCURVE",
"128 -15 OFFCURVE",
"278 -15 CURVE SMOOTH",
"378 -15 OFFCURVE",
"435 52 OFFCURVE",
"446 78 CURVE",
"448 78 LINE",
"448 0 LINE",
"623 0 LINE",
"623 513 LINE",
"446 513 LINE",
"446 444 LINE",
"430 475 OFFCURVE",
"377 528 OFFCURVE",
"278 528 CURVE SMOOTH",
"128 528 OFFCURVE",
"23 406 OFFCURVE",
"23 256 CURVE SMOOTH"
);
},
{
closed = 1;
nodes = (
"211 327 OFFCURVE",
"264 377 OFFCURVE",
"331 377 CURVE SMOOTH",
"397 377 OFFCURVE",
"446 327 OFFCURVE",
"446 256 CURVE SMOOTH",
"446 186 OFFCURVE",
"400 136 OFFCURVE",
"331 136 CURVE SMOOTH",
"259 136 OFFCURVE",
"211 186 OFFCURVE",
"211 256 CURVE SMOOTH"
);
}
);
width = 683;
},
{
layerId = "7B60DD57-6012-4D0F-BD38-A72A4BAC0E9D";
paths = (
{
closed = 1;
nodes = (
"470 -1 LINE",
"470 -1 LINE SMOOTH",
"470 -109 OFFCURVE",
"422 -211 OFFCURVE",
"285 -211 CURVE SMOOTH",
"148 -211 OFFCURVE",
"124 -150 OFFCURVE",
"111 -130 CURVE",
"44 -168 LINE",
"76 -222 OFFCURVE",
"158 -275 OFFCURVE",
"285 -275 CURVE SMOOTH",
"420 -275 OFFCURVE",
"538 -184 OFFCURVE",
"538 -15 CURVE SMOOTH",
"538 -1 LINE"
);
},
{
closed = 1;
nodes = (
"23 86 OFFCURVE",
"131 -15 OFFCURVE",
"271 -15 CURVE SMOOTH",
"391 -15 OFFCURVE",
"462 62 OFFCURVE",
"468 91 CURVE",
"470 91 LINE",
"470 -1 LINE",
"538 -1 LINE",
"538 513 LINE",
"468 513 LINE",
"468 424 LINE",
"461 457 OFFCURVE",
"390 528 OFFCURVE",
"271 528 CURVE SMOOTH",
"131 528 OFFCURVE",
"23 426 OFFCURVE",
"23 256 CURVE SMOOTH"
);
},
{
closed = 1;
nodes = (
"93 387 OFFCURVE",
"172 464 OFFCURVE",
"271 464 CURVE SMOOTH",
"380 464 OFFCURVE",
"468 377 OFFCURVE",
"468 256 CURVE SMOOTH",
"468 136 OFFCURVE",
"383 49 OFFCURVE",
"271 49 CURVE SMOOTH",
"172 49 OFFCURVE",
"93 126 OFFCURVE",
"93 256 CURVE SMOOTH"
);
}
);
width = 598;
},
{
components = (
{
name = a;
transform = "{1, 0, 0, 1, 1, 0}";
}
);
guideLines = (
{
angle = 84;
position = "{549, -41}";
}
);
layerId = "ADAA8221-C97A-4B4F-BB2A-36DAD3E45CA4";
paths = (
{
closed = 1;
nodes = (
"443 0 LINE",
"432 -97 OFFCURVE",
"399 -160 OFFCURVE",
"321 -194 CURVE SMOOTH",
"252 -224 OFFCURVE",
"142 -213 OFFCURVE",
"62 -174 CURVE",
"55 -241 LINE",
"159 -283 OFFCURVE",
"266 -284 OFFCURVE",
"349 -250 CURVE SMOOTH",
"440 -213 OFFCURVE",
"498 -132 OFFCURVE",
"512 0 CURVE"
);
}
);
width = 598;
},
{
layerId = "7B29E906-CD8A-4887-A0AD-C831DD8203F3";
paths = (
{
closed = 1;
nodes = (
"217 346 OFFCURVE",
"275 379 OFFCURVE",
"342 379 CURVE SMOOTH",
"458 379 LINE",
"454 337 LINE SMOOTH",
"442 215 OFFCURVE",
"384 155 OFFCURVE",
"315 155 CURVE SMOOTH",
"243 155 OFFCURVE",
"203 205 OFFCURVE",
"210 275 CURVE SMOOTH"
);
},
{
closed = 1;
nodes = (
"9 106 OFFCURVE",
"107 -23 OFFCURVE",
"257 -11 CURVE SMOOTH",
"385 -1 OFFCURVE",
"429 126 OFFCURVE",
"439 155 CURVE",
"434 116 OFFCURVE",
"432 79 OFFCURVE",
"428 40 CURVE SMOOTH",
"414 -71 OFFCURVE",
"357 -118 OFFCURVE",
"286 -125 CURVE SMOOTH",
"200 -134 OFFCURVE",
"121 -109 OFFCURVE",
"71 -79 CURVE",
"54 -233 LINE",
"102 -257 OFFCURVE",
"163 -275 OFFCURVE",
"270 -275 CURVE SMOOTH",
"445 -275 OFFCURVE",
"577 -192 OFFCURVE",
"599 22 CURVE SMOOTH",
"650 511 LINE",
"629 514 OFFCURVE",
"442 535 OFFCURVE",
"316 521 CURVE SMOOTH",
"132 501 OFFCURVE",
"41 406 OFFCURVE",
"25 256 CURVE SMOOTH"
);
}
);
width = 683;
},
{
associatedMasterId = "7B29E906-CD8A-4887-A0AD-C831DD8203F3";
layerId = "321E305C-923D-4B03-9A44-2885AF1C8D0B";
name = "Mar 31 17, 18:52";
paths = (
{
closed = 1;
nodes = (
"405 0 LINE",
"405 4 LINE SMOOTH",
"395 -87 OFFCURVE",
"332 -125 OFFCURVE",
"258 -125 CURVE SMOOTH",
"184 -125 OFFCURVE",
"146 -89 OFFCURVE",
"131 -58 CURVE",
"-19 -139 LINE",
"44 -244 OFFCURVE",
"145 -275 OFFCURVE",
"256 -275 CURVE SMOOTH",
"427 -275 OFFCURVE",
"560 -190 OFFCURVE",
"578 -18 CURVE SMOOTH",
"580 0 LINE"
);
},
{
closed = 1;
nodes = (
"-9 110 OFFCURVE",
"87 -15 OFFCURVE",
"240 -15 CURVE SMOOTH",
"337 -15 OFFCURVE",
"398 48 OFFCURVE",
"412 74 CURVE",
"414 78 LINE",
"405 0 LINE",
"580 0 LINE",
"634 513 LINE",
"457 513 LINE",
"447 441 LINE",
"435 472 OFFCURVE",
"386 528 OFFCURVE",
"283 528 CURVE SMOOTH",
"137 528 OFFCURVE",
"23 410 OFFCURVE",
"7 264 CURVE SMOOTH"
);
},
{
closed = 1;
nodes = (
"202 323 OFFCURVE",
"264 377 OFFCURVE",
"334 377 CURVE SMOOTH",
"397 377 OFFCURVE",
"437 331 OFFCURVE",
"430 264 CURVE SMOOTH",
"423 190 OFFCURVE",
"367 136 OFFCURVE",
"295 136 CURVE SMOOTH",
"226 136 OFFCURVE",
"187 182 OFFCURVE",
"194 248 CURVE SMOOTH"
);
}
);
width = 683;
}
);
leftKerningGroup = g;
rightKerningGroup = g;
unicode = 0067;
},
{
glyphname = h;
lastChange = "2017-03-31 17:52:49 +0000";
layers = (
{
layerId = "A4E552E4-62BE-43BB-A58F-34F0EE3B77B8";
paths = (
{
closed = 1;
nodes = (
"321 528 OFFCURVE",
"253 479 OFFCURVE",
"237 435 CURVE",
"237 860 LINE",
"60 860 LINE",
"60 0 LINE",
"237 0 LINE",
"237 270 LINE SMOOTH",
"237 341 OFFCURVE",
"289 390 OFFCURVE",
"342 390 CURVE SMOOTH",
"397 390 OFFCURVE",
"434 362 OFFCURVE",
"434 293 CURVE SMOOTH",
"434 0 LINE",
"611 0 LINE",
"611 338 LINE SMOOTH",
"611 486 OFFCURVE",
"500 528 OFFCURVE",
"406 528 CURVE SMOOTH"
);
}
);
width = 661;
},
{
layerId = "7B60DD57-6012-4D0F-BD38-A72A4BAC0E9D";
paths = (
{
closed = 1;
nodes = (
"241 528 OFFCURVE",
"155 459 OFFCURVE",
"139 405 CURVE",
"139 860 LINE",
"70 860 LINE",
"70 0 LINE",
"139 0 LINE",
"139 270 LINE SMOOTH",
"139 381 OFFCURVE",
"249 464 OFFCURVE",
"322 464 CURVE SMOOTH",
"397 464 OFFCURVE",
"433 422 OFFCURVE",
"433 293 CURVE SMOOTH",
"433 0 LINE",
"501 0 LINE",
"501 338 LINE SMOOTH",
"501 466 OFFCURVE",
"430 528 OFFCURVE",
"336 528 CURVE SMOOTH"
);
}
);
width = 561;
},
{
layerId = "ADAA8221-C97A-4B4F-BB2A-36DAD3E45CA4";
paths = (
{
closed = 1;
nodes = (
"252 528 OFFCURVE",
"160 460 OFFCURVE",
"138 406 CURVE",
"186 860 LINE",
"117 860 LINE",
"27 0 LINE",
"96 0 LINE",
"124 269 LINE SMOOTH",
"136 380 OFFCURVE",
"256 464 OFFCURVE",
"330 464 CURVE SMOOTH",
"404 464 OFFCURVE",
"434 423 OFFCURVE",
"421 294 CURVE SMOOTH",
"390 0 LINE",
"458 0 LINE",
"493 337 LINE SMOOTH",
"506 465 OFFCURVE",
"441 528 OFFCURVE",
"345 528 CURVE SMOOTH"
);
}
);
width = 561;
},
{
layerId = "7B29E906-CD8A-4887-A0AD-C831DD8203F3";
paths = (
{
closed = 1;
nodes = (
"369 526 OFFCURVE",
"292 502 OFFCURVE",
"250 371 CURVE",
"301 860 LINE",
"124 860 LINE",
"33 0 LINE",
"210 0 LINE",
"226 151 LINE SMOOTH",
"239 274 OFFCURVE",
"292 366 OFFCURVE",
"367 366 CURVE SMOOTH",
"422 366 OFFCURVE",
"441 338 OFFCURVE",
"434 269 CURVE SMOOTH",
"407 0 LINE",
"584 0 LINE",
"620 338 LINE SMOOTH",
"635 486 OFFCURVE",
"551 526 OFFCURVE",
"457 526 CURVE SMOOTH"
);
}
);
width = 661;
},
{
associatedMasterId = "7B29E906-CD8A-4887-A0AD-C831DD8203F3";
layerId = "6F8B9796-C7CD-4FEC-89AB-A26B526BC5E1";
name = "Mar 31 17, 18:52";
paths = (
{
closed = 1;
nodes = (
"330 528 OFFCURVE",
"259 483 OFFCURVE",
"239 439 CURVE",
"284 860 LINE",
"107 860 LINE",
"17 0 LINE",
"194 0 LINE",
"222 266 LINE SMOOTH",
"229 337 OFFCURVE",
"290 390 OFFCURVE",
"347 390 CURVE SMOOTH",
"398 390 OFFCURVE",
"429 366 OFFCURVE",
"422 297 CURVE SMOOTH",
"391 0 LINE",
"568 0 LINE",
"603 334 LINE SMOOTH",
"618 482 OFFCURVE",
"509 528 OFFCURVE",
"411 528 CURVE SMOOTH"
);
}
);
width = 661;
}
);
note = " ";
rightKerningGroup = b;
unicode = 0068;
},
{
glyphname = hbar;
lastChange = "2017-03-31 17:48:43 +0000";
layers = (
{
components = (
{
name = h;
}
);
layerId = "7B60DD57-6012-4D0F-BD38-A72A4BAC0E9D";
paths = (
{
closed = 1;
nodes = (
"284 648 LINE",
"284 702 LINE",
"2 702 LINE",
"2 648 LINE"
);
}
);
width = 561;
},
{
components = (
{
name = h;
}
);
layerId = "A4E552E4-62BE-43BB-A58F-34F0EE3B77B8";
paths = (
{
closed = 1;
nodes = (
"364 628 LINE",
"364 742 LINE",
"2 742 LINE",
"2 628 LINE"
);
}
);
width = 661;
},
{
components = (
{
name = h;
}
);
layerId = "ADAA8221-C97A-4B4F-BB2A-36DAD3E45CA4";
paths = (
{
closed = 1;
nodes = (
"309 648 LINE",
"314 702 LINE",
"32 702 LINE",
"27 648 LINE"
);
}
);
width = 561;
},
{
components = (
{
name = h;
}
);
layerId = "7B29E906-CD8A-4887-A0AD-C831DD8203F3";
paths = (
{
closed = 1;
nodes = (
"387 628 LINE",
"399 742 LINE",
"37 742 LINE",
"25 628 LINE"
);
}
);
width = 661;
}
);
unicode = 0127;
},
{
glyphname = i;
lastChange = "2017-03-31 17:48:43 +0000";
layers = (
{
layerId = "A4E552E4-62BE-43BB-A58F-34F0EE3B77B8";
paths = (
{
closed = 1;
nodes = (
"237 0 LINE",
"237 513 LINE",
"60 513 LINE",
"60 0 LINE"
);
},
{
closed = 1;
nodes = (
"209 620 OFFCURVE",
"256 667 OFFCURVE",
"256 725 CURVE SMOOTH",
"256 783 OFFCURVE",
"209 830 OFFCURVE",
"151 830 CURVE SMOOTH",
"93 830 OFFCURVE",
"46 783 OFFCURVE",
"46 725 CURVE SMOOTH",
"46 667 OFFCURVE",
"93 620 OFFCURVE",
"151 620 CURVE SMOOTH"
);
}
);
width = 302;
},
{
layerId = "7B60DD57-6012-4D0F-BD38-A72A4BAC0E9D";
paths = (
{
closed = 1;
nodes = (
"136 0 LINE",
"136 513 LINE",
"69 513 LINE",
"69 0 LINE"
);
},
{
closed = 1;
nodes = (
"134 722 OFFCURVE",
"158 746 OFFCURVE",
"158 776 CURVE SMOOTH",
"158 806 OFFCURVE",
"134 830 OFFCURVE",
"104 830 CURVE SMOOTH",
"74 830 OFFCURVE",
"50 806 OFFCURVE",
"50 776 CURVE SMOOTH",
"50 746 OFFCURVE",
"74 722 OFFCURVE",
"104 722 CURVE SMOOTH"
);
}
);
width = 208;
},
{
layerId = "ADAA8221-C97A-4B4F-BB2A-36DAD3E45CA4";
paths = (
{
closed = 1;
nodes = (
"93 0 LINE",
"147 513 LINE",
"80 513 LINE",
"26 0 LINE"
);
},
{
closed = 1;
nodes = (
"168 722 OFFCURVE",
"193 745 OFFCURVE",
"196 773 CURVE SMOOTH",
"199 805 OFFCURVE",
"176 830 OFFCURVE",
"145 830 CURVE SMOOTH",
"116 830 OFFCURVE",
"92 807 OFFCURVE",
"88 779 CURVE SMOOTH",
"85 747 OFFCURVE",
"108 722 OFFCURVE",
"139 722 CURVE SMOOTH"
);
}
);
width = 208;
},
{
layerId = "7B29E906-CD8A-4887-A0AD-C831DD8203F3";
paths = (
{
closed = 1;
nodes = (
"194 0 LINE",
"248 513 LINE",
"71 513 LINE",
"17 0 LINE"
);
},
{
closed = 1;
nodes = (
"234 620 OFFCURVE",
"282 663 OFFCURVE",
"288 717 CURVE SMOOTH",
"295 779 OFFCURVE",
"249 830 OFFCURVE",
"188 830 CURVE SMOOTH",
"133 830 OFFCURVE",
"85 787 OFFCURVE",
"80 733 CURVE SMOOTH",
"73 671 OFFCURVE",
"118 620 OFFCURVE",
"180 620 CURVE SMOOTH"
);
}
);
width = 302;
}
);
leftKerningGroup = i;
rightKerningGroup = d;
unicode = 0069;
},
{
glyphname = dotlessi;
lastChange = "2017-03-31 17:48:43 +0000";
layers = (
{
layerId = "A4E552E4-62BE-43BB-A58F-34F0EE3B77B8";
paths = (
{
closed = 1;
nodes = (
"223 0 LINE",
"223 513 LINE",
"46 513 LINE",
"46 0 LINE"
);
}
);
width = 269;
},
{
layerId = "7B60DD57-6012-4D0F-BD38-A72A4BAC0E9D";
paths = (
{
closed = 1;
nodes = (
"117 0 LINE",
"117 513 LINE",
"50 513 LINE",
"50 0 LINE"
);
}
);
width = 167;
},
{
layerId = "ADAA8221-C97A-4B4F-BB2A-36DAD3E45CA4";
paths = (
{
closed = 1;
nodes = (
"74 0 LINE",
"128 513 LINE",
"61 513 LINE",
"7 0 LINE"
);
}
);
width = 167;
},
{
layerId = "7B29E906-CD8A-4887-A0AD-C831DD8203F3";
paths = (
{
closed = 1;
nodes = (
"180 0 LINE",
"234 513 LINE",
"57 513 LINE",
"3 0 LINE"
);
}
);
width = 269;
}
);
leftKerningGroup = i;
rightKerningGroup = d;
unicode = 0131;
},
{
glyphname = j;
lastChange = "2017-04-05 19:06:30 +0000";
layers = (
{
layerId = "A4E552E4-62BE-43BB-A58F-34F0EE3B77B8";
paths = (
{
closed = 1;
nodes = (
"237 -79 LINE SMOOTH",
"237 -170 OFFCURVE",
"193 -275 OFFCURVE",
"52 -275 CURVE SMOOTH",
"-32 -275 OFFCURVE",
"-64 -254 OFFCURVE",
"-89 -243 CURVE",
"-34 -100 LINE",
"-34 -100 OFFCURVE",
"-11 -115 OFFCURVE",
"11 -115 CURVE SMOOTH",
"41 -115 OFFCURVE",
"60 -93 OFFCURVE",
"60 -45 CURVE SMOOTH",
"60 513 LINE",
"237 513 LINE"
);
},
{
closed = 1;
nodes = (
"93 830 OFFCURVE",
"46 783 OFFCURVE",
"46 725 CURVE SMOOTH",
"46 667 OFFCURVE",
"93 620 OFFCURVE",
"151 620 CURVE SMOOTH",
"209 620 OFFCURVE",
"256 667 OFFCURVE",
"256 725 CURVE SMOOTH",
"256 783 OFFCURVE",
"209 830 OFFCURVE",
"151 830 CURVE SMOOTH"
);
}
);
width = 297;
},
{
layerId = "7B60DD57-6012-4D0F-BD38-A72A4BAC0E9D";
paths = (
{
closed = 1;
nodes = (
"137 -79 LINE SMOOTH",
"137 -180 OFFCURVE",
"109 -275 OFFCURVE",
"2 -275 CURVE SMOOTH",
"-52 -275 OFFCURVE",
"-86 -255 OFFCURVE",
"-89 -253 CURVE",
"-59 -190 LINE",
"-59 -190 OFFCURVE",
"-42 -213 OFFCURVE",
"0 -213 CURVE SMOOTH",
"60 -213 OFFCURVE",
"69 -143 OFFCURVE",
"69 -45 CURVE SMOOTH",
"69 513 LINE",
"137 513 LINE"
);
},
{
closed = 1;
nodes = (
"77 830 OFFCURVE",
"53 806 OFFCURVE",
"53 776 CURVE SMOOTH",
"53 746 OFFCURVE",
"77 722 OFFCURVE",
"107 722 CURVE SMOOTH",
"137 722 OFFCURVE",
"161 746 OFFCURVE",
"161 776 CURVE SMOOTH",
"161 806 OFFCURVE",
"137 830 OFFCURVE",
"107 830 CURVE SMOOTH"
);
}
);
width = 202;
},
{
layerId = "ADAA8221-C97A-4B4F-BB2A-36DAD3E45CA4";
paths = (
{
closed = 1;
nodes = (
"85 -75 LINE SMOOTH",
"72 -200 OFFCURVE",
"34 -275 OFFCURVE",
"-87 -275 CURVE SMOOTH",
"-107 -275 OFFCURVE",
"-130 -273 OFFCURVE",
"-155 -268 CURVE",
"-148 -206 LINE",
"-122 -211 OFFCURVE",
"-100 -213 OFFCURVE",
"-82 -213 CURVE SMOOTH",
"-6 -213 OFFCURVE",
"7 -167 OFFCURVE",
"21 -46 CURVE SMOOTH",
"80 513 LINE",
"148 513 LINE"
);
},
{
closed = 1;
nodes = (
"119 830 OFFCURVE",
"95 807 OFFCURVE",
"91 779 CURVE SMOOTH",
"88 747 OFFCURVE",
"111 722 OFFCURVE",
"142 722 CURVE SMOOTH",
"171 722 OFFCURVE",
"196 745 OFFCURVE",
"199 773 CURVE SMOOTH",
"202 805 OFFCURVE",
"179 830 OFFCURVE",
"148 830 CURVE SMOOTH"
);
}
);
width = 202;
},
{
layerId = "7B29E906-CD8A-4887-A0AD-C831DD8203F3";
paths = (
{
closed = 1;
nodes = (
"205 -79 LINE SMOOTH",
"195 -170 OFFCURVE",
"139 -269 OFFCURVE",
"-1 -275 CURVE SMOOTH",
"-47 -277 OFFCURVE",
"-87 -274 OFFCURVE",
"-108 -272 CURVE",
"-91 -116 LINE",
"-91 -116 OFFCURVE",
"-47 -116 OFFCURVE",
"-25 -115 CURVE SMOOTH",
"5 -114 OFFCURVE",
"27 -93 OFFCURVE",
"32 -45 CURVE SMOOTH",
"90 513 LINE",
"267 513 LINE"
);
},
{
closed = 1;
nodes = (
"157 830 OFFCURVE",
"105 783 OFFCURVE",
"98 725 CURVE SMOOTH",
"91 667 OFFCURVE",
"134 620 OFFCURVE",
"192 620 CURVE SMOOTH",
"250 620 OFFCURVE",
"302 667 OFFCURVE",
"308 725 CURVE SMOOTH",
"314 783 OFFCURVE",
"273 830 OFFCURVE",
"215 830 CURVE SMOOTH"
);
}
);
width = 297;
}
);
note = " ";
rightKerningGroup = d;
unicode = 006A;
},
{
glyphname = k;
lastChange = "2017-03-31 17:53:12 +0000";
layers = (
{
layerId = "A4E552E4-62BE-43BB-A58F-34F0EE3B77B8";
paths = (
{
closed = 1;
nodes = (
"237 334 LINE",
"237 860 LINE",
"60 860 LINE",
"60 0 LINE",
"237 0 LINE",
"237 205 LINE",
"442 0 LINE",
"670 0 LINE",
"402 268 LINE",
"646 513 LINE",
"416 513 LINE"
);
}
);
width = 646;
},
{
layerId = "7B60DD57-6012-4D0F-BD38-A72A4BAC0E9D";
paths = (
{
closed = 1;
nodes = (
"128 295 LINE",
"128 860 LINE",
"60 860 LINE",
"60 0 LINE",
"128 0 LINE",
"128 235 LINE",
"387 0 LINE",
"480 0 LINE",
"184 267 LINE",
"466 513 LINE",
"376 513 LINE"
);
}
);
width = 466;
},
{
layerId = "ADAA8221-C97A-4B4F-BB2A-36DAD3E45CA4";
paths = (
{
closed = 1;
nodes = (
"115 295 LINE",
"175 860 LINE",
"107 860 LINE",
"17 0 LINE",
"85 0 LINE",
"110 235 LINE",
"344 0 LINE",
"436 0 LINE",
"169 267 LINE",
"477 513 LINE",
"386 513 LINE"
);
}
);
width = 466;
},
{
layerId = "7B29E906-CD8A-4887-A0AD-C831DD8203F3";
paths = (
{
closed = 1;
nodes = (
"245 334 LINE",
"301 860 LINE",
"124 860 LINE",
"33 0 LINE",
"210 0 LINE",
"234 226 LINE",
"415 0 LINE",
"643 0 LINE",
"403 268 LINE"
);
},
{
closed = 1;
nodes = (
"197 348 LINE",
"398 248 LINE",
"542 247 OFFCURVE",
"577 293 OFFCURVE",
"588 392 CURVE SMOOTH",
"602 513 LINE",
"423 511 LINE",
"421 488 OFFCURVE",
"415 437 OFFCURVE",
"413 420 CURVE SMOOTH",
"407 369 OFFCURVE",
"381 348 OFFCURVE",
"319 348 CURVE"
);
}
);
width = 646;
},
{
associatedMasterId = "7B29E906-CD8A-4887-A0AD-C831DD8203F3";
layerId = "49FC0A73-156C-45C5-8BB2-D0DB8D0FBF74";
name = "Mar 31 17, 18:53";
paths = (
{
closed = 1;
nodes = (
"228 334 LINE",
"284 860 LINE",
"107 860 LINE",
"17 0 LINE",
"194 0 LINE",
"216 205 LINE",
"400 0 LINE",
"625 0 LINE",
"387 268 LINE",
"658 513 LINE",
"425 513 LINE"
);
}
);
width = 646;
}
);
rightKerningGroup = d;
unicode = 006B;
},
{
glyphname = l;
lastChange = "2017-03-31 17:48:43 +0000";
layers = (
{
layerId = "A4E552E4-62BE-43BB-A58F-34F0EE3B77B8";
paths = (
{
closed = 1;
nodes = (
"237 860 LINE",
"60 860 LINE",
"60 0 LINE",
"237 0 LINE"
);
}
);
width = 297;
},
{
layerId = "7B60DD57-6012-4D0F-BD38-A72A4BAC0E9D";
paths = (
{
closed = 1;
nodes = (
"128 860 LINE",
"60 860 LINE",
"60 0 LINE",
"128 0 LINE"
);
}
);
width = 188;
},
{
layerId = "ADAA8221-C97A-4B4F-BB2A-36DAD3E45CA4";
paths = (
{
closed = 1;
nodes = (
"175 860 LINE",
"107 860 LINE",
"17 0 LINE",
"85 0 LINE"
);
}
);
width = 188;
},
{
layerId = "7B29E906-CD8A-4887-A0AD-C831DD8203F3";
paths = (
{
closed = 1;
nodes = (
"284 860 LINE",
"107 860 LINE",
"17 0 LINE",
"194 0 LINE"
);
}
);
width = 297;
}
);
leftKerningGroup = i;
rightKerningGroup = d;
unicode = 006C;
},
{
glyphname = lslash;
lastChange = "2017-03-31 17:48:43 +0000";
layers = (
{
layerId = "A4E552E4-62BE-43BB-A58F-34F0EE3B77B8";
paths = (
{
closed = 1;
nodes = (
"273 0 LINE",
"273 449 LINE",
"349 509 LINE",
"349 662 LINE",
"273 602 LINE",
"273 860 LINE",
"96 860 LINE",
"96 463 LINE",
"20 403 LINE",
"20 250 LINE",
"96 310 LINE",
"96 0 LINE"
);
}
);
width = 369;
},
{
layerId = "7B60DD57-6012-4D0F-BD38-A72A4BAC0E9D";
paths = (
{
closed = 1;
nodes = (
"148 0 LINE",
"148 420 LINE",
"221 477 LINE",
"221 561 LINE",
"148 504 LINE",
"148 860 LINE",
"80 860 LINE",
"80 450 LINE",
"20 403 LINE",
"20 319 LINE",
"80 366 LINE",
"80 0 LINE"
);
}
);
width = 241;
},
{
layerId = "ADAA8221-C97A-4B4F-BB2A-36DAD3E45CA4";
paths = (
{
closed = 1;
nodes = (
"105 0 LINE",
"149 420 LINE",
"228 477 LINE",
"236 561 LINE",
"157 504 LINE",
"195 860 LINE",
"127 860 LINE",
"84 450 LINE",
"19 403 LINE",
"11 319 LINE",
"76 366 LINE",
"37 0 LINE"
);
}
);
width = 241;
},
{
layerId = "7B29E906-CD8A-4887-A0AD-C831DD8203F3";
paths = (
{
closed = 1;
nodes = (
"230 0 LINE",
"278 449 LINE",
"360 509 LINE",
"374 662 LINE",
"292 602 LINE",
"320 860 LINE",
"143 860 LINE",
"100 463 LINE",
"18 403 LINE",
"4 250 LINE",
"86 310 LINE",
"53 0 LINE"
);
}
);
width = 369;
}
);
rightKerningGroup = d;
unicode = 0142;
},
{
glyphname = m;
lastChange = "2017-03-31 17:53:24 +0000";
layers = (
{
layerId = "A4E552E4-62BE-43BB-A58F-34F0EE3B77B8";
paths = (
{
closed = 1;
nodes = (
"642 528 OFFCURVE",
"580 481 OFFCURVE",
"562 438 CURVE",
"531 506 OFFCURVE",
"464 528 OFFCURVE",
"396 528 CURVE SMOOTH",
"311 528 OFFCURVE",
"253 479 OFFCURVE",
"237 435 CURVE",
"237 513 LINE",
"60 513 LINE",
"60 0 LINE",
"237 0 LINE",
"237 270 LINE SMOOTH",
"237 341 OFFCURVE",
"279 390 OFFCURVE",
"332 390 CURVE SMOOTH",
"387 390 OFFCURVE",
"414 362 OFFCURVE",
"414 293 CURVE SMOOTH",
"414 0 LINE",
"576 0 LINE",
"576 280 LINE SMOOTH",
"576 351 OFFCURVE",
"608 390 OFFCURVE",
"661 390 CURVE SMOOTH",
"716 390 OFFCURVE",
"743 362 OFFCURVE",
"743 293 CURVE SMOOTH",
"743 0 LINE",
"920 0 LINE",
"920 338 LINE SMOOTH",
"920 486 OFFCURVE",
"819 528 OFFCURVE",
"725 528 CURVE SMOOTH"
);
}
);
width = 975;
},
{
layerId = "7B60DD57-6012-4D0F-BD38-A72A4BAC0E9D";
paths = (
{
closed = 1;
nodes = (
"539 528 OFFCURVE",
"470 475 OFFCURVE",
"452 418 CURVE",
"441 471 OFFCURVE",
"395 528 OFFCURVE",
"306 528 CURVE SMOOTH",
"218 528 OFFCURVE",
"144 473 OFFCURVE",
"128 415 CURVE",
"128 513 LINE",
"60 513 LINE",
"60 0 LINE",
"128 0 LINE",
"128 270 LINE SMOOTH",
"128 408 OFFCURVE",
"234 464 OFFCURVE",
"287 464 CURVE SMOOTH",
"352 464 OFFCURVE",
"399 432 OFFCURVE",
"399 293 CURVE SMOOTH",
"399 0 LINE",
"466 0 LINE",
"466 280 LINE SMOOTH",
"466 418 OFFCURVE",
"563 464 OFFCURVE",
"616 464 CURVE SMOOTH",
"681 464 OFFCURVE",
"723 432 OFFCURVE",
"723 293 CURVE SMOOTH",
"723 0 LINE",
"790 0 LINE",
"790 328 LINE SMOOTH",
"790 476 OFFCURVE",
"710 528 OFFCURVE",
"625 528 CURVE SMOOTH"
);
}
);
width = 845;
},
{
layerId = "ADAA8221-C97A-4B4F-BB2A-36DAD3E45CA4";
paths = (
{
closed = 1;
nodes = (
"550 528 OFFCURVE",
"476 476 OFFCURVE",
"452 418 CURVE",
"447 470 OFFCURVE",
"406 528 OFFCURVE",
"315 528 CURVE SMOOTH",
"229 528 OFFCURVE",
"150 474 OFFCURVE",
"128 416 CURVE",
"139 513 LINE",
"71 513 LINE",
"17 0 LINE",
"85 0 LINE",
"113 269 LINE SMOOTH",
"127 407 OFFCURVE",
"241 464 OFFCURVE",
"295 464 CURVE SMOOTH",
"359 464 OFFCURVE",
"401 433 OFFCURVE",
"387 294 CURVE SMOOTH",
"356 0 LINE",
"423 0 LINE",
"452 279 LINE SMOOTH",
"466 417 OFFCURVE",
"570 464 OFFCURVE",
"624 464 CURVE SMOOTH",
"688 464 OFFCURVE",
"725 433 OFFCURVE",
"711 294 CURVE SMOOTH",
"680 0 LINE",
"747 0 LINE",
"781 327 LINE SMOOTH",
"797 475 OFFCURVE",
"721 528 OFFCURVE",
"634 528 CURVE SMOOTH"
);
}
);
width = 845;
},
{
layerId = "7B29E906-CD8A-4887-A0AD-C831DD8203F3";
paths = (
{
closed = 1;
nodes = (
"667 525 OFFCURVE",
"620 445 OFFCURVE",
"590 376 CURVE",
"600 486 OFFCURVE",
"541 525 OFFCURVE",
"444 525 CURVE SMOOTH",
"339 525 OFFCURVE",
"270 418 OFFCURVE",
"249 374 CURVE",
"264 513 LINE",
"87 513 LINE",
"33 0 LINE",
"210 0 LINE",
"231 190 LINE SMOOTH",
"243 300 OFFCURVE",
"293 363 OFFCURVE",
"346 363 CURVE SMOOTH",
"401 363 OFFCURVE",
"424 347 OFFCURVE",
"417 278 CURVE SMOOTH",
"387 0 LINE",
"549 0 LINE",
"569 185 LINE SMOOTH",
"577 256 OFFCURVE",
"604 363 OFFCURVE",
"679 363 CURVE SMOOTH",
"734 363 OFFCURVE",
"749 324 OFFCURVE",
"742 255 CURVE SMOOTH",
"716 0 LINE",
"893 0 LINE",
"929 338 LINE SMOOTH",
"944 486 OFFCURVE",
"889 525 OFFCURVE",
"795 525 CURVE SMOOTH"
);
}
);
width = 975;
},
{
associatedMasterId = "7B29E906-CD8A-4887-A0AD-C831DD8203F3";
layerId = "45DAFF91-C0C2-4375-9ADF-961F6E1884F1";
name = "Mar 31 17, 18:53";
paths = (
{
closed = 1;
nodes = (
"651 528 OFFCURVE",
"586 485 OFFCURVE",
"562 438 CURVE",
"539 502 OFFCURVE",
"473 528 OFFCURVE",
"401 528 CURVE SMOOTH",
"320 528 OFFCURVE",
"259 483 OFFCURVE",
"239 439 CURVE",
"248 513 LINE",
"71 513 LINE",
"17 0 LINE",
"194 0 LINE",
"222 266 LINE SMOOTH",
"229 337 OFFCURVE",
"280 390 OFFCURVE",
"337 390 CURVE SMOOTH",
"388 390 OFFCURVE",
"409 366 OFFCURVE",
"402 297 CURVE SMOOTH",
"371 0 LINE",
"533 0 LINE",
"562 276 LINE SMOOTH",
"569 347 OFFCURVE",
"609 390 OFFCURVE",
"666 390 CURVE SMOOTH",
"717 390 OFFCURVE",
"738 366 OFFCURVE",
"731 297 CURVE SMOOTH",
"700 0 LINE",
"877 0 LINE",
"912 334 LINE SMOOTH",
"927 482 OFFCURVE",
"828 528 OFFCURVE",
"730 528 CURVE SMOOTH"
);
}
);
width = 975;
}
);
leftKerningGroup = r;
note = " ";
rightKerningGroup = b;
unicode = 006D;
},
{
glyphname = n;
lastChange = "2017-03-31 18:28:39 +0000";
layers = (
{
layerId = "A4E552E4-62BE-43BB-A58F-34F0EE3B77B8";
paths = (
{
closed = 1;
nodes = (
"237 270 LINE SMOOTH",
"237 341 OFFCURVE",
"289 390 OFFCURVE",
"342 390 CURVE SMOOTH",
"397 390 OFFCURVE",
"434 362 OFFCURVE",
"434 293 CURVE SMOOTH",
"434 0 LINE",
"611 0 LINE",
"611 338 LINE SMOOTH",
"611 486 OFFCURVE",
"500 528 OFFCURVE",
"406 528 CURVE SMOOTH",
"321 528 OFFCURVE",
"253 479 OFFCURVE",
"237 435 CURVE",
"237 439 LINE",
"237 513 LINE",
"60 513 LINE",
"60 0 LINE",
"237 0 LINE"
);
}
);
width = 661;
},
{
layerId = "7B60DD57-6012-4D0F-BD38-A72A4BAC0E9D";
paths = (
{
closed = 1;
nodes = (
"128 270 LINE SMOOTH",
"128 371 OFFCURVE",
"238 464 OFFCURVE",
"321 464 CURVE SMOOTH",
"398 464 OFFCURVE",
"433 422 OFFCURVE",
"433 293 CURVE SMOOTH",
"433 0 LINE",
"501 0 LINE",
"501 338 LINE SMOOTH",
"501 486 OFFCURVE",
"420 528 OFFCURVE",
"334 528 CURVE SMOOTH",
"249 528 OFFCURVE",
"147 469 OFFCURVE",
"128 405 CURVE",
"128 409 LINE",
"128 513 LINE",
"60 513 LINE",
"60 0 LINE",
"128 0 LINE"
);
}
);
width = 551;
},
{
background = {
components = (
{
name = a;
transform = "{-1, 0, 0, -1, 581, 513}";
}
);
};
layerId = "ADAA8221-C97A-4B4F-BB2A-36DAD3E45CA4";
paths = (
{
closed = 1;
nodes = (
"108 214 LINE SMOOTH",
"120 325 OFFCURVE",
"222 464 OFFCURVE",
"329 464 CURVE SMOOTH",
"405 464 OFFCURVE",
"434 423 OFFCURVE",
"421 294 CURVE SMOOTH",
"390 0 LINE",
"458 0 LINE",
"493 337 LINE SMOOTH",
"509 485 OFFCURVE",
"437 527 OFFCURVE",
"349 527 CURVE SMOOTH",
"252 527 OFFCURVE",
"152 454 OFFCURVE",
"121 361 CURVE",
"139 513 LINE",
"71 513 LINE",
"17 0 LINE",
"85 0 LINE"
);
}
);
width = 551;
},
{
layerId = "7B29E906-CD8A-4887-A0AD-C831DD8203F3";
paths = (
{
closed = 1;
nodes = (
"110 150 LINE",
"227 145 LINE",
"233 247 OFFCURVE",
"277 366 OFFCURVE",
"372 366 CURVE SMOOTH",
"436 366 OFFCURVE",
"440 318 OFFCURVE",
"433 249 CURVE SMOOTH",
"407 0 LINE",
"584 0 LINE",
"619 333 LINE SMOOTH",
"635 481 OFFCURVE",
"559 525 OFFCURVE",
"466 526 CURVE SMOOTH",
"370 527 OFFCURVE",
"297 508 OFFCURVE",
"239 349 CURVE"
);
},
{
closed = 1;
nodes = (
"246 357 LINE",
"264 513 LINE",
"87 513 LINE",
"33 0 LINE",
"211 0 LINE",
"230 178 LINE"
);
}
);
width = 661;
},
{
associatedMasterId = "7B29E906-CD8A-4887-A0AD-C831DD8203F3";
layerId = "02B7C9E1-70CD-4999-BE93-462206B42044";
name = "Mar 31 17, 18:53";
paths = (
{
closed = 1;
nodes = (
"222 266 LINE SMOOTH",
"229 337 OFFCURVE",
"290 390 OFFCURVE",
"347 390 CURVE SMOOTH",
"398 390 OFFCURVE",
"429 366 OFFCURVE",
"422 297 CURVE SMOOTH",
"391 0 LINE",
"568 0 LINE",
"603 334 LINE SMOOTH",
"618 482 OFFCURVE",
"509 528 OFFCURVE",
"411 528 CURVE SMOOTH",
"330 528 OFFCURVE",
"259 483 OFFCURVE",
"239 439 CURVE",
"240 439 LINE",
"248 513 LINE",
"71 513 LINE",
"17 0 LINE",
"194 0 LINE"
);
}
);
width = 661;
}
);
leftKerningGroup = r;
rightKerningGroup = b;
unicode = 006E;
},
{
glyphname = eng;
lastChange = "2017-03-31 17:48:43 +0000";
layers = (
{
components = (
{
name = n;
}
);
layerId = "7B60DD57-6012-4D0F-BD38-A72A4BAC0E9D";
paths = (
{
closed = 1;
nodes = (
"501 -79 LINE SMOOTH",
"501 -180 OFFCURVE",
"473 -275 OFFCURVE",
"366 -275 CURVE SMOOTH",
"312 -275 OFFCURVE",
"278 -255 OFFCURVE",
"275 -253 CURVE",
"305 -190 LINE",
"305 -190 OFFCURVE",
"322 -213 OFFCURVE",
"364 -213 CURVE SMOOTH",
"424 -213 OFFCURVE",
"433 -143 OFFCURVE",
"433 -45 CURVE SMOOTH",
"433 0 LINE",
"501 0 LINE"
);
}
);
width = 551;
},
{
components = (
{
name = n;
}
);
layerId = "A4E552E4-62BE-43BB-A58F-34F0EE3B77B8";
paths = (
{
closed = 1;
nodes = (
"611 -79 LINE SMOOTH",
"611 -170 OFFCURVE",
"567 -275 OFFCURVE",
"426 -275 CURVE SMOOTH",
"342 -275 OFFCURVE",
"310 -254 OFFCURVE",
"285 -243 CURVE",
"340 -100 LINE",
"340 -100 OFFCURVE",
"363 -115 OFFCURVE",
"385 -115 CURVE SMOOTH",
"415 -115 OFFCURVE",
"434 -93 OFFCURVE",
"434 -45 CURVE SMOOTH",
"434 0 LINE",
"611 0 LINE"
);
}
);
width = 661;
},
{
components = (
{
name = n;
}
);
layerId = "ADAA8221-C97A-4B4F-BB2A-36DAD3E45CA4";
paths = (
{
closed = 1;
nodes = (
"449 -78 LINE SMOOTH",
"439 -179 OFFCURVE",
"399 -275 OFFCURVE",
"291 -275 CURVE SMOOTH",
"238 -275 OFFCURVE",
"207 -256 OFFCURVE",
"204 -254 CURVE",
"241 -190 LINE",
"240 -190 OFFCURVE",
"258 -213 OFFCURVE",
"301 -213 CURVE SMOOTH",
"360 -213 OFFCURVE",
"374 -144 OFFCURVE",
"385 -46 CURVE SMOOTH",
"390 0 LINE",
"458 0 LINE"
);
}
);
width = 551;
},
{
components = (
{
name = n;
}
);
layerId = "7B29E906-CD8A-4887-A0AD-C831DD8203F3";
paths = (
{
closed = 1;
nodes = (
"560 -75 LINE SMOOTH",
"550 -166 OFFCURVE",
"491 -275 OFFCURVE",
"347 -275 CURVE SMOOTH",
"266 -275 OFFCURVE",
"237 -256 OFFCURVE",
"213 -245 CURVE",
"284 -100 LINE",
"283 -100 OFFCURVE",
"311 -115 OFFCURVE",
"336 -115 CURVE SMOOTH",
"363 -115 OFFCURVE",
"380 -97 OFFCURVE",
"386 -49 CURVE SMOOTH",
"391 0 LINE",
"568 0 LINE"
);
}
);
width = 661;
}
);
unicode = 014B;
},
{
glyphname = o;
lastChange = "2017-03-31 17:54:07 +0000";
layers = (
{
layerId = "A4E552E4-62BE-43BB-A58F-34F0EE3B77B8";
paths = (
{
closed = 1;
nodes = (
"475 -15 OFFCURVE",
"596 98 OFFCURVE",
"596 255 CURVE SMOOTH",
"596 415 OFFCURVE",
"468 528 OFFCURVE",
"309 528 CURVE SMOOTH",
"147 528 OFFCURVE",
"20 415 OFFCURVE",
"20 255 CURVE SMOOTH",
"20 98 OFFCURVE",
"136 -15 OFFCURVE",
"309 -15 CURVE SMOOTH"
);
},
{
closed = 1;
nodes = (
"238 136 OFFCURVE",
"190 186 OFFCURVE",
"190 256 CURVE SMOOTH",
"190 327 OFFCURVE",
"243 377 OFFCURVE",
"310 377 CURVE SMOOTH",
"376 377 OFFCURVE",
"429 327 OFFCURVE",
"429 256 CURVE SMOOTH",
"429 186 OFFCURVE",
"379 136 OFFCURVE",
"310 136 CURVE SMOOTH"
);
}
);
width = 616;
},
{
layerId = "7B60DD57-6012-4D0F-BD38-A72A4BAC0E9D";
paths = (
{
closed = 1;
nodes = (
"450 -15 OFFCURVE",
"546 108 OFFCURVE",
"546 255 CURVE SMOOTH",
"546 405 OFFCURVE",
"443 528 OFFCURVE",
"284 528 CURVE SMOOTH",
"122 528 OFFCURVE",
"20 405 OFFCURVE",
"20 255 CURVE SMOOTH",
"20 108 OFFCURVE",
"111 -15 OFFCURVE",
"284 -15 CURVE SMOOTH"
);
},
{
closed = 1;
nodes = (
"168 49 OFFCURVE",
"91 132 OFFCURVE",
"91 256 CURVE SMOOTH",
"91 381 OFFCURVE",
"177 464 OFFCURVE",
"285 464 CURVE SMOOTH",
"392 464 OFFCURVE",
"478 381 OFFCURVE",
"478 256 CURVE SMOOTH",
"478 132 OFFCURVE",
"397 49 OFFCURVE",
"285 49 CURVE SMOOTH"
);
}
);
width = 566;
},
{
layerId = "7B29E906-CD8A-4887-A0AD-C831DD8203F3";
paths = (
{
closed = 1;
nodes = (
"181 186 OFFCURVE",
"228 136 OFFCURVE",
"300 136 CURVE SMOOTH",
"369 136 OFFCURVE",
"421 186 OFFCURVE",
"427 256 CURVE SMOOTH",
"433 327 OFFCURVE",
"383 377 OFFCURVE",
"317 377 CURVE SMOOTH",
"250 377 OFFCURVE",
"195 327 OFFCURVE",
"188 256 CURVE SMOOTH"
);
},
{
closed = 1;
nodes = (
"34 415 OFFCURVE",
"172 528 OFFCURVE",
"334 528 CURVE SMOOTH",
"493 528 OFFCURVE",
"611 415 OFFCURVE",
"594 255 CURVE SMOOTH",
"577 98 OFFCURVE",
"447 -15 OFFCURVE",
"281 -15 CURVE SMOOTH",
"108 -15 OFFCURVE",
"2 98 OFFCURVE",
"18 255 CURVE SMOOTH"
);
}
);
width = 600;
},
{
layerId = "ADAA8221-C97A-4B4F-BB2A-36DAD3E45CA4";
width = 600;
}
);
leftKerningGroup = c;
rightKerningGroup = c;
unicode = 006F;
},
{
glyphname = oslash;
lastChange = "2017-03-31 17:48:43 +0000";
layers = (
{
layerId = "A4E552E4-62BE-43BB-A58F-34F0EE3B77B8";
paths = (
{
closed = 1;
nodes = (
"127 46 LINE",
"179 7 OFFCURVE",
"250 -15 OFFCURVE",
"332 -15 CURVE SMOOTH",
"509 -15 OFFCURVE",
"638 98 OFFCURVE",
"638 256 CURVE SMOOTH",
"638 317 OFFCURVE",
"618 372 OFFCURVE",
"583 415 CURVE",
"668 484 LINE",
"623 538 LINE",
"533 465 LINE",
"479 505 OFFCURVE",
"409 528 OFFCURVE",
"332 528 CURVE SMOOTH",
"159 528 OFFCURVE",
"23 416 OFFCURVE",
"23 256 CURVE SMOOTH",
"23 194 OFFCURVE",
"42 139 OFFCURVE",
"76 95 CURVE",
"-7 28 LINE",
"38 -26 LINE"
);
},
{
closed = 1;
nodes = (
"304 136 OFFCURVE",
"281 143 OFFCURVE",
"262 155 CURVE",
"442 301 LINE",
"447 287 OFFCURVE",
"450 272 OFFCURVE",
"450 256 CURVE SMOOTH",
"450 186 OFFCURVE",
"400 136 OFFCURVE",
"331 136 CURVE SMOOTH"
);
},
{
closed = 1;
nodes = (
"213 224 OFFCURVE",
"211 239 OFFCURVE",
"211 256 CURVE SMOOTH",
"211 327 OFFCURVE",
"264 377 OFFCURVE",
"331 377 CURVE SMOOTH",
"356 377 OFFCURVE",
"380 369 OFFCURVE",
"399 356 CURVE",
"218 210 LINE"
);
}
);
width = 661;
},
{
layerId = "7B60DD57-6012-4D0F-BD38-A72A4BAC0E9D";
paths = (
{
closed = 1;
nodes = (
"108 45 LINE",
"151 7 OFFCURVE",
"210 -15 OFFCURVE",
"284 -15 CURVE SMOOTH",
"450 -15 OFFCURVE",
"546 108 OFFCURVE",
"546 255 CURVE SMOOTH",
"546 321 OFFCURVE",
"526 383 OFFCURVE",
"490 430 CURVE",
"543 484 LINE",
"498 538 LINE",
"440 479 LINE",
"398 510 OFFCURVE",
"345 528 OFFCURVE",
"284 528 CURVE SMOOTH",
"122 528 OFFCURVE",
"20 405 OFFCURVE",
"20 255 CURVE SMOOTH",
"20 197 OFFCURVE",
"34 142 OFFCURVE",
"62 98 CURVE",
"-7 28 LINE",
"38 -26 LINE"
);
},
{
closed = 1;
nodes = (
"233 49 OFFCURVE",
"190 65 OFFCURVE",
"157 94 CURVE",
"442 382 LINE",
"465 348 OFFCURVE",
"478 305 OFFCURVE",
"478 256 CURVE SMOOTH",
"478 132 OFFCURVE",
"397 49 OFFCURVE",
"285 49 CURVE SMOOTH"
);
},
{
closed = 1;
nodes = (
"99 180 OFFCURVE",
"91 216 OFFCURVE",
"91 256 CURVE SMOOTH",
"91 381 OFFCURVE",
"177 464 OFFCURVE",
"285 464 CURVE SMOOTH",
"325 464 OFFCURVE",
"362 452 OFFCURVE",
"393 432 CURVE",
"114 150 LINE"
);
}
);
width = 556;
},
{
layerId = "ADAA8221-C97A-4B4F-BB2A-36DAD3E45CA4";
paths = (
{
closed = 1;
nodes = (
"71 46 LINE",
"110 8 OFFCURVE",
"166 -15 OFFCURVE",
"242 -15 CURVE SMOOTH",
"406 -15 OFFCURVE",
"514 107 OFFCURVE",
"529 252 CURVE SMOOTH",
"536 320 OFFCURVE",
"522 382 OFFCURVE",
"491 429 CURVE",
"550 484 LINE",
"510 538 LINE",
"445 478 LINE",
"407 509 OFFCURVE",
"356 528 OFFCURVE",
"293 528 CURVE SMOOTH",
"133 528 OFFCURVE",
"19 406 OFFCURVE",
"4 258 CURVE SMOOTH",
"-3 198 OFFCURVE",
"6 143 OFFCURVE",
"30 99 CURVE",
"-47 28 LINE",
"-7 -26 LINE"
);
},
{
closed = 1;
nodes = (
"193 49 OFFCURVE",
"152 64 OFFCURVE",
"122 93 CURVE",
"440 383 LINE",
"459 349 OFFCURVE",
"467 306 OFFCURVE",
"462 259 CURVE SMOOTH",
"449 133 OFFCURVE",
"357 49 OFFCURVE",
"244 49 CURVE SMOOTH"
);
},
{
closed = 1;
nodes = (
"74 179 OFFCURVE",
"70 215 OFFCURVE",
"74 253 CURVE SMOOTH",
"88 380 OFFCURVE",
"184 464 OFFCURVE",
"293 464 CURVE SMOOTH",
"332 464 OFFCURVE",
"367 453 OFFCURVE",
"396 433 CURVE",
"85 149 LINE"
);
}
);
width = 556;
},
{
layerId = "7B29E906-CD8A-4887-A0AD-C831DD8203F3";
paths = (
{
closed = 1;
nodes = (
"93 48 LINE",
"139 9 OFFCURVE",
"209 -15 OFFCURVE",
"294 -15 CURVE SMOOTH",
"468 -15 OFFCURVE",
"605 94 OFFCURVE",
"621 248 CURVE SMOOTH",
"628 313 OFFCURVE",
"611 369 OFFCURVE",
"581 412 CURVE",
"675 484 LINE",
"634 538 LINE",
"534 463 LINE",
"486 503 OFFCURVE",
"418 528 OFFCURVE",
"337 528 CURVE SMOOTH",
"168 528 OFFCURVE",
"24 420 OFFCURVE",
"7 264 CURVE SMOOTH",
"0 198 OFFCURVE",
"16 142 OFFCURVE",
"45 98 CURVE",
"-47 28 LINE",
"-6 -26 LINE"
);
},
{
closed = 1;
nodes = (
"271 136 OFFCURVE",
"250 141 OFFCURVE",
"232 153 CURVE",
"433 305 LINE",
"435 291 OFFCURVE",
"436 276 OFFCURVE",
"434 264 CURVE SMOOTH",
"427 190 OFFCURVE",
"367 136 OFFCURVE",
"295 136 CURVE SMOOTH"
);
},
{
closed = 1;
nodes = (
"192 220 OFFCURVE",
"192 235 OFFCURVE",
"194 248 CURVE SMOOTH",
"202 323 OFFCURVE",
"264 377 OFFCURVE",
"334 377 CURVE SMOOTH",
"356 377 OFFCURVE",
"379 371 OFFCURVE",
"396 358 CURVE",
"194 206 LINE"
);
}
);
width = 661;
}
);
leftKerningGroup = c;
rightKerningGroup = c;
unicode = 00F8;
},
{
glyphname = p;
lastChange = "2017-03-31 18:26:22 +0000";
layers = (
{
layerId = "A4E552E4-62BE-43BB-A58F-34F0EE3B77B8";
paths = (
{
closed = 1;
nodes = (
"554 -15 OFFCURVE",
"659 107 OFFCURVE",
"659 257 CURVE SMOOTH",
"659 407 OFFCURVE",
"554 528 OFFCURVE",
"404 528 CURVE SMOOTH",
"304 528 OFFCURVE",
"247 461 OFFCURVE",
"236 435 CURVE",
"235 435 LINE",
"235 513 LINE",
"61 513 LINE",
"60 513 LINE",
"60 -260 LINE",
"237 -260 LINE",
"236 69 LINE",
"252 38 OFFCURVE",
"305 -15 OFFCURVE",
"404 -15 CURVE SMOOTH"
);
},
{
closed = 1;
nodes = (
"426 377 OFFCURVE",
"474 327 OFFCURVE",
"474 257 CURVE SMOOTH",
"474 186 OFFCURVE",
"421 136 OFFCURVE",
"354 136 CURVE SMOOTH",
"288 136 OFFCURVE",
"239 186 OFFCURVE",
"239 257 CURVE SMOOTH",
"239 327 OFFCURVE",
"285 377 OFFCURVE",
"354 377 CURVE SMOOTH"
);
}
);
width = 683;
},
{
layerId = "7B60DD57-6012-4D0F-BD38-A72A4BAC0E9D";
paths = (
{
closed = 1;
nodes = (
"459 -15 OFFCURVE",
"569 97 OFFCURVE",
"569 257 CURVE SMOOTH",
"569 417 OFFCURVE",
"454 528 OFFCURVE",
"324 528 CURVE SMOOTH",
"188 528 OFFCURVE",
"138 441 OFFCURVE",
"127 415 CURVE",
"126 415 LINE",
"126 513 LINE",
"61 513 LINE",
"60 513 LINE",
"60 -260 LINE",
"128 -260 LINE",
"127 89 LINE",
"143 58 OFFCURVE",
"194 -15 OFFCURVE",
"324 -15 CURVE SMOOTH"
);
},
{
closed = 1;
nodes = (
"421 464 OFFCURVE",
"501 397 OFFCURVE",
"501 257 CURVE SMOOTH",
"501 116 OFFCURVE",
"416 49 OFFCURVE",
"319 49 CURVE SMOOTH",
"233 49 OFFCURVE",
"130 116 OFFCURVE",
"130 257 CURVE SMOOTH",
"130 397 OFFCURVE",
"230 464 OFFCURVE",
"319 464 CURVE SMOOTH"
);
}
);
width = 593;
},
{
background = {
components = (
{
name = a;
transform = "{-1, 0, 0, -1, 603, 513}";
}
);
paths = (
{
closed = 1;
nodes = (
"10 -260 LINE",
"78 -260 LINE",
"107 19 LINE",
"39 19 LINE"
);
}
);
};
components = (
{
name = a;
transform = "{-1, 0, 0, -1, 603, 513}";
}
);
layerId = "ADAA8221-C97A-4B4F-BB2A-36DAD3E45CA4";
paths = (
{
closed = 1;
nodes = (
"10 -260 LINE",
"78 -260 LINE",
"107 19 LINE",
"39 19 LINE"
);
}
);
width = 593;
},
{
layerId = "7B29E906-CD8A-4887-A0AD-C831DD8203F3";
paths = (
{
closed = 1;
nodes = (
"479 -28 OFFCURVE",
"639 53 OFFCURVE",
"660 256 CURVE SMOOTH",
"676 406 OFFCURVE",
"590 525 OFFCURVE",
"440 525 CURVE SMOOTH",
"350 525 OFFCURVE",
"278 453 OFFCURVE",
"247 361 CURVE",
"262 513 LINE",
"88 513 LINE",
"87 513 LINE",
"6 -260 LINE",
"183 -260 LINE",
"208 -11 LINE"
);
},
{
closed = 1;
nodes = (
"436 358 OFFCURVE",
"481 314 OFFCURVE",
"474 244 CURVE SMOOTH",
"467 173 OFFCURVE",
"425 132 OFFCURVE",
"330 133 CURVE SMOOTH",
"228 134 LINE",
"233 193 LINE SMOOTH",
"239 266 OFFCURVE",
"288 358 OFFCURVE",
"366 358 CURVE SMOOTH"
);
}
);
width = 683;
},
{
associatedMasterId = "7B29E906-CD8A-4887-A0AD-C831DD8203F3";
layerId = "8DB83B34-B6D9-46BC-99ED-11EDA13AD9D1";
name = "Mar 31 17, 18:54";
paths = (
{
closed = 1;
nodes = (
"513 -15 OFFCURVE",
"626 103 OFFCURVE",
"642 249 CURVE SMOOTH",
"658 403 OFFCURVE",
"563 528 OFFCURVE",
"409 528 CURVE SMOOTH",
"313 528 OFFCURVE",
"251 465 OFFCURVE",
"237 439 CURVE",
"237 435 LINE",
"246 513 LINE",
"72 513 LINE",
"71 513 LINE",
"-11 -260 LINE",
"166 -260 LINE",
"202 72 LINE",
"215 41 OFFCURVE",
"264 -15 OFFCURVE",
"366 -15 CURVE SMOOTH"
);
},
{
closed = 1;
nodes = (
"426 377 OFFCURVE",
"465 331 OFFCURVE",
"458 265 CURVE SMOOTH",
"451 190 OFFCURVE",
"388 136 OFFCURVE",
"318 136 CURVE SMOOTH",
"255 136 OFFCURVE",
"215 182 OFFCURVE",
"222 249 CURVE SMOOTH",
"230 323 OFFCURVE",
"285 377 OFFCURVE",
"357 377 CURVE SMOOTH"
);
}
);
width = 683;
}
);
leftKerningGroup = r;
rightKerningGroup = b;
unicode = 0070;
},
{
glyphname = thorn;
lastChange = "2017-03-31 17:48:43 +0000";
layers = (
{
layerId = "A4E552E4-62BE-43BB-A58F-34F0EE3B77B8";
paths = (
{
closed = 1;
nodes = (
"235 -260 LINE",
"235 58 LINE",
"273 16 OFFCURVE",
"335 -15 OFFCURVE",
"405 -15 CURVE SMOOTH",
"555 -15 OFFCURVE",
"660 106 OFFCURVE",
"660 256 CURVE SMOOTH",
"660 406 OFFCURVE",
"555 528 OFFCURVE",
"405 528 CURVE SMOOTH",
"336 528 OFFCURVE",
"279 505 OFFCURVE",
"237 464 CURVE",
"237 860 LINE",
"60 860 LINE",
"60 -260 LINE"
);
},
{
closed = 1;
nodes = (
"283 136 OFFCURVE",
"233 186 OFFCURVE",
"233 256 CURVE SMOOTH",
"233 327 OFFCURVE",
"286 377 OFFCURVE",
"352 377 CURVE SMOOTH",
"419 377 OFFCURVE",
"472 327 OFFCURVE",
"472 256 CURVE SMOOTH",
"472 186 OFFCURVE",
"424 136 OFFCURVE",
"352 136 CURVE SMOOTH"
);
}
);
width = 683;
},
{
layerId = "7B60DD57-6012-4D0F-BD38-A72A4BAC0E9D";
paths = (
{
closed = 1;
nodes = (
"128 -260 LINE",
"127 89 LINE",
"143 58 OFFCURVE",
"194 -15 OFFCURVE",
"324 -15 CURVE SMOOTH",
"459 -15 OFFCURVE",
"569 97 OFFCURVE",
"569 257 CURVE SMOOTH",
"569 417 OFFCURVE",
"454 528 OFFCURVE",
"324 528 CURVE SMOOTH",
"188 528 OFFCURVE",
"137 441 OFFCURVE",
"126 415 CURVE",
"126 860 LINE",
"60 860 LINE",
"60 -260 LINE"
);
},
{
closed = 1;
nodes = (
"233 49 OFFCURVE",
"130 116 OFFCURVE",
"130 257 CURVE SMOOTH",
"130 397 OFFCURVE",
"230 464 OFFCURVE",
"319 464 CURVE SMOOTH",
"421 464 OFFCURVE",
"501 397 OFFCURVE",
"501 257 CURVE SMOOTH",
"501 116 OFFCURVE",
"416 49 OFFCURVE",
"319 49 CURVE SMOOTH"
);
}
);
width = 593;
},
{
layerId = "ADAA8221-C97A-4B4F-BB2A-36DAD3E45CA4";
paths = (
{
closed = 1;
nodes = (
"57 -260 LINE",
"94 90 LINE",
"107 59 OFFCURVE",
"150 -15 OFFCURVE",
"282 -15 CURVE SMOOTH",
"415 -15 OFFCURVE",
"536 96 OFFCURVE",
"552 254 CURVE SMOOTH",
"569 416 OFFCURVE",
"465 528 OFFCURVE",
"333 528 CURVE SMOOTH",
"199 528 OFFCURVE",
"140 442 OFFCURVE",
"126 416 CURVE",
"173 860 LINE",
"107 860 LINE",
"-11 -260 LINE"
);
},
{
closed = 1;
nodes = (
"193 49 OFFCURVE",
"99 115 OFFCURVE",
"113 254 CURVE SMOOTH",
"128 396 OFFCURVE",
"237 464 OFFCURVE",
"327 464 CURVE SMOOTH",
"428 464 OFFCURVE",
"500 398 OFFCURVE",
"485 260 CURVE SMOOTH",
"470 117 OFFCURVE",
"376 49 OFFCURVE",
"278 49 CURVE SMOOTH"
);
}
);
width = 593;
},
{
layerId = "7B29E906-CD8A-4887-A0AD-C831DD8203F3";
paths = (
{
closed = 1;
nodes = (
"164 -260 LINE",
"200 61 LINE",
"234 19 OFFCURVE",
"294 -15 OFFCURVE",
"367 -15 CURVE SMOOTH",
"514 -15 OFFCURVE",
"627 102 OFFCURVE",
"643 248 CURVE SMOOTH",
"659 402 OFFCURVE",
"564 528 OFFCURVE",
"410 528 CURVE SMOOTH",
"345 528 OFFCURVE",
"287 508 OFFCURVE",
"240 467 CURVE",
"284 860 LINE",
"107 860 LINE",
"-11 -260 LINE"
);
},
{
closed = 1;
nodes = (
"250 136 OFFCURVE",
"209 182 OFFCURVE",
"216 248 CURVE SMOOTH",
"224 323 OFFCURVE",
"286 377 OFFCURVE",
"355 377 CURVE SMOOTH",
"419 377 OFFCURVE",
"463 331 OFFCURVE",
"456 264 CURVE SMOOTH",
"449 190 OFFCURVE",
"391 136 OFFCURVE",
"316 136 CURVE SMOOTH"
);
}
);
width = 683;
}
);
rightKerningGroup = b;
unicode = 00FE;
},
{
glyphname = q;
lastChange = "2017-03-31 18:22:06 +0000";
layers = (
{
layerId = "A4E552E4-62BE-43BB-A58F-34F0EE3B77B8";
paths = (
{
closed = 1;
nodes = (
"378 -15 OFFCURVE",
"431 38 OFFCURVE",
"447 69 CURVE",
"446 -260 LINE",
"623 -260 LINE",
"623 513 LINE",
"622 513 LINE",
"448 513 LINE",
"448 435 LINE",
"447 435 LINE",
"436 461 OFFCURVE",
"379 528 OFFCURVE",
"279 528 CURVE SMOOTH",
"129 528 OFFCURVE",
"24 407 OFFCURVE",
"24 257 CURVE SMOOTH",
"24 107 OFFCURVE",
"129 -15 OFFCURVE",
"279 -15 CURVE SMOOTH"
);
},
{
closed = 1;
nodes = (
"398 377 OFFCURVE",
"444 327 OFFCURVE",
"444 257 CURVE SMOOTH",
"444 186 OFFCURVE",
"395 136 OFFCURVE",
"329 136 CURVE SMOOTH",
"262 136 OFFCURVE",
"209 186 OFFCURVE",
"209 257 CURVE SMOOTH",
"209 327 OFFCURVE",
"257 377 OFFCURVE",
"329 377 CURVE SMOOTH"
);
}
);
width = 683;
},
{
layerId = "7B60DD57-6012-4D0F-BD38-A72A4BAC0E9D";
paths = (
{
closed = 1;
nodes = (
"387 -15 OFFCURVE",
"436 75 OFFCURVE",
"447 104 CURVE",
"446 -260 LINE",
"517 -260 LINE",
"517 513 LINE",
"516 513 LINE",
"448 513 LINE",
"448 415 LINE",
"447 415 LINE",
"443 437 OFFCURVE",
"387 528 OFFCURVE",
"259 528 CURVE SMOOTH",
"102 528 OFFCURVE",
"19 397 OFFCURVE",
"19 257 CURVE SMOOTH",
"19 117 OFFCURVE",
"102 -15 OFFCURVE",
"259 -15 CURVE SMOOTH"
);
},
{
closed = 1;
nodes = (
"360 467 OFFCURVE",
"444 387 OFFCURVE",
"444 257 CURVE SMOOTH",
"444 127 OFFCURVE",
"360 46 OFFCURVE",
"258 46 CURVE SMOOTH",
"149 46 OFFCURVE",
"89 136 OFFCURVE",
"89 257 CURVE SMOOTH",
"89 377 OFFCURVE",
"149 467 OFFCURVE",
"258 467 CURVE SMOOTH"
);
}
);
width = 577;
},
{
components = (
{
name = a;
transform = "{1, 0, 0, 1, -38, 0}";
}
);
layerId = "ADAA8221-C97A-4B4F-BB2A-36DAD3E45CA4";
paths = (
{
closed = 1;
nodes = (
"421 148 LINE",
"404 2 LINE",
"375 -260 LINE",
"446 -260 LINE",
"492 178 LINE"
);
}
);
width = 577;
},
{
background = {
components = (
{
name = a;
transform = "{1, 0, 0, 1, 26, 0}";
}
);
paths = (
{
closed = 1;
nodes = (
"403 -261 LINE",
"580 -261 LINE",
"607 0 LINE",
"430 0 LINE"
);
}
);
};
layerId = "7B29E906-CD8A-4887-A0AD-C831DD8203F3";
paths = (
{
closed = 1;
nodes = (
"350 -12 OFFCURVE",
"415 48 OFFCURVE",
"444 134 CURVE",
"403 -260 LINE",
"580 -260 LINE",
"660 512 LINE",
"553 524 OFFCURVE",
"439 531 OFFCURVE",
"322 519 CURVE SMOOTH",
"163 503 OFFCURVE",
"52 419 OFFCURVE",
"35 257 CURVE SMOOTH",
"20 107 OFFCURVE",
"101 -12 OFFCURVE",
"251 -12 CURVE SMOOTH"
);
},
{
closed = 1;
nodes = (
"467 379 LINE",
"461 319 LINE",
"454 248 OFFCURVE",
"407 155 OFFCURVE",
"329 155 CURVE SMOOTH",
"262 155 OFFCURVE",
"212 199 OFFCURVE",
"219 270 CURVE SMOOTH",
"226 340 OFFCURVE",
"279 380 OFFCURVE",
"354 380 CURVE"
);
}
);
width = 683;
},
{
associatedMasterId = "7B29E906-CD8A-4887-A0AD-C831DD8203F3";
layerId = "5FDD5926-13D6-41FD-BCA4-F0CFE3D3EA7B";
name = "Mar 31 17, 18:54";
paths = (
{
closed = 1;
nodes = (
"337 -15 OFFCURVE",
"393 35 OFFCURVE",
"412 66 CURVE",
"375 -260 LINE",
"552 -260 LINE",
"634 513 LINE",
"633 513 LINE",
"459 513 LINE",
"450 435 LINE",
"448 431 LINE",
"439 457 OFFCURVE",
"388 528 OFFCURVE",
"284 528 CURVE SMOOTH",
"138 528 OFFCURVE",
"24 411 OFFCURVE",
"8 265 CURVE SMOOTH",
"-8 111 OFFCURVE",
"88 -15 OFFCURVE",
"241 -15 CURVE SMOOTH"
);
},
{
closed = 1;
nodes = (
"398 377 OFFCURVE",
"435 331 OFFCURVE",
"428 265 CURVE SMOOTH",
"421 190 OFFCURVE",
"362 136 OFFCURVE",
"293 136 CURVE SMOOTH",
"229 136 OFFCURVE",
"185 182 OFFCURVE",
"192 249 CURVE SMOOTH",
"200 323 OFFCURVE",
"257 377 OFFCURVE",
"332 377 CURVE SMOOTH"
);
}
);
width = 683;
},
{
associatedMasterId = "ADAA8221-C97A-4B4F-BB2A-36DAD3E45CA4";
layerId = "403F2988-82F0-40AE-9976-369D7C34FABE";
name = "Mar 31 17, 19:20";
paths = (
{
closed = 1;
nodes = (
"343 -15 OFFCURVE",
"401 74 OFFCURVE",
"415 103 CURVE",
"375 -260 LINE",
"446 -260 LINE",
"528 513 LINE",
"527 513 LINE",
"459 513 LINE",
"448 415 LINE",
"447 414 LINE",
"445 436 OFFCURVE",
"398 528 OFFCURVE",
"268 528 CURVE SMOOTH",
"113 528 OFFCURVE",
"18 398 OFFCURVE",
"3 260 CURVE SMOOTH",
"-12 118 OFFCURVE",
"58 -15 OFFCURVE",
"217 -15 CURVE SMOOTH"
);
},
{
closed = 1;
nodes = (
"367 467 OFFCURVE",
"441 388 OFFCURVE",
"428 260 CURVE SMOOTH",
"414 128 OFFCURVE",
"320 46 OFFCURVE",
"217 46 CURVE SMOOTH",
"109 46 OFFCURVE",
"60 135 OFFCURVE",
"72 254 CURVE SMOOTH",
"85 376 OFFCURVE",
"156 467 OFFCURVE",
"267 467 CURVE SMOOTH"
);
}
);
width = 577;
}
);
leftKerningGroup = d;
rightKerningGroup = d;
unicode = 0071;
},
{
glyphname = r;
lastChange = "2017-03-31 17:55:08 +0000";
layers = (
{
layerId = "A4E552E4-62BE-43BB-A58F-34F0EE3B77B8";
paths = (
{
closed = 1;
nodes = (
"237 270 LINE SMOOTH",
"237 283 OFFCURVE",
"250 374 OFFCURVE",
"342 374 CURVE SMOOTH",
"401 374 OFFCURVE",
"434 346 OFFCURVE",
"434 346 CURVE",
"508 496 LINE",
"508 496 OFFCURVE",
"462 528 OFFCURVE",
"396 528 CURVE SMOOTH",
"295 528 OFFCURVE",
"239 439 OFFCURVE",
"239 439 CURVE SMOOTH",
"237 439 LINE",
"237 513 LINE",
"60 513 LINE",
"60 0 LINE",
"237 0 LINE"
);
}
);
width = 498;
},
{
layerId = "7B60DD57-6012-4D0F-BD38-A72A4BAC0E9D";
paths = (
{
closed = 1;
nodes = (
"128 293 LINE SMOOTH",
"128 353 OFFCURVE",
"193 464 OFFCURVE",
"274 464 CURVE SMOOTH",
"325 464 OFFCURVE",
"353 438 OFFCURVE",
"353 438 CURVE",
"383 501 LINE",
"383 501 OFFCURVE",
"343 528 OFFCURVE",
"277 528 CURVE SMOOTH",
"185 528 OFFCURVE",
"139 462 OFFCURVE",
"129 436 CURVE",
"128 436 LINE",
"128 513 LINE",
"60 513 LINE",
"60 0 LINE",
"128 0 LINE"
);
}
);
width = 373;
},
{
layerId = "ADAA8221-C97A-4B4F-BB2A-36DAD3E45CA4";
paths = (
{
closed = 1;
nodes = (
"115 292 LINE SMOOTH",
"122 352 OFFCURVE",
"200 464 OFFCURVE",
"282 464 CURVE SMOOTH",
"332 464 OFFCURVE",
"355 439 OFFCURVE",
"355 439 CURVE",
"391 501 LINE",
"391 501 OFFCURVE",
"354 528 OFFCURVE",
"286 528 CURVE SMOOTH",
"196 528 OFFCURVE",
"144 463 OFFCURVE",
"131 437 CURVE",
"130 436 LINE",
"139 513 LINE",
"71 513 LINE",
"17 0 LINE",
"85 0 LINE"
);
}
);
width = 373;
},
{
layerId = "7B29E906-CD8A-4887-A0AD-C831DD8203F3";
paths = (
{
closed = 1;
nodes = (
"227 173 LINE SMOOTH",
"235 252 OFFCURVE",
"267 304 OFFCURVE",
"319 335 CURVE SMOOTH",
"356 357 OFFCURVE",
"405 365 OFFCURVE",
"461 362 CURVE",
"479 520 LINE",
"462 523 OFFCURVE",
"446 524 OFFCURVE",
"424 523 CURVE SMOOTH",
"302 517 OFFCURVE",
"249 372 OFFCURVE",
"249 374 CURVE SMOOTH",
"255 426 LINE",
"264 513 LINE",
"87 513 LINE",
"33 0 LINE",
"210 0 LINE"
);
}
);
width = 498;
},
{
associatedMasterId = "7B29E906-CD8A-4887-A0AD-C831DD8203F3";
layerId = "12FF2EA2-14D9-4D4A-84E5-4EB92F3392C4";
name = "Mar 31 17, 18:55";
paths = (
{
closed = 1;
nodes = (
"222 266 LINE SMOOTH",
"223 279 OFFCURVE",
"249 374 OFFCURVE",
"345 374 CURVE SMOOTH",
"400 374 OFFCURVE",
"426 350 OFFCURVE",
"426 350 CURVE",
"515 496 LINE",
"513 496 OFFCURVE",
"471 528 OFFCURVE",
"401 528 CURVE SMOOTH",
"304 528 OFFCURVE",
"245 439 OFFCURVE",
"245 439 CURVE SMOOTH",
"240 439 LINE",
"248 513 LINE",
"71 513 LINE",
"17 0 LINE",
"194 0 LINE"
);
}
);
width = 498;
}
);
leftKerningGroup = r;
note = " ";
rightKerningGroup = r;
unicode = 0072;
},
{
glyphname = s;
lastChange = "2017-03-31 17:55:21 +0000";
layers = (
{
layerId = "A4E552E4-62BE-43BB-A58F-34F0EE3B77B8";
paths = (
{
closed = 1;
nodes = (
"148 528 OFFCURVE",
"59 468 OFFCURVE",
"59 363 CURVE SMOOTH",
"59 286 OFFCURVE",
"111 250 OFFCURVE",
"163 223 CURVE SMOOTH",
"221 193 OFFCURVE",
"277 190 OFFCURVE",
"277 153 CURVE SMOOTH",
"277 119 OFFCURVE",
"247 116 OFFCURVE",
"222 116 CURVE SMOOTH",
"165 116 OFFCURVE",
"95 175 OFFCURVE",
"95 175 CURVE",
"23 54 LINE",
"23 54 OFFCURVE",
"97 -15 OFFCURVE",
"221 -15 CURVE SMOOTH",
"326 -15 OFFCURVE",
"464 9 OFFCURVE",
"464 160 CURVE SMOOTH",
"464 265 OFFCURVE",
"376 303 OFFCURVE",
"308 324 CURVE SMOOTH",
"264 338 OFFCURVE",
"228 346 OFFCURVE",
"228 373 CURVE SMOOTH",
"228 397 OFFCURVE",
"244 404 OFFCURVE",
"283 404 CURVE SMOOTH",
"337 404 OFFCURVE",
"397 372 OFFCURVE",
"397 372 CURVE",
"455 488 LINE",
"455 488 OFFCURVE",
"382 528 OFFCURVE",
"283 528 CURVE SMOOTH"
);
}
);
width = 492;
},
{
layerId = "7B60DD57-6012-4D0F-BD38-A72A4BAC0E9D";
paths = (
{
closed = 1;
nodes = (
"126 528 OFFCURVE",
"46 478 OFFCURVE",
"46 388 CURVE SMOOTH",
"46 286 OFFCURVE",
"157 257 OFFCURVE",
"208 238 CURVE SMOOTH",
"247 224 OFFCURVE",
"331 203 OFFCURVE",
"331 142 CURVE SMOOTH",
"331 82 OFFCURVE",
"273 49 OFFCURVE",
"200 49 CURVE SMOOTH",
"121 49 OFFCURVE",
"65 105 OFFCURVE",
"65 105 CURVE",
"23 44 LINE",
"23 44 OFFCURVE",
"96 -15 OFFCURVE",
"198 -15 CURVE SMOOTH",
"305 -15 OFFCURVE",
"401 33 OFFCURVE",
"401 143 CURVE SMOOTH",
"401 259 OFFCURVE",
"284 282 OFFCURVE",
"235 298 CURVE SMOOTH",
"196 311 OFFCURVE",
"118 331 OFFCURVE",
"118 389 CURVE SMOOTH",
"118 433 OFFCURVE",
"159 466 OFFCURVE",
"232 464 CURVE SMOOTH",
"303 462 OFFCURVE",
"345 432 OFFCURVE",
"345 432 CURVE",
"376 498 LINE",
"376 498 OFFCURVE",
"321 528 OFFCURVE",
"232 528 CURVE SMOOTH"
);
}
);
width = 429;
},
{
layerId = "ADAA8221-C97A-4B4F-BB2A-36DAD3E45CA4";
paths = (
{
closed = 1;
nodes = (
"137 528 OFFCURVE",
"53 479 OFFCURVE",
"44 391 CURVE SMOOTH",
"33 287 OFFCURVE",
"142 257 OFFCURVE",
"192 239 CURVE SMOOTH",
"229 224 OFFCURVE",
"309 204 OFFCURVE",
"303 145 CURVE SMOOTH",
"296 83 OFFCURVE",
"233 49 OFFCURVE",
"159 49 CURVE SMOOTH",
"81 49 OFFCURVE",
"33 104 OFFCURVE",
"33 104 CURVE",
"-15 44 LINE",
"-14 44 OFFCURVE",
"52 -15 OFFCURVE",
"156 -15 CURVE SMOOTH",
"261 -15 OFFCURVE",
"361 32 OFFCURVE",
"372 140 CURVE SMOOTH",
"385 258 OFFCURVE",
"269 282 OFFCURVE",
"220 297 CURVE SMOOTH",
"184 311 OFFCURVE",
"109 330 OFFCURVE",
"115 386 CURVE SMOOTH",
"120 432 OFFCURVE",
"166 466 OFFCURVE",
"240 464 CURVE SMOOTH",
"310 462 OFFCURVE",
"347 433 OFFCURVE",
"347 433 CURVE",
"384 498 LINE",
"384 498 OFFCURVE",
"332 528 OFFCURVE",
"241 528 CURVE SMOOTH"
);
}
);
width = 429;
},
{
layerId = "7B29E906-CD8A-4887-A0AD-C831DD8203F3";
paths = (
{
closed = 1;
nodes = (
"158 528 OFFCURVE",
"62 468 OFFCURVE",
"51 363 CURVE SMOOTH",
"43 286 OFFCURVE",
"92 248 OFFCURVE",
"141 221 CURVE SMOOTH",
"196 191 OFFCURVE",
"250 188 OFFCURVE",
"247 151 CURVE SMOOTH",
"243 105 OFFCURVE",
"120 114 OFFCURVE",
"38 137 CURVE",
"21 2 LINE",
"21 2 OFFCURVE",
"50 -15 OFFCURVE",
"174 -15 CURVE SMOOTH",
"279 -15 OFFCURVE",
"418 9 OFFCURVE",
"434 160 CURVE SMOOTH",
"445 265 OFFCURVE",
"362 297 OFFCURVE",
"296 319 CURVE SMOOTH",
"254 333 OFFCURVE",
"219 341 OFFCURVE",
"221 368 CURVE SMOOTH",
"224 412 OFFCURVE",
"363 398 OFFCURVE",
"423 375 CURVE",
"439 510 LINE",
"439 510 OFFCURVE",
"392 528 OFFCURVE",
"293 528 CURVE SMOOTH"
);
}
);
width = 492;
},
{
associatedMasterId = "7B29E906-CD8A-4887-A0AD-C831DD8203F3";
layerId = "25CD5E04-24A6-4A39-919A-9334050D04CF";
name = "Mar 31 17, 18:55";
paths = (
{
closed = 1;
nodes = (
"157 528 OFFCURVE",
"65 472 OFFCURVE",
"55 371 CURVE SMOOTH",
"46 290 OFFCURVE",
"97 252 OFFCURVE",
"150 227 CURVE SMOOTH",
"201 195 OFFCURVE",
"254 194 OFFCURVE",
"251 161 CURVE SMOOTH",
"247 123 OFFCURVE",
"212 116 OFFCURVE",
"184 116 CURVE SMOOTH",
"130 116 OFFCURVE",
"71 172 OFFCURVE",
"71 172 CURVE",
"-13 54 LINE",
"-11 54 OFFCURVE",
"56 -15 OFFCURVE",
"183 -15 CURVE SMOOTH",
"285 -15 OFFCURVE",
"421 5 OFFCURVE",
"437 152 CURVE SMOOTH",
"448 261 OFFCURVE",
"361 302 OFFCURVE",
"292 321 CURVE SMOOTH",
"253 337 OFFCURVE",
"221 342 OFFCURVE",
"223 365 CURVE SMOOTH",
"226 393 OFFCURVE",
"247 404 OFFCURVE",
"289 404 CURVE SMOOTH",
"340 404 OFFCURVE",
"392 376 OFFCURVE",
"392 376 CURVE",
"461 488 LINE",
"459 488 OFFCURVE",
"391 528 OFFCURVE",
"288 528 CURVE SMOOTH"
);
}
);
width = 492;
}
);
leftKerningGroup = s;
rightKerningGroup = s;
unicode = 0073;
},
{
glyphname = germandbls;
lastChange = "2017-03-31 17:48:43 +0000";
layers = (
{
layerId = "A4E552E4-62BE-43BB-A58F-34F0EE3B77B8";
paths = (
{
closed = 1;
nodes = (
"356 -15 LINE",
"534 -15 OFFCURVE",
"663 97 OFFCURVE",
"663 255 CURVE SMOOTH",
"663 356 OFFCURVE",
"611 423 OFFCURVE",
"531 460 CURVE",
"592 494 OFFCURVE",
"631 551 OFFCURVE",
"631 630 CURVE SMOOTH",
"631 768 OFFCURVE",
"517 875 OFFCURVE",
"363 875 CURVE SMOOTH",
"199 875 OFFCURVE",
"90 772 OFFCURVE",
"90 622 CURVE",
"90 0 LINE",
"267 0 LINE",
"267 636 LINE SMOOTH",
"267 695 OFFCURVE",
"329 726 OFFCURVE",
"363 726 CURVE SMOOTH",
"421 726 OFFCURVE",
"464 690 OFFCURVE",
"464 630 CURVE SMOOTH",
"464 567 OFFCURVE",
"414 524 OFFCURVE",
"356 524 CURVE",
"356 389 LINE",
"432 389 OFFCURVE",
"475 338 OFFCURVE",
"475 264 CURVE SMOOTH",
"475 194 OFFCURVE",
"425 147 OFFCURVE",
"356 147 CURVE"
);
}
);
width = 686;
},
{
layerId = "7B60DD57-6012-4D0F-BD38-A72A4BAC0E9D";
paths = (
{
closed = 1;
nodes = (
"276 -15 LINE",
"454 -15 OFFCURVE",
"563 77 OFFCURVE",
"563 235 CURVE SMOOTH",
"563 336 OFFCURVE",
"475 437 OFFCURVE",
"395 454 CURVE",
"459 472 OFFCURVE",
"525 571 OFFCURVE",
"525 660 CURVE SMOOTH",
"525 798 OFFCURVE",
"437 875 OFFCURVE",
"313 875 CURVE SMOOTH",
"179 875 OFFCURVE",
"90 772 OFFCURVE",
"90 622 CURVE",
"90 0 LINE",
"158 0 LINE",
"158 636 LINE SMOOTH",
"158 735 OFFCURVE",
"209 814 OFFCURVE",
"313 814 CURVE SMOOTH",
"391 814 OFFCURVE",
"454 777 OFFCURVE",
"454 667 CURVE SMOOTH",
"454 574 OFFCURVE",
"394 484 OFFCURVE",
"276 484 CURVE",
"276 419 LINE",
"412 419 OFFCURVE",
"490 327 OFFCURVE",
"490 233 CURVE SMOOTH",
"490 133 OFFCURVE",
"425 53 OFFCURVE",
"276 53 CURVE"
);
}
);
width = 586;
},
{
layerId = "ADAA8221-C97A-4B4F-BB2A-36DAD3E45CA4";
paths = (
{
closed = 1;
nodes = (
"232 -15 LINE",
"410 -15 OFFCURVE",
"528 76 OFFCURVE",
"544 232 CURVE SMOOTH",
"555 335 OFFCURVE",
"476 437 OFFCURVE",
"399 453 CURVE",
"467 472 OFFCURVE",
"542 570 OFFCURVE",
"551 657 CURVE SMOOTH",
"565 797 OFFCURVE",
"484 875 OFFCURVE",
"359 875 CURVE SMOOTH",
"226 875 OFFCURVE",
"128 773 OFFCURVE",
"112 623 CURVE",
"47 0 LINE",
"115 0 LINE",
"181 635 LINE SMOOTH",
"192 734 OFFCURVE",
"253 814 OFFCURVE",
"358 814 CURVE SMOOTH",
"435 814 OFFCURVE",
"492 778 OFFCURVE",
"481 670 CURVE SMOOTH",
"471 575 OFFCURVE",
"400 484 OFFCURVE",
"282 484 CURVE",
"278 419 LINE",
"414 419 OFFCURVE",
"481 328 OFFCURVE",
"471 236 CURVE SMOOTH",
"461 134 OFFCURVE",
"386 53 OFFCURVE",
"237 53 CURVE"
);
}
);
width = 586;
},
{
layerId = "7B29E906-CD8A-4887-A0AD-C831DD8203F3";
paths = (
{
closed = 1;
nodes = (
"315 -15 LINE",
"493 -15 OFFCURVE",
"629 93 OFFCURVE",
"646 247 CURVE SMOOTH",
"657 352 OFFCURVE",
"609 421 OFFCURVE",
"535 456 CURVE",
"603 492 OFFCURVE",
"645 547 OFFCURVE",
"653 622 CURVE SMOOTH",
"668 764 OFFCURVE",
"562 875 OFFCURVE",
"405 875 CURVE SMOOTH",
"244 875 OFFCURVE",
"128 776 OFFCURVE",
"112 626 CURVE",
"47 0 LINE",
"224 0 LINE",
"290 632 LINE SMOOTH",
"296 691 OFFCURVE",
"365 726 OFFCURVE",
"403 726 CURVE SMOOTH",
"457 726 OFFCURVE",
"494 694 OFFCURVE",
"488 638 CURVE SMOOTH",
"481 571 OFFCURVE",
"422 524 OFFCURVE",
"364 524 CURVE",
"357 389 LINE",
"433 389 OFFCURVE",
"468 342 OFFCURVE",
"460 272 CURVE SMOOTH",
"452 198 OFFCURVE",
"394 147 OFFCURVE",
"325 147 CURVE"
);
}
);
width = 686;
}
);
rightKerningGroup = d;
unicode = 00DF;
},
{
glyphname = t;
lastChange = "2017-03-31 17:55:31 +0000";
layers = (
{
layerId = "A4E552E4-62BE-43BB-A58F-34F0EE3B77B8";
paths = (
{
closed = 1;
nodes = (
"16 378 LINE",
"90 378 LINE",
"90 181 LINE SMOOTH",
"90 90 OFFCURVE",
"124 -15 OFFCURVE",
"265 -15 CURVE SMOOTH",
"338 -15 OFFCURVE",
"395 17 OFFCURVE",
"395 17 CURVE",
"351 160 LINE",
"351 160 OFFCURVE",
"330 144 OFFCURVE",
"307 144 CURVE SMOOTH",
"279 144 OFFCURVE",
"267 167 OFFCURVE",
"267 215 CURVE SMOOTH",
"267 378 LINE",
"375 378 LINE",
"375 513 LINE",
"267 513 LINE",
"267 704 LINE",
"90 704 LINE",
"90 513 LINE",
"16 513 LINE"
);
}
);
width = 395;
},
{
layerId = "7B60DD57-6012-4D0F-BD38-A72A4BAC0E9D";
paths = (
{
closed = 1;
nodes = (
"16 448 LINE",
"120 448 LINE",
"120 161 LINE SMOOTH",
"120 70 OFFCURVE",
"134 -15 OFFCURVE",
"235 -15 CURVE SMOOTH",
"292 -15 OFFCURVE",
"330 13 OFFCURVE",
"330 13 CURVE",
"307 68 LINE",
"307 68 OFFCURVE",
"276 49 OFFCURVE",
"240 49 CURVE SMOOTH",
"212 49 OFFCURVE",
"188 73 OFFCURVE",
"188 144 CURVE SMOOTH",
"188 448 LINE",
"326 448 LINE",
"326 513 LINE",
"188 513 LINE",
"188 704 LINE",
"120 704 LINE",
"120 513 LINE",
"16 513 LINE"
);
}
);
width = 335;
},
{
layerId = "ADAA8221-C97A-4B4F-BB2A-36DAD3E45CA4";
paths = (
{
closed = 1;
nodes = (
"20 448 LINE",
"124 448 LINE",
"94 162 LINE SMOOTH",
"84 71 OFFCURVE",
"90 -15 OFFCURVE",
"193 -15 CURVE SMOOTH",
"248 -15 OFFCURVE",
"289 14 OFFCURVE",
"289 14 CURVE",
"269 69 LINE",
"270 69 OFFCURVE",
"236 49 OFFCURVE",
"199 49 CURVE SMOOTH",
"172 49 OFFCURVE",
"152 72 OFFCURVE",
"160 143 CURVE SMOOTH",
"192 448 LINE",
"330 448 LINE",
"337 513 LINE",
"199 513 LINE",
"219 704 LINE",
"151 704 LINE",
"131 513 LINE",
"27 513 LINE"
);
}
);
width = 335;
},
{
layerId = "7B29E906-CD8A-4887-A0AD-C831DD8203F3";
paths = (
{
closed = 1;
nodes = (
"43 378 LINE",
"117 378 LINE",
"96 181 LINE SMOOTH",
"87 90 OFFCURVE",
"110 -15 OFFCURVE",
"251 -15 CURVE SMOOTH",
"306 -15 OFFCURVE",
"335 -10 OFFCURVE",
"371 1 CURVE",
"386 143 LINE",
"386 143 OFFCURVE",
"332 143 OFFCURVE",
"309 144 CURVE SMOOTH",
"281 145 OFFCURVE",
"272 167 OFFCURVE",
"277 215 CURVE SMOOTH",
"294 378 LINE",
"402 378 LINE",
"416 513 LINE",
"308 513 LINE",
"328 704 LINE",
"151 704 LINE",
"131 513 LINE",
"57 513 LINE"
);
}
);
width = 395;
},
{
associatedMasterId = "7B29E906-CD8A-4887-A0AD-C831DD8203F3";
layerId = "D16ADCB4-55D1-48E4-AB6F-7F16523D517C";
name = "Mar 31 17, 18:55";
paths = (
{
closed = 1;
nodes = (
"12 378 LINE",
"86 378 LINE",
"66 185 LINE SMOOTH",
"57 94 OFFCURVE",
"83 -15 OFFCURVE",
"227 -15 CURVE SMOOTH",
"297 -15 OFFCURVE",
"355 21 OFFCURVE",
"355 21 CURVE",
"327 160 LINE",
"328 160 OFFCURVE",
"298 144 OFFCURVE",
"272 144 CURVE SMOOTH",
"247 144 OFFCURVE",
"241 163 OFFCURVE",
"246 211 CURVE SMOOTH",
"263 378 LINE",
"371 378 LINE",
"386 513 LINE",
"278 513 LINE",
"298 704 LINE",
"121 704 LINE",
"101 513 LINE",
"27 513 LINE"
);
}
);
width = 395;
}
);
leftKerningGroup = t;
rightKerningGroup = t;
unicode = 0074;
},
{
glyphname = tbar;
lastChange = "2017-03-31 17:48:43 +0000";
layers = (
{
components = (
{
name = t;
}
);
layerId = "7B60DD57-6012-4D0F-BD38-A72A4BAC0E9D";
paths = (
{
closed = 1;
nodes = (
"16 278 LINE",
"326 278 LINE",
"326 343 LINE",
"16 343 LINE"
);
}
);
width = 335;
},
{
components = (
{
name = t;
}
);
layerId = "A4E552E4-62BE-43BB-A58F-34F0EE3B77B8";
paths = (
{
closed = 1;
nodes = (
"17 208 LINE",
"375 208 LINE",
"375 343 LINE",
"17 343 LINE"
);
}
);
width = 400;
},
{
components = (
{
name = t;
}
);
layerId = "ADAA8221-C97A-4B4F-BB2A-36DAD3E45CA4";
paths = (
{
closed = 1;
nodes = (
"2 278 LINE",
"312 278 LINE",
"319 343 LINE",
"9 343 LINE"
);
}
);
width = 335;
},
{
components = (
{
name = t;
}
);
layerId = "7B29E906-CD8A-4887-A0AD-C831DD8203F3";
paths = (
{
closed = 1;
nodes = (
"-4 208 LINE",
"354 208 LINE",
"368 343 LINE",
"10 343 LINE"
);
}
);
width = 400;
}
);
unicode = 0167;
},
{
glyphname = u;
lastChange = "2017-03-31 17:48:43 +0000";
layers = (
{
layerId = "A4E552E4-62BE-43BB-A58F-34F0EE3B77B8";
paths = (
{
closed = 1;
nodes = (
"227 513 LINE",
"50 513 LINE",
"50 266 LINE SMOOTH",
"50 94 OFFCURVE",
"136 -15 OFFCURVE",
"328 -15 CURVE SMOOTH",
"520 -15 OFFCURVE",
"606 94 OFFCURVE",
"606 266 CURVE SMOOTH",
"606 513 LINE",
"429 513 LINE",
"429 279 LINE SMOOTH",
"429 178 OFFCURVE",
"402 129 OFFCURVE",
"328 129 CURVE SMOOTH",
"254 129 OFFCURVE",
"227 178 OFFCURVE",
"227 279 CURVE SMOOTH"
);
}
);
width = 656;
},
{
layerId = "7B60DD57-6012-4D0F-BD38-A72A4BAC0E9D";
paths = (
{
closed = 1;
nodes = (
"117 513 LINE",
"50 513 LINE",
"50 266 LINE SMOOTH",
"50 101 OFFCURVE",
"106 -15 OFFCURVE",
"278 -15 CURVE SMOOTH",
"450 -15 OFFCURVE",
"506 101 OFFCURVE",
"506 266 CURVE SMOOTH",
"506 513 LINE",
"439 513 LINE",
"439 299 LINE SMOOTH",
"439 138 OFFCURVE",
"402 49 OFFCURVE",
"278 49 CURVE SMOOTH",
"154 49 OFFCURVE",
"117 138 OFFCURVE",
"117 299 CURVE SMOOTH"
);
}
);
width = 556;
},
{
layerId = "ADAA8221-C97A-4B4F-BB2A-36DAD3E45CA4";
paths = (
{
closed = 1;
nodes = (
"128 513 LINE",
"61 513 LINE",
"35 267 LINE SMOOTH",
"17 102 OFFCURVE",
"62 -15 OFFCURVE",
"236 -15 CURVE SMOOTH",
"406 -15 OFFCURVE",
"473 100 OFFCURVE",
"490 265 CURVE SMOOTH",
"517 513 LINE",
"450 513 LINE",
"427 300 LINE SMOOTH",
"410 139 OFFCURVE",
"362 49 OFFCURVE",
"237 49 CURVE SMOOTH",
"114 49 OFFCURVE",
"88 137 OFFCURVE",
"105 298 CURVE SMOOTH"
);
}
);
width = 556;
},
{
layerId = "7B29E906-CD8A-4887-A0AD-C831DD8203F3";
paths = (
{
closed = 1;
nodes = (
"238 513 LINE",
"61 513 LINE",
"35 270 LINE SMOOTH",
"17 98 OFFCURVE",
"95 -15 OFFCURVE",
"290 -15 CURVE SMOOTH",
"479 -15 OFFCURVE",
"572 90 OFFCURVE",
"590 262 CURVE SMOOTH",
"617 513 LINE",
"440 513 LINE",
"415 283 LINE SMOOTH",
"405 182 OFFCURVE",
"369 129 OFFCURVE",
"291 129 CURVE SMOOTH",
"221 129 OFFCURVE",
"202 174 OFFCURVE",
"213 275 CURVE SMOOTH"
);
}
);
width = 656;
}
);
leftKerningGroup = u;
rightKerningGroup = u;
unicode = 0075;
},
{
glyphname = v;
lastChange = "2017-04-05 18:42:47 +0000";
layers = (
{
layerId = "A4E552E4-62BE-43BB-A58F-34F0EE3B77B8";
paths = (
{
closed = 1;
nodes = (
"255 0 LINE",
"375 0 LINE",
"650 513 LINE",
"440 513 LINE",
"315 234 LINE",
"190 513 LINE",
"-20 513 LINE"
);
}
);
width = 630;
},
{
layerId = "7B60DD57-6012-4D0F-BD38-A72A4BAC0E9D";
paths = (
{
closed = 1;
nodes = (
"230 0 LINE",
"290 0 LINE",
"525 513 LINE",
"452 513 LINE",
"260 82 LINE",
"68 513 LINE",
"-5 513 LINE"
);
}
);
width = 520;
},
{
guideLines = (
{
angle = 84;
position = "{326, 327}";
}
);
layerId = "ADAA8221-C97A-4B4F-BB2A-36DAD3E45CA4";
paths = (
{
closed = 1;
nodes = (
"175 513 LINE",
"127 461 LINE",
"69 307 OFFCURVE",
"46 141 OFFCURVE",
"110 56 CURVE SMOOTH",
"144 10 OFFCURVE",
"198 -15 OFFCURVE",
"282 -15 CURVE SMOOTH",
"452 -15 OFFCURVE",
"518 100 OFFCURVE",
"536 265 CURVE SMOOTH",
"563 513 LINE",
"496 513 LINE",
"473 300 LINE SMOOTH",
"456 139 OFFCURVE",
"408 49 OFFCURVE",
"283 49 CURVE SMOOTH",
"160 49 OFFCURVE",
"133 137 OFFCURVE",
"151 298 CURVE SMOOTH"
);
},
{
closed = 1;
nodes = (
"26 450 LINE",
"155 450 LINE",
"175 513 LINE",
"34 513 LINE"
);
}
);
width = 556;
},
{
layerId = "7B29E906-CD8A-4887-A0AD-C831DD8203F3";
paths = (
{
closed = 1;
nodes = (
"279 513 LINE",
"255 506 LINE",
"124 440 OFFCURVE",
"27 223 OFFCURVE",
"103 88 CURVE SMOOTH",
"140 22 OFFCURVE",
"213 -15 OFFCURVE",
"317 -15 CURVE SMOOTH",
"507 -15 OFFCURVE",
"604 94 OFFCURVE",
"622 266 CURVE SMOOTH",
"648 513 LINE",
"471 513 LINE",
"447 279 LINE SMOOTH",
"437 178 OFFCURVE",
"404 129 OFFCURVE",
"332 129 CURVE SMOOTH",
"266 129 OFFCURVE",
"245 178 OFFCURVE",
"255 279 CURVE SMOOTH"
);
},
{
closed = 1;
nodes = (
"34 381 LINE",
"220 381 LINE",
"279 513 LINE",
"49 513 LINE"
);
}
);
width = 630;
},
{
associatedMasterId = "7B29E906-CD8A-4887-A0AD-C831DD8203F3";
layerId = "61915E8F-AAFA-4D38-9FF3-824D7875E00E";
name = "Mar 31 17, 18:55";
paths = (
{
closed = 1;
nodes = (
"213 0 LINE",
"333 0 LINE",
"662 513 LINE",
"449 513 LINE",
"294 234 LINE",
"199 513 LINE",
"-8 513 LINE"
);
}
);
width = 630;
},
{
associatedMasterId = "ADAA8221-C97A-4B4F-BB2A-36DAD3E45CA4";
guideLines = (
{
angle = 84;
position = "{326, 327}";
}
);
layerId = "6CC793A5-91DB-48D6-AC47-D16F9438951C";
name = v1;
paths = (
{
closed = 1;
nodes = (
"175 513 LINE",
"127 460 LINE",
"69 306 OFFCURVE",
"46 141 OFFCURVE",
"110 56 CURVE SMOOTH",
"144 10 OFFCURVE",
"198 -15 OFFCURVE",
"282 -15 CURVE SMOOTH",
"452 -15 OFFCURVE",
"518 100 OFFCURVE",
"536 265 CURVE SMOOTH",
"545 348 OFFCURVE",
"582 513 OFFCURVE",
"459 513 CURVE",
"418 513 LINE",
"411 448 LINE",
"438 448 LINE",
"495 448 OFFCURVE",
"480 368 OFFCURVE",
"473 300 CURVE SMOOTH",
"456 139 OFFCURVE",
"408 49 OFFCURVE",
"283 49 CURVE SMOOTH",
"160 49 OFFCURVE",
"133 137 OFFCURVE",
"151 298 CURVE SMOOTH"
);
},
{
closed = 1;
nodes = (
"26 450 LINE",
"155 450 LINE",
"175 513 LINE",
"34 513 LINE"
);
}
);
width = 556;
},
{
associatedMasterId = "ADAA8221-C97A-4B4F-BB2A-36DAD3E45CA4";
guideLines = (
{
angle = 84;
position = "{438, 300}";
}
);
layerId = "DED4E847-8C2F-44F8-A14A-71C55E985100";
name = v2;
paths = (
{
closed = 1;
nodes = (
"175 513 LINE",
"127 461 LINE",
"69 307 OFFCURVE",
"46 141 OFFCURVE",
"110 56 CURVE SMOOTH",
"141 15 OFFCURVE",
"193 -6 OFFCURVE",
"255 -13 CURVE SMOOTH",
"331 -23 OFFCURVE",
"397 -13 OFFCURVE",
"482 1 CURVE",
"488 56 OFFCURVE",
"502 176 OFFCURVE",
"512 265 CURVE SMOOTH",
"539 513 LINE",
"472 513 LINE",
"449 300 LINE SMOOTH",
"439 211 OFFCURVE",
"430 116 OFFCURVE",
"423 53 CURVE",
"346 37 OFFCURVE",
"244 38 OFFCURVE",
"197 74 CURVE SMOOTH",
"151 109 OFFCURVE",
"138 179 OFFCURVE",
"151 298 CURVE SMOOTH"
);
},
{
closed = 1;
nodes = (
"26 450 LINE",
"155 450 LINE",
"175 513 LINE",
"34 513 LINE"
);
}
);
width = 556;
},
{
associatedMasterId = "ADAA8221-C97A-4B4F-BB2A-36DAD3E45CA4";
guideLines = (
{
angle = 84;
position = "{23, 27}";
}
);
layerId = "008F0FF8-ABFA-4AB1-8831-9B44F97D3282";
name = v3;
paths = (
{
closed = 1;
nodes = (
"175 513 LINE",
"103 513 LINE",
"78 265 LINE SMOOTH",
"63 117 OFFCURVE",
"87 -15 OFFCURVE",
"279 -15 CURVE SMOOTH",
"449 -15 OFFCURVE",
"512 100 OFFCURVE",
"530 265 CURVE SMOOTH",
"557 513 LINE",
"490 513 LINE",
"467 299 LINE SMOOTH",
"450 139 OFFCURVE",
"412 49 OFFCURVE",
"287 49 CURVE SMOOTH",
"164 49 OFFCURVE",
"135 137 OFFCURVE",
"152 299 CURVE SMOOTH"
);
},
{
closed = 1;
nodes = (
"378 450 LINE",
"530 450 LINE",
"550 513 LINE",
"386 513 LINE"
);
}
);
width = 556;
}
);
leftKerningGroup = v;
rightKerningGroup = v;
unicode = 0076;
},
{
glyphname = w;
lastChange = "2017-04-05 18:57:00 +0000";
layers = (
{
layerId = "A4E552E4-62BE-43BB-A58F-34F0EE3B77B8";
paths = (
{
closed = 1;
nodes = (
"611 0 LINE",
"731 0 LINE",
"946 513 LINE",
"742 513 LINE",
"662 264 LINE",
"534 513 LINE",
"412 513 LINE",
"283 264 LINE",
"204 513 LINE",
"0 513 LINE",
"215 0 LINE",
"335 0 LINE",
"473 265 LINE"
);
}
);
width = 946;
},
{
layerId = "7B60DD57-6012-4D0F-BD38-A72A4BAC0E9D";
paths = (
{
closed = 1;
nodes = (
"484 0 LINE",
"544 0 LINE",
"702 513 LINE",
"625 513 LINE",
"512 114 LINE",
"387 513 LINE",
"325 513 LINE",
"199 114 LINE",
"87 513 LINE",
"10 513 LINE",
"168 0 LINE",
"228 0 LINE",
"356 395 LINE"
);
}
);
width = 712;
},
{
layerId = "ADAA8221-C97A-4B4F-BB2A-36DAD3E45CA4";
paths = (
{
closed = 1;
nodes = (
"169 513 LINE",
"126 470 LINE",
"88 377 OFFCURVE",
"68 281 OFFCURVE",
"68 205 CURVE SMOOTH",
"68 73 OFFCURVE",
"130 -15 OFFCURVE",
"260 -15 CURVE SMOOTH",
"390 -15 OFFCURVE",
"454 100 OFFCURVE",
"472 265 CURVE SMOOTH",
"499 513 LINE",
"432 513 LINE",
"409 300 LINE SMOOTH",
"391 136 OFFCURVE",
"345 49 OFFCURVE",
"261 49 CURVE SMOOTH",
"155 49 OFFCURVE",
"129 137 OFFCURVE",
"146 298 CURVE SMOOTH"
);
},
{
closed = 1;
nodes = (
"20 450 LINE",
"149 450 LINE",
"169 513 LINE",
"28 513 LINE"
);
},
{
closed = 1;
nodes = (
"418 264 LINE",
"392 122 OFFCURVE",
"439 -15 OFFCURVE",
"590 -15 CURVE SMOOTH",
"720 -15 OFFCURVE",
"783 100 OFFCURVE",
"801 265 CURVE SMOOTH",
"828 513 LINE",
"761 513 LINE",
"738 300 LINE SMOOTH",
"721 139 OFFCURVE",
"675 49 OFFCURVE",
"592 49 CURVE SMOOTH",
"491 49 OFFCURVE",
"458 137 OFFCURVE",
"476 298 CURVE"
);
}
);
width = 801;
},
{
layerId = "7B29E906-CD8A-4887-A0AD-C831DD8203F3";
paths = (
{
closed = 1;
nodes = (
"140 22 OFFCURVE",
"201 -15 OFFCURVE",
"292 -15 CURVE SMOOTH",
"384 -15 OFFCURVE",
"457 24 OFFCURVE",
"491 74 CURVE",
"512 28 OFFCURVE",
"587 -15 OFFCURVE",
"650 -15 CURVE SMOOTH",
"824 -15 OFFCURVE",
"921 94 OFFCURVE",
"939 266 CURVE SMOOTH",
"965 513 LINE",
"788 513 LINE",
"764 279 LINE SMOOTH",
"754 178 OFFCURVE",
"721 129 OFFCURVE",
"665 129 CURVE SMOOTH",
"601 129 OFFCURVE",
"584 194 OFFCURVE",
"592 279 CURVE SMOOTH",
"614 513 LINE",
"443 513 LINE",
"420 279 LINE SMOOTH",
"410 178 OFFCURVE",
"382 129 OFFCURVE",
"321 129 CURVE SMOOTH",
"262 129 OFFCURVE",
"245 178 OFFCURVE",
"255 279 CURVE SMOOTH",
"279 513 LINE",
"255 512 LINE",
"124 446 OFFCURVE",
"27 223 OFFCURVE",
"103 88 CURVE SMOOTH"
);
},
{
closed = 1;
nodes = (
"34 381 LINE",
"220 381 LINE",
"279 513 LINE",
"49 513 LINE"
);
}
);
width = 946;
},
{
associatedMasterId = "7B29E906-CD8A-4887-A0AD-C831DD8203F3";
layerId = "BF84BF22-789C-46F5-8FBE-A9A131585218";
name = "Mar 31 17, 18:55";
paths = (
{
closed = 1;
nodes = (
"569 0 LINE",
"689 0 LINE",
"958 513 LINE",
"752 513 LINE",
"644 264 LINE",
"543 513 LINE",
"421 513 LINE",
"265 264 LINE",
"214 513 LINE",
"12 513 LINE",
"173 0 LINE",
"293 0 LINE",
"460 265 LINE"
);
}
);
width = 946;
},
{
associatedMasterId = "ADAA8221-C97A-4B4F-BB2A-36DAD3E45CA4";
layerId = "1A8B86BA-A3C5-4896-859F-9D638130F639";
name = "Mar 31 17, 19:35";
paths = (
{
closed = 1;
nodes = (
"441 0 LINE",
"501 0 LINE",
"713 513 LINE",
"635 513 LINE",
"480 114 LINE",
"397 513 LINE",
"335 513 LINE",
"167 114 LINE",
"97 513 LINE",
"21 513 LINE",
"125 0 LINE",
"185 0 LINE",
"355 395 LINE"
);
}
);
width = 712;
},
{
associatedMasterId = "ADAA8221-C97A-4B4F-BB2A-36DAD3E45CA4";
layerId = "D4951BC6-1F36-4239-A871-ED7EF614090D";
name = "Apr 5 17, 19:34";
paths = (
{
closed = 1;
nodes = (
"169 513 LINE",
"121 461 LINE",
"63 307 OFFCURVE",
"40 141 OFFCURVE",
"104 56 CURVE SMOOTH",
"135 15 OFFCURVE",
"187 -6 OFFCURVE",
"249 -13 CURVE SMOOTH",
"325 -22 OFFCURVE",
"365 -13 OFFCURVE",
"450 1 CURVE",
"456 56 OFFCURVE",
"470 176 OFFCURVE",
"480 265 CURVE SMOOTH",
"489 348 OFFCURVE",
"498 430 OFFCURVE",
"507 513 CURVE",
"440 513 LINE",
"417 300 LINE SMOOTH",
"407 211 OFFCURVE",
"398 116 OFFCURVE",
"391 53 CURVE",
"314 37 OFFCURVE",
"238 38 OFFCURVE",
"191 74 CURVE SMOOTH",
"145 109 OFFCURVE",
"132 179 OFFCURVE",
"145 298 CURVE SMOOTH"
);
},
{
closed = 1;
nodes = (
"20 450 LINE",
"149 450 LINE",
"169 513 LINE",
"28 513 LINE"
);
},
{
closed = 1;
nodes = (
"428 73 LINE",
"459 32 OFFCURVE",
"528 -6 OFFCURVE",
"590 -13 CURVE SMOOTH",
"666 -22 OFFCURVE",
"706 -13 OFFCURVE",
"791 1 CURVE",
"797 56 OFFCURVE",
"811 176 OFFCURVE",
"821 265 CURVE SMOOTH",
"848 513 LINE",
"781 513 LINE",
"758 300 LINE SMOOTH",
"748 211 OFFCURVE",
"739 116 OFFCURVE",
"732 53 CURVE",
"584 22 OFFCURVE",
"480 89 OFFCURVE",
"428 163 CURVE"
);
}
);
width = 801;
},
{
associatedMasterId = "ADAA8221-C97A-4B4F-BB2A-36DAD3E45CA4";
background = {
paths = (
{
closed = 1;
nodes = (
"168 513 LINE",
"120 461 LINE",
"-17 97 OFFCURVE",
"61 -24 OFFCURVE",
"445 -24 CURVE SMOOTH",
"565 -24 OFFCURVE",
"688 -12 OFFCURVE",
"766 1 CURVE",
"772 56 OFFCURVE",
"786 176 OFFCURVE",
"796 265 CURVE SMOOTH",
"823 513 LINE",
"756 513 LINE",
"733 300 LINE SMOOTH",
"723 211 OFFCURVE",
"714 116 OFFCURVE",
"707 53 CURVE",
"677 47 OFFCURVE",
"599 43 OFFCURVE",
"512 43 CURVE SMOOTH",
"270 43 OFFCURVE",
"115 28 OFFCURVE",
"144 298 CURVE SMOOTH"
);
},
{
closed = 1;
nodes = (
"19 450 LINE",
"148 450 LINE",
"168 513 LINE",
"27 513 LINE"
);
},
{
closed = 1;
nodes = (
"440 1 LINE",
"446 56 OFFCURVE",
"460 176 OFFCURVE",
"470 265 CURVE SMOOTH",
"497 513 LINE",
"430 513 LINE",
"407 300 LINE SMOOTH",
"397 211 OFFCURVE",
"388 116 OFFCURVE",
"381 53 CURVE"
);
}
);
};
guideLines = (
{
angle = 84;
position = "{163, 149}";
}
);
layerId = "16624F31-AAC3-4C09-8DCC-EB0F02B376CE";
name = "Apr 5 17, 19:48";
paths = (
{
closed = 1;
nodes = (
"169 513 LINE",
"126 470 LINE",
"88 377 OFFCURVE",
"68 281 OFFCURVE",
"68 205 CURVE SMOOTH",
"68 73 OFFCURVE",
"130 -15 OFFCURVE",
"260 -15 CURVE SMOOTH",
"390 -15 OFFCURVE",
"454 100 OFFCURVE",
"472 265 CURVE SMOOTH",
"499 513 LINE",
"432 513 LINE",
"409 300 LINE SMOOTH",
"391 136 OFFCURVE",
"345 49 OFFCURVE",
"261 49 CURVE SMOOTH",
"155 49 OFFCURVE",
"129 137 OFFCURVE",
"146 298 CURVE SMOOTH"
);
},
{
closed = 1;
nodes = (
"20 450 LINE",
"149 450 LINE",
"169 513 LINE",
"28 513 LINE"
);
},
{
closed = 1;
nodes = (
"418 264 LINE",
"392 122 OFFCURVE",
"439 -15 OFFCURVE",
"590 -15 CURVE SMOOTH",
"720 -15 OFFCURVE",
"783 100 OFFCURVE",
"801 265 CURVE SMOOTH",
"828 513 LINE",
"761 513 LINE",
"738 300 LINE SMOOTH",
"721 139 OFFCURVE",
"675 49 OFFCURVE",
"592 49 CURVE SMOOTH",
"491 49 OFFCURVE",
"458 137 OFFCURVE",
"476 298 CURVE"
);
}
);
width = 801;
}
);
leftKerningGroup = v;
note = " ";
rightKerningGroup = v;
unicode = 0077;
},
{
glyphname = x;
lastChange = "2017-04-05 19:03:10 +0000";
layers = (
{
layerId = "A4E552E4-62BE-43BB-A58F-34F0EE3B77B8";
paths = (
{
closed = 1;
nodes = (
"623 513 LINE",
"416 513 LINE",
"327 394 LINE",
"238 513 LINE",
"31 513 LINE",
"219 268 LINE",
"0 0 LINE",
"214 0 LINE",
"327 145 LINE",
"440 0 LINE",
"654 0 LINE",
"435 268 LINE"
);
}
);
width = 654;
},
{
layerId = "7B60DD57-6012-4D0F-BD38-A72A4BAC0E9D";
paths = (
{
closed = 1;
nodes = (
"513 513 LINE",
"431 513 LINE",
"272 319 LINE",
"113 513 LINE",
"31 513 LINE",
"229 268 LINE",
"0 0 LINE",
"89 0 LINE",
"272 220 LINE",
"455 0 LINE",
"544 0 LINE",
"315 268 LINE"
);
}
);
width = 544;
},
{
layerId = "ADAA8221-C97A-4B4F-BB2A-36DAD3E45CA4";
paths = (
{
closed = 1;
nodes = (
"524 513 LINE",
"441 513 LINE",
"261 319 LINE",
"123 513 LINE",
"42 513 LINE",
"214 268 LINE",
"-44 0 LINE",
"46 0 LINE",
"253 220 LINE",
"412 0 LINE",
"500 0 LINE",
"300 268 LINE"
);
}
);
width = 544;
},
{
layerId = "7B29E906-CD8A-4887-A0AD-C831DD8203F3";
paths = (
{
closed = 1;
nodes = (
"635 513 LINE",
"425 513 LINE",
"322 394 LINE",
"247 513 LINE",
"43 513 LINE",
"204 268 LINE",
"-45 0 LINE",
"172 0 LINE",
"302 145 LINE",
"398 0 LINE",
"609 0 LINE",
"420 268 LINE"
);
}
);
width = 654;
}
);
rightKerningGroup = d;
unicode = 0078;
},
{
glyphname = y;
lastChange = "2017-04-05 18:44:31 +0000";
layers = (
{
layerId = "A4E552E4-62BE-43BB-A58F-34F0EE3B77B8";
paths = (
{
closed = 1;
nodes = (
"167 513 LINE",
"-17 513 LINE",
"213 0 LINE",
"86 -260 LINE",
"270 -260 LINE",
"623 513 LINE",
"439 513 LINE",
"302 197 LINE"
);
}
);
width = 598;
},
{
layerId = "7B60DD57-6012-4D0F-BD38-A72A4BAC0E9D";
paths = (
{
closed = 1;
nodes = (
"66 513 LINE",
"-8 513 LINE",
"212 0 LINE",
"85 -260 LINE",
"159 -260 LINE",
"502 513 LINE",
"428 513 LINE",
"247 77 LINE"
);
}
);
width = 477;
},
{
background = {
components = (
{
name = u;
transform = "{1, 0, 0, 1, 16, 0}";
}
);
};
layerId = "ADAA8221-C97A-4B4F-BB2A-36DAD3E45CA4";
paths = (
{
closed = 1;
nodes = (
"-5 450 LINE",
"124 450 LINE",
"144 513 LINE",
"3 513 LINE"
);
},
{
closed = 1;
nodes = (
"533 513 LINE",
"466 513 LINE",
"409 0 LINE",
"398 -97 OFFCURVE",
"365 -160 OFFCURVE",
"287 -194 CURVE SMOOTH",
"218 -224 OFFCURVE",
"109 -213 OFFCURVE",
"29 -174 CURVE",
"21 -241 LINE",
"125 -283 OFFCURVE",
"232 -284 OFFCURVE",
"315 -250 CURVE SMOOTH",
"406 -213 OFFCURVE",
"464 -132 OFFCURVE",
"478 0 CURVE"
);
},
{
closed = 1;
nodes = (
"445 318 LINE",
"432 183 OFFCURVE",
"379 50 OFFCURVE",
"251 50 CURVE SMOOTH",
"128 50 OFFCURVE",
"104 137 OFFCURVE",
"121 298 CURVE SMOOTH",
"144 513 LINE",
"101 470 LINE",
"63 377 OFFCURVE",
"43 287 OFFCURVE",
"43 211 CURVE SMOOTH",
"43 75 OFFCURVE",
"104 -15 OFFCURVE",
"242 -15 CURVE SMOOTH",
"418 -15 OFFCURVE",
"450 133 OFFCURVE",
"467 348 CURVE"
);
}
);
width = 526;
},
{
background = {
components = (
{
name = a;
transform = "{1, 0, 0, 1, 27, 0}";
}
);
};
layerId = "7B29E906-CD8A-4887-A0AD-C831DD8203F3";
paths = (
{
closed = 1;
nodes = (
"464 303 LINE",
"456 186 OFFCURVE",
"425 129 OFFCURVE",
"345 129 CURVE SMOOTH",
"271 129 OFFCURVE",
"249 178 OFFCURVE",
"260 279 CURVE SMOOTH",
"284 513 LINE",
"260 512 LINE",
"129 446 OFFCURVE",
"33 224 OFFCURVE",
"108 88 CURVE SMOOTH",
"145 22 OFFCURVE",
"192 -13 OFFCURVE",
"304 -13 CURVE SMOOTH",
"466 -13 OFFCURVE",
"531 195 OFFCURVE",
"544 377 CURVE"
);
},
{
closed = 1;
nodes = (
"33 378 LINE",
"213 381 LINE",
"272 513 LINE",
"48 513 LINE"
);
},
{
closed = 1;
nodes = (
"424 -79 OFFCURVE",
"360 -125 OFFCURVE",
"290 -125 CURVE SMOOTH",
"230 -125 OFFCURVE",
"143 -116 OFFCURVE",
"82 -79 CURVE",
"63 -233 LINE",
"108 -259 OFFCURVE",
"178 -275 OFFCURVE",
"280 -275 CURVE SMOOTH",
"421 -275 OFFCURVE",
"574 -221 OFFCURVE",
"599 -15 CURVE SMOOTH",
"663 513 LINE",
"486 513 LINE",
"436 33 LINE SMOOTH"
);
}
);
width = 656;
},
{
associatedMasterId = "7B29E906-CD8A-4887-A0AD-C831DD8203F3";
layerId = "0330FBF9-ED5D-418F-BF9F-EDA30B465E95";
name = "Mar 31 17, 18:56";
paths = (
{
closed = 1;
nodes = (
"176 513 LINE",
"-5 513 LINE",
"170 0 LINE",
"14 -260 LINE",
"201 -260 LINE",
"635 513 LINE",
"448 513 LINE",
"277 197 LINE"
);
}
);
width = 598;
},
{
associatedMasterId = "ADAA8221-C97A-4B4F-BB2A-36DAD3E45CA4";
background = {
components = (
{
name = u;
transform = "{1, 0, 0, 1, 16, 0}";
}
);
};
layerId = "8131CB51-60AD-42F8-8801-424D45E9109F";
name = "Apr 5 17, 19:44";
paths = (
{
closed = 1;
nodes = (
"533 513 LINE",
"466 513 LINE",
"409 0 LINE",
"398 -97 OFFCURVE",
"365 -160 OFFCURVE",
"287 -194 CURVE SMOOTH",
"218 -224 OFFCURVE",
"109 -213 OFFCURVE",
"29 -174 CURVE",
"21 -241 LINE",
"125 -283 OFFCURVE",
"232 -284 OFFCURVE",
"315 -250 CURVE SMOOTH",
"406 -213 OFFCURVE",
"464 -132 OFFCURVE",
"478 0 CURVE"
);
},
{
closed = 1;
nodes = (
"168 513 LINE",
"120 461 LINE",
"62 307 OFFCURVE",
"39 141 OFFCURVE",
"103 56 CURVE SMOOTH",
"134 15 OFFCURVE",
"186 -6 OFFCURVE",
"248 -13 CURVE SMOOTH",
"324 -22 OFFCURVE",
"390 -13 OFFCURVE",
"475 1 CURVE",
"481 56 OFFCURVE",
"495 176 OFFCURVE",
"505 265 CURVE SMOOTH",
"532 513 LINE",
"465 513 LINE",
"442 300 LINE SMOOTH",
"432 211 OFFCURVE",
"423 116 OFFCURVE",
"416 53 CURVE",
"339 37 OFFCURVE",
"237 38 OFFCURVE",
"190 74 CURVE SMOOTH",
"144 109 OFFCURVE",
"131 179 OFFCURVE",
"144 298 CURVE SMOOTH"
);
},
{
closed = 1;
nodes = (
"19 450 LINE",
"148 450 LINE",
"168 513 LINE",
"27 513 LINE"
);
}
);
width = 526;
}
);
leftKerningGroup = v;
rightKerningGroup = v;
unicode = 0079;
},
{
glyphname = z;
lastChange = "2017-04-05 19:02:10 +0000";
layers = (
{
layerId = "A4E552E4-62BE-43BB-A58F-34F0EE3B77B8";
paths = (
{
closed = 1;
nodes = (
"47 378 LINE",
"259 378 LINE",
"5 0 LINE",
"536 0 LINE",
"536 135 LINE",
"302 135 LINE",
"556 513 LINE",
"47 513 LINE"
);
}
);
width = 561;
},
{
layerId = "7B60DD57-6012-4D0F-BD38-A72A4BAC0E9D";
paths = (
{
closed = 1;
nodes = (
"32 448 LINE",
"327 448 LINE",
"0 0 LINE",
"441 0 LINE",
"441 65 LINE",
"124 65 LINE",
"451 513 LINE",
"32 513 LINE"
);
}
);
width = 451;
},
{
layerId = "ADAA8221-C97A-4B4F-BB2A-36DAD3E45CA4";
paths = (
{
closed = 1;
nodes = (
"36 448 LINE",
"330 448 LINE",
"-19 30 LINE",
"36 0 LINE",
"77 51 LINE",
"242 -32 LINE SMOOTH",
"317 -70 OFFCURVE",
"426 -17 OFFCURVE",
"426 102 CURVE",
"354 102 LINE",
"354 15 OFFCURVE",
"290 13 OFFCURVE",
"242 40 CURVE SMOOTH",
"121 107 LINE",
"462 513 LINE",
"43 513 LINE"
);
}
);
width = 451;
},
{
layerId = "7B29E906-CD8A-4887-A0AD-C831DD8203F3";
paths = (
{
closed = 1;
nodes = (
"539 513 LINE",
"226 125 LINE",
"309 95 LINE SMOOTH",
"358 77 OFFCURVE",
"372 107 OFFCURVE",
"378 165 CURVE",
"531 164 LINE",
"524 102 LINE SMOOTH",
"508 -15 OFFCURVE",
"409 -99 OFFCURVE",
"270 -43 CURVE SMOOTH",
"136 11 LINE",
"101 -36 LINE",
"-42 33 LINE",
"228 378 LINE",
"16 378 LINE",
"30 513 LINE"
);
}
);
width = 561;
},
{
associatedMasterId = "7B29E906-CD8A-4887-A0AD-C831DD8203F3";
layerId = "7607165B-42CF-44DE-A64B-A6839902C032";
name = "Mar 31 17, 18:56";
paths = (
{
closed = 1;
nodes = (
"43 378 LINE",
"254 378 LINE",
"-40 0 LINE",
"493 0 LINE",
"507 135 LINE",
"274 135 LINE",
"568 513 LINE",
"58 513 LINE"
);
}
);
width = 561;
}
);
leftKerningGroup = z;
rightKerningGroup = d;
unicode = 007A;
},
{
glyphname = e.001;
lastChange = "2017-03-31 17:57:46 +0000";
layers = (
{
layerId = "A4E552E4-62BE-43BB-A58F-34F0EE3B77B8";
paths = (
{
closed = 1;
nodes = (
"561 222 LINE",
"562 228 OFFCURVE",
"562 249 OFFCURVE",
"562 256 CURVE SMOOTH",
"562 436 OFFCURVE",
"451 528 OFFCURVE",
"295 528 CURVE SMOOTH",
"130 528 OFFCURVE",
"23 412 OFFCURVE",
"23 262 CURVE SMOOTH",
"23 113 OFFCURVE",
"136 -15 OFFCURVE",
"291 -15 CURVE SMOOTH",
"435 -15 OFFCURVE",
"495 31 OFFCURVE",
"553 109 CURVE",
"419 186 LINE",
"381 139 OFFCURVE",
"357 126 OFFCURVE",
"300 126 CURVE SMOOTH",
"255 126 OFFCURVE",
"198 160 OFFCURVE",
"198 222 CURVE"
);
},
{
closed = 1;
nodes = (
"203 330 LINE",
"204 375 OFFCURVE",
"248 413 OFFCURVE",
"299 413 CURVE SMOOTH",
"350 413 OFFCURVE",
"384 371 OFFCURVE",
"386 330 CURVE"
);
}
);
width = 593;
},
{
layerId = "7B60DD57-6012-4D0F-BD38-A72A4BAC0E9D";
paths = (
{
closed = 1;
nodes = (
"511 252 LINE",
"512 258 OFFCURVE",
"512 269 OFFCURVE",
"512 276 CURVE SMOOTH",
"512 426 OFFCURVE",
"401 528 OFFCURVE",
"275 528 CURVE SMOOTH",
"133 528 OFFCURVE",
"23 413 OFFCURVE",
"23 263 CURVE SMOOTH",
"23 103 OFFCURVE",
"123 -15 OFFCURVE",
"276 -15 CURVE SMOOTH",
"390 -15 OFFCURVE",
"451 28 OFFCURVE",
"503 109 CURVE",
"442 144 LINE",
"421 112 OFFCURVE",
"383 49 OFFCURVE",
"280 49 CURVE SMOOTH",
"165 49 OFFCURVE",
"92 143 OFFCURVE",
"92 252 CURVE"
);
},
{
closed = 1;
nodes = (
"96 310 LINE",
"97 355 OFFCURVE",
"158 464 OFFCURVE",
"279 464 CURVE SMOOTH",
"394 464 OFFCURVE",
"435 351 OFFCURVE",
"437 310 CURVE"
);
}
);
width = 543;
},
{
layerId = "ADAA8221-C97A-4B4F-BB2A-36DAD3E45CA4";
paths = (
{
closed = 1;
nodes = (
"494 251 LINE",
"496 257 OFFCURVE",
"497 268 OFFCURVE",
"497 273 CURVE SMOOTH",
"513 425 OFFCURVE",
"412 528 OFFCURVE",
"284 528 CURVE SMOOTH",
"144 528 OFFCURVE",
"23 414 OFFCURVE",
"8 266 CURVE SMOOTH",
"-9 104 OFFCURVE",
"79 -15 OFFCURVE",
"234 -15 CURVE SMOOTH",
"346 -15 OFFCURVE",
"411 27 OFFCURVE",
"472 108 CURVE",
"413 145 LINE",
"389 113 OFFCURVE",
"343 49 OFFCURVE",
"239 49 CURVE SMOOTH",
"125 49 OFFCURVE",
"64 142 OFFCURVE",
"75 251 CURVE"
);
},
{
closed = 1;
nodes = (
"85 309 LINE",
"91 354 OFFCURVE",
"165 464 OFFCURVE",
"287 464 CURVE SMOOTH",
"401 464 OFFCURVE",
"429 352 OFFCURVE",
"426 311 CURVE"
);
}
);
width = 543;
},
{
layerId = "7B29E906-CD8A-4887-A0AD-C831DD8203F3";
paths = (
{
closed = 1;
nodes = (
"10 151 OFFCURVE",
"59 60 OFFCURVE",
"154 16 CURVE SMOOTH",
"245 -26 OFFCURVE",
"355 -27 OFFCURVE",
"492 13 CURVE",
"505 153 LINE",
"384 107 OFFCURVE",
"189 120 OFFCURVE",
"199 226 CURVE",
"327 154 OFFCURVE",
"542 205 OFFCURVE",
"556 346 CURVE SMOOTH",
"568 471 OFFCURVE",
"466 528 OFFCURVE",
"337 528 CURVE SMOOTH",
"188 528 OFFCURVE",
"50 435 OFFCURVE",
"28 283 CURVE SMOOTH"
);
},
{
closed = 1;
nodes = (
"213 370 OFFCURVE",
"240 409 OFFCURVE",
"309 409 CURVE SMOOTH",
"375 409 OFFCURVE",
"394 379 OFFCURVE",
"391 343 CURVE SMOOTH",
"386 288 OFFCURVE",
"281 279 OFFCURVE",
"206 306 CURVE"
);
}
);
width = 593;
},
{
associatedMasterId = "7B29E906-CD8A-4887-A0AD-C831DD8203F3";
layerId = "A19E5554-B48D-410F-A776-9E3917616812";
name = "Mar 31 17, 18:51";
paths = (
{
closed = 1;
nodes = (
"541 218 LINE",
"543 224 OFFCURVE",
"544 245 OFFCURVE",
"545 248 CURVE SMOOTH",
"564 432 OFFCURVE",
"460 528 OFFCURVE",
"300 528 CURVE SMOOTH",
"139 528 OFFCURVE",
"23 416 OFFCURVE",
"8 270 CURVE SMOOTH",
"-8 117 OFFCURVE",
"95 -15 OFFCURVE",
"253 -15 CURVE SMOOTH",
"394 -15 OFFCURVE",
"457 28 OFFCURVE",
"523 106 CURVE",
"393 189 LINE",
"350 142 OFFCURVE",
"323 126 OFFCURVE",
"263 126 CURVE SMOOTH",
"221 126 OFFCURVE",
"171 156 OFFCURVE",
"178 218 CURVE"
);
},
{
closed = 1;
nodes = (
"194 326 LINE",
"200 371 OFFCURVE",
"252 413 OFFCURVE",
"306 413 CURVE SMOOTH",
"354 413 OFFCURVE",
"380 375 OFFCURVE",
"378 334 CURVE"
);
}
);
width = 593;
}
);
leftKerningGroup = c;
note = " ";
rightKerningGroup = c;
},
{
glyphname = f.001;
lastChange = "2017-03-31 17:57:55 +0000";
layers = (
{
layerId = "A4E552E4-62BE-43BB-A58F-34F0EE3B77B8";
paths = (
{
closed = 1;
nodes = (
"6 378 LINE",
"90 378 LINE",
"90 0 LINE",
"267 0 LINE",
"267 378 LINE",
"375 378 LINE",
"375 513 LINE",
"267 513 LINE",
"267 627 LINE SMOOTH",
"267 698 OFFCURVE",
"300 718 OFFCURVE",
"327 718 CURVE SMOOTH",
"356 718 OFFCURVE",
"369 704 OFFCURVE",
"369 704 CURVE",
"422 843 LINE",
"422 843 OFFCURVE",
"394 875 OFFCURVE",
"311 875 CURVE SMOOTH",
"193 875 OFFCURVE",
"90 792 OFFCURVE",
"90 642 CURVE SMOOTH",
"90 513 LINE",
"6 513 LINE"
);
}
);
width = 375;
},
{
layerId = "7B60DD57-6012-4D0F-BD38-A72A4BAC0E9D";
paths = (
{
closed = 1;
nodes = (
"6 448 LINE",
"120 448 LINE",
"120 0 LINE",
"187 0 LINE",
"187 448 LINE",
"338 448 LINE",
"338 513 LINE",
"187 513 LINE",
"187 617 LINE SMOOTH",
"187 768 OFFCURVE",
"238 813 OFFCURVE",
"285 813 CURVE SMOOTH",
"334 813 OFFCURVE",
"357 783 OFFCURVE",
"357 783 CURVE",
"383 847 LINE",
"383 847 OFFCURVE",
"349 875 OFFCURVE",
"286 875 CURVE SMOOTH",
"205 875 OFFCURVE",
"120 802 OFFCURVE",
"120 642 CURVE SMOOTH",
"120 513 LINE",
"6 513 LINE"
);
}
);
width = 336;
},
{
layerId = "ADAA8221-C97A-4B4F-BB2A-36DAD3E45CA4";
paths = (
{
closed = 1;
nodes = (
"10 448 LINE",
"124 448 LINE",
"77 0 LINE",
"144 0 LINE",
"191 448 LINE",
"342 448 LINE",
"349 513 LINE",
"198 513 LINE",
"208 616 LINE SMOOTH",
"224 767 OFFCURVE",
"282 813 OFFCURVE",
"330 813 CURVE SMOOTH",
"378 813 OFFCURVE",
"396 784 OFFCURVE",
"396 784 CURVE",
"428 846 LINE",
"427 846 OFFCURVE",
"396 875 OFFCURVE",
"332 875 CURVE SMOOTH",
"252 875 OFFCURVE",
"161 803 OFFCURVE",
"144 643 CURVE SMOOTH",
"131 513 LINE",
"17 513 LINE"
);
}
);
width = 336;
},
{
layerId = "7B29E906-CD8A-4887-A0AD-C831DD8203F3";
paths = (
{
closed = 1;
nodes = (
"13 378 LINE",
"97 378 LINE",
"41 -193 LINE",
"236 48 LINE",
"274 378 LINE",
"382 378 LINE",
"396 513 LINE",
"288 513 LINE",
"300 627 LINE SMOOTH",
"308 698 OFFCURVE",
"343 718 OFFCURVE",
"370 718 CURVE SMOOTH",
"391 718 OFFCURVE",
"410 719 OFFCURVE",
"419 718 CURVE",
"435 869 LINE",
"435 869 OFFCURVE",
"447 876 OFFCURVE",
"370 875 CURVE SMOOTH",
"252 873 OFFCURVE",
"141 792 OFFCURVE",
"125 642 CURVE SMOOTH",
"111 513 LINE",
"27 513 LINE"
);
},
{
closed = 1;
nodes = (
"262 233 LINE",
"291 582 LINE",
"118 582 LINE",
"85 233 LINE",
"71 98 LINE",
"59 -16 LINE SMOOTH",
"52 -87 OFFCURVE",
"14 -110 OFFCURVE",
"-13 -110 CURVE SMOOTH",
"-34 -110 OFFCURVE",
"-47 -110 OFFCURVE",
"-56 -109 CURVE",
"-74 -260 LINE",
"-74 -260 OFFCURVE",
"-86 -264 OFFCURVE",
"-11 -264 CURVE SMOOTH",
"107 -264 OFFCURVE",
"218 -181 OFFCURVE",
"234 -31 CURVE SMOOTH",
"248 98 LINE"
);
}
);
width = 375;
},
{
associatedMasterId = "7B29E906-CD8A-4887-A0AD-C831DD8203F3";
layerId = "B9335259-DE72-48FA-BAB4-C1EE1F869B1E";
name = "Mar 31 17, 18:52";
paths = (
{
closed = 1;
nodes = (
"2 378 LINE",
"86 378 LINE",
"47 0 LINE",
"224 0 LINE",
"263 378 LINE",
"371 378 LINE",
"386 513 LINE",
"278 513 LINE",
"289 623 LINE SMOOTH",
"297 694 OFFCURVE",
"336 718 OFFCURVE",
"366 718 CURVE SMOOTH",
"392 718 OFFCURVE",
"399 708 OFFCURVE",
"399 708 CURVE",
"465 843 LINE",
"464 843 OFFCURVE",
"439 875 OFFCURVE",
"353 875 CURVE SMOOTH",
"238 875 OFFCURVE",
"130 796 OFFCURVE",
"115 646 CURVE SMOOTH",
"101 513 LINE",
"17 513 LINE"
);
}
);
width = 375;
}
);
note = " ";
rightKerningGroup = d;
},
